<svg xmlns="http://www.w3.org/2000/svg" xmlns:xlink="http://www.w3.org/1999/xlink" width="465" height="221" viewBox="0 0 465 221">
  <defs>
    <clipPath id="clip-path">
      <rect id="Rectángulo_42677" data-name="Rectángulo 42677" width="465" height="221" transform="translate(1044 1573)" fill="#fff"/>
    </clipPath>
  </defs>
  <g id="Grupo_116556" data-name="Grupo 116556" transform="translate(-1044 -1573)">
    <g id="Enmascarar_grupo_189" data-name="Enmascarar grupo 189" clip-path="url(#clip-path)">
      <g id="Layer_4" data-name="Layer 4" transform="translate(1172.335 1573)">
        <g id="Grupo_136975" data-name="Grupo 136975">
          <g id="Grupo_136973" data-name="Grupo 136973">
            <path id="Trazado_172413" data-name="Trazado 172413" d="M182.68,95.234h0a.209.209,0,0,1-.167-.237l.1-.556a.209.209,0,0,1,.237-.167h0a.209.209,0,0,1,.167.237l-.1.556A.209.209,0,0,1,182.68,95.234Z" fill="#363b82"/>
            <path id="Trazado_172414" data-name="Trazado 172414" d="M183.276,90.8l.278.05-.848,4.676.429-.354.944-5.2-.525-.712Z" fill="#cdcdce"/>
            <rect id="Rectángulo_44271" data-name="Rectángulo 44271" width="1.672" height="15.216" transform="translate(181.751 88.653) rotate(10.24)" fill="#3d46c2"/>
            <rect id="Rectángulo_44272" data-name="Rectángulo 44272" width="1.672" height="7.196" transform="translate(181.748 88.657) rotate(10.24)" fill="#363b82"/>
            <rect id="Rectángulo_44273" data-name="Rectángulo 44273" width="0.838" height="15.216" transform="translate(182.568 88.804) rotate(10.24)" fill="#363b82"/>
            <rect id="Rectángulo_44274" data-name="Rectángulo 44274" width="2.257" height="6.893" transform="translate(181.46 88.599) rotate(10.24)" fill="#363b82"/>
            <rect id="Rectángulo_44275" data-name="Rectángulo 44275" width="1.131" height="6.893" transform="translate(182.57 88.802) rotate(10.24)" fill="#3d46c2"/>
            <path id="Trazado_172415" data-name="Trazado 172415" d="M175.418,90.33h1.606v9.065a.731.731,0,0,1-.727.727h-.152a.731.731,0,0,1-.727-.727V90.33Z" transform="translate(-19.321 51.813) rotate(-15.87)" fill="#525252"/>
            <path id="Trazado_172416" data-name="Trazado 172416" d="M174.964,90.492l2.591,9.11a.315.315,0,0,1-.222.394l.692-.2a.323.323,0,0,0,.222-.394l-2.591-9.11-.692.2Z" fill="#444545"/>
            <path id="Trazado_172417" data-name="Trazado 172417" d="M176.923,93.416h0a.2.2,0,0,1-.247-.136l-.121-.429a.2.2,0,0,1,.136-.247h0a.2.2,0,0,1,.247.136l.121.429A.2.2,0,0,1,176.923,93.416Z" fill="#3a3a3a"/>
            <path id="Trazado_172418" data-name="Trazado 172418" d="M175.656,90.3l.242.076a.559.559,0,0,1,.374.384l.818,2.884.061-.1a.774.774,0,0,0,.091-.616l-.975-3.434a.564.564,0,0,0-.354-.379l-.651-.232.4,1.409Z" fill="#8c8d8c"/>
            <rect id="Rectángulo_44276" data-name="Rectángulo 44276" width="1.606" height="4.247" transform="translate(174.16 90.908) rotate(-15.87)" fill="#444545"/>
            <path id="Trazado_172419" data-name="Trazado 172419" d="M175.095,88.668h.2a.954.954,0,0,1,.954.954v4.924h-2.111V89.623a.954.954,0,0,1,.954-.954Z" transform="translate(-18.372 51.394) rotate(-15.87)" fill="#525252"/>
            <path id="Trazado_172420" data-name="Trazado 172420" d="M174.928,88.628l-.692.2a.49.49,0,0,1,.611.343l1.47,5.176.692-.2-1.47-5.176A.5.5,0,0,0,174.928,88.628Z" fill="#444545"/>
            <circle id="Elipse_6103" data-name="Elipse 6103" cx="75.897" cy="75.897" r="75.897" transform="translate(10.883 0)" fill="#dbf5bf"/>
            <rect id="Rectángulo_44277" data-name="Rectángulo 44277" width="4.121" height="39.986" transform="translate(64.459 152.229)" fill="#3d494f"/>
            <rect id="Rectángulo_44278" data-name="Rectángulo 44278" width="4.121" height="30.144" transform="translate(64.459 155.718)" fill="#49575e"/>
            <path id="Trazado_172421" data-name="Trazado 172421" d="M61.045,87.048H25.24a2.037,2.037,0,0,0-1.949,2.646C26,98.345,34.527,126.549,38.108,149.36a4.962,4.962,0,0,0,4.9,4.207h51.3a3.459,3.459,0,0,0,3.2-2.141l2.9-7L61.045,87.043Z" fill="#2f3356"/>
            <path id="Trazado_172422" data-name="Trazado 172422" d="M46.465,148.108a4.967,4.967,0,0,1-4.9-4.212C38.3,123.15,30.952,97.946,27.614,87.048H25.24a2.037,2.037,0,0,0-1.949,2.646C26,98.345,34.527,126.549,38.108,149.36a4.962,4.962,0,0,0,4.9,4.207h51.3a3.459,3.459,0,0,0,3.2-2.141l1.379-3.323H46.465Z" fill="#262a44"/>
            <path id="Trazado_172423" data-name="Trazado 172423" d="M88.76,214.41l-4.121-3.378h6.07Z" fill="#20282d"/>
            <circle id="Elipse_6104" data-name="Elipse 6104" cx="3.747" cy="3.747" r="3.747" transform="translate(88.229 210.243)" fill="#2c363e"/>
            <path id="Trazado_172424" data-name="Trazado 172424" d="M45.173,214.41l4.116-3.378h-6.07Z" fill="#20282d"/>
            <path id="Trazado_172425" data-name="Trazado 172425" d="M47.258,206.017h39.1a5.311,5.311,0,0,1,5.308,5.308v.55H41.951v-.55A5.311,5.311,0,0,1,47.258,206.017Z" fill="#3b4955"/>
            <rect id="Rectángulo_44279" data-name="Rectángulo 44279" width="49.718" height="2.535" transform="translate(41.951 209.345)" fill="#2c363e"/>
            <circle id="Elipse_6105" data-name="Elipse 6105" cx="3.747" cy="3.747" r="3.747" transform="translate(38.204 210.243)" fill="#2c363e"/>
            <rect id="Rectángulo_44280" data-name="Rectángulo 44280" width="7.297" height="19.751" rx="3.303" transform="translate(62.969 188.427)" fill="#3b4955"/>
            <path id="Trazado_172426" data-name="Trazado 172426" d="M96.784,122.408s15.943,7.4,19.114,14.882-37.1,56.071-37.1,56.071L76.4,191.745s-2.626,4.318-2.7,5.979,2.389,7.484,4.808,9.827,4.535,6.5,3.777,9.292H76.241l-11.029-6.722-.53-5.287-2.343,3.929-3.171-2.57s.833-7.252,3.929-9.822l4.666-9.949-2.025-1.838,24.25-39.436L65.469,123.716l18.024-1.838,13.3.53Z" fill="#ffd6d2"/>
            <path id="Trazado_172427" data-name="Trazado 172427" d="M74.119,199.77a6.431,6.431,0,0,0-3.995,2.873l-4.772-2.868c-.3-2.868-2.267-3.4-2.267-3.4-3.1,2.57-3.929,9.822-3.929,9.822l3.171,2.57,2.343-3.929.53,5.287,11.029,6.722h6.045c.758-2.8-1.358-6.949-3.777-9.292-1.783-1.727-3.58-5.333-4.378-7.782Z" fill="#38322f"/>
            <path id="Trazado_172428" data-name="Trazado 172428" d="M65.731,184.589l2.025,1.838L76.4,191.75l2.394,1.616s40.279-48.592,37.1-56.071-19.114-14.882-19.114-14.882l-13.3-.53-18.024,1.838,24.518,21.432-24.25,39.436Z" fill="#91981f"/>
            <rect id="Rectángulo_44281" data-name="Rectángulo 44281" width="4.757" height="94.436" transform="translate(138.225 122.408)" fill="#262a44"/>
            <path id="Trazado_172429" data-name="Trazado 172429" d="M99.259,102.506l8.923,1.424s6.232-1.086,7.323-.758,5.893,2.187,5.893,2.187l3.621,6.818H118.03l-2.187-1.7a13.53,13.53,0,0,1-7.237-1.116l-8.545-.04-.808-6.813Z" fill="#ffd6d2"/>
            <path id="Trazado_172430" data-name="Trazado 172430" d="M77.518,75.119l7.176-5.893A47.405,47.405,0,0,1,88.32,76.68c1.914,4.722,2.944,21.786,2.944,21.786l14.579,4.459-1.51,6.671-21.079-1.232-2.57-9.519-3.171-23.72Z" fill="#c6c5c5"/>
            <path id="Trazado_172431" data-name="Trazado 172431" d="M91.567,48.162l1.358-2.419s4.833-13.3-7.782-18.054-21.079,4.232-22.21,14.2-.525,13.3-5.156,17.933c-8.161,8.161-15.266,17.009-11.464,32.234,3.323,13.3,13.676,16.847,13.676,16.847L75.175,96.062,76.23,68.711l7.858,2.868a11.459,11.459,0,0,0,2.343-7.706,13.565,13.565,0,0,0-2.419-6.722l7.555-8.989Z" fill="#612d29"/>
            <path id="Trazado_172432" data-name="Trazado 172432" d="M72,67.11l-7.252-2.868s-8.176-.116-10.726,5.515c-2.944,6.5,4.833,27.048-.3,44.723H87.644s-3.247-10.2-1.283-17.907c1.1-4.313,3.106-5.3,3.4-11.408.379-7.838-5.06-15.943-5.06-15.943L72.913,65.9,72,67.1Z" fill="#fff"/>
            <path id="Trazado_172433" data-name="Trazado 172433" d="M206.254,221H4.5a2.082,2.082,0,0,1-2.076-2.076h0A2.082,2.082,0,0,1,4.5,216.849H206.254a2.082,2.082,0,0,1,2.076,2.076h0A2.082,2.082,0,0,1,206.254,221Z" fill="#2a333d"/>
            <path id="Trazado_172434" data-name="Trazado 172434" d="M23.195,9.8l5.439-1.6-1.591,5.439,1.591,5.444-5.439-1.6-5.439,1.6,1.591-5.444L17.756,8.206Z" transform="translate(1.122)" fill="#dbf5bf"/>
            <path id="Trazado_172435" data-name="Trazado 172435" d="M172.782,53.707l5.439-1.591-1.591,5.439,1.591,5.439L172.782,61.4l-5.439,1.591,1.591-5.439-1.591-5.439Z" fill="#dbf5bf"/>
            <path id="Trazado_172436" data-name="Trazado 172436" d="M5.439,105.192l5.439-1.6-1.591,5.444,1.591,5.439-5.439-1.6L0,114.479l1.591-5.439L0,103.6Z" transform="translate(1.122)" fill="#dbf5bf"/>
            <path id="Trazado_172437" data-name="Trazado 172437" d="M148.421,9.332l3.843-1.126-1.126,3.848,1.126,3.848-3.843-1.126L144.573,15.9l1.126-3.848-1.126-3.848Z" transform="translate(1.122)" fill="#dbf5bf"/>
            <path id="Trazado_172438" data-name="Trazado 172438" d="M150.264,132.862l3.848-1.126-1.126,3.848,1.126,3.848-3.848-1.126-3.843,1.126,1.126-3.848-1.126-3.848Z" fill="#dbf5bf"/>
            <path id="Trazado_172439" data-name="Trazado 172439" d="M101.1,46.395V37.4a3.353,3.353,0,0,1,3.515-3.136h14.65a3.349,3.349,0,0,1,3.515,3.136v8.994a3.353,3.353,0,0,1-3.515,3.136h-22.5Z" fill="#fff"/>
            <path id="Trazado_172440" data-name="Trazado 172440" d="M107.526,41.87a1.582,1.582,0,1,1-1.51-1.651A1.581,1.581,0,0,1,107.526,41.87Z" fill="#2f363a"/>
            <path id="Trazado_172441" data-name="Trazado 172441" d="M113.328,41.87a1.582,1.582,0,1,1-1.51-1.651A1.581,1.581,0,0,1,113.328,41.87Z" fill="#2f363a"/>
            <path id="Trazado_172442" data-name="Trazado 172442" d="M119.131,41.87a1.582,1.582,0,1,1-1.51-1.651A1.581,1.581,0,0,1,119.131,41.87Z" fill="#2f363a"/>
            <path id="Trazado_172443" data-name="Trazado 172443" d="M93.532,43.385S91.678,55.737,82.654,59.873l-2.495-.682.788,4a11.654,11.654,0,0,0,3.045,5.323l.7.7s-3.853,4.08-8.838,3.4-11.105-8.388-11.105-8.388l1.318-.525a6.5,6.5,0,0,0,3.944-4.676l1.313-6.131s-4.757-1.358-4.757-6.121,4.08-3.853,5.212-2.267l3.171-5.893s9.534,2.914,13.16-2.3a8.389,8.389,0,0,0,5.424,7.055Z" fill="#ffd6d2"/>
            <path id="Trazado_172444" data-name="Trazado 172444" d="M66.186,74.589l1.066.848,7.7,24.836L85.74,101.41V103H74.2Z" fill="#c6c5c5"/>
            <path id="Trazado_172445" data-name="Trazado 172445" d="M82.664,102.435l9.05,1.444s6.318-1.1,7.429-.768,5.974,2.222,5.974,2.222l3.671,6.914H101.7l-2.222-1.727a13.763,13.763,0,0,1-7.338-1.131l-8.661-.04-.818-6.908Z" fill="#ffd6d2"/>
            <path id="Trazado_172446" data-name="Trazado 172446" d="M56.268,93.744l8.484,17.034,22.028.348-.879-3.752Z" fill="#c6c5c5"/>
            <path id="Trazado_172447" data-name="Trazado 172447" d="M66.337,72.019l7.782,29.088,14.2,1.661-.444,7.388-22.3-.889L55.242,92.042S63.464,72.1,66.332,72.024Z" fill="#fff"/>
            <path id="Trazado_172448" data-name="Trazado 172448" d="M74.119,101.107H67.772l6.348-1.364.828.53Z" fill="#c6c5c5"/>
            <path id="Trazado_172449" data-name="Trazado 172449" d="M91.269,98.461l-4.08-.3,4.065-1.131Z" fill="#aeaeaf"/>
            <path id="Trazado_172450" data-name="Trazado 172450" d="M115.368,113.081l9.6-32.825h44.8l.833,1.737-11.56,29.689-10.05,2.04Z" fill="#243236"/>
            <path id="Trazado_172451" data-name="Trazado 172451" d="M126.246,81.917H170.56l-.8-1.661h-44.8l-9.6,32.825,1.757.035Z" fill="#1e2a2d"/>
            <rect id="Rectángulo_44282" data-name="Rectángulo 44282" width="69.276" height="2.798" transform="translate(89.754 111.682)" fill="#243236"/>
            <rect id="Rectángulo_44283" data-name="Rectángulo 44283" width="27.952" height="2.798" transform="translate(89.754 111.682)" fill="#1e2a2d"/>
            <rect id="Rectángulo_44284" data-name="Rectángulo 44284" width="4.57" height="1.055" transform="translate(119.822 112.666)" fill="#13181a"/>
            <circle id="Elipse_6106" data-name="Elipse 6106" cx="0.606" cy="0.606" r="0.606" transform="translate(126.095 112.475)" fill="#13181a"/>
            <path id="Trazado_172452" data-name="Trazado 172452" d="M82.654,66.878v3.984a12.416,12.416,0,0,0,2.04-1.636l-.7-.7a11.954,11.954,0,0,1-1.343-1.646Z" fill="#3d46c2"/>
            <path id="Trazado_172453" data-name="Trazado 172453" d="M67.464,62.944h0a6.446,6.446,0,0,1-1.394.768l-1.318.525a40.4,40.4,0,0,0,4.6,4.757l-1.884-6.055Z" fill="#3d46c2"/>
            <path id="Trazado_172454" data-name="Trazado 172454" d="M53.945,122.408s-1.586,25.311,12.539,25.311S94.057,149,94.057,149l25.6,49,2.879-1.328,5.212,9.6s-.076,3.626,0,6.045,2.343,4.535,2.343,4.535h4.232l-.606-2.944,4.308,2.944h15.337a7.031,7.031,0,0,0-4.611-7.176c-2.646-1.035-4.833-2.04-6.272-2.57a35.841,35.841,0,0,1-4.984-3.1l-4.686-10.8,2.616-1.263s-24.149-57.515-28.154-60.914-53.339-8.61-53.339-8.61Z" fill="#ffd6d2"/>
            <rect id="Rectángulo_44285" data-name="Rectángulo 44285" width="4.757" height="94.436" transform="translate(20.326 122.408)" fill="#262a44"/>
            <rect id="Rectángulo_44286" data-name="Rectángulo 44286" width="4.757" height="94.436" transform="translate(184.458 122.408)" fill="#2f3356"/>
            <path id="Trazado_172455" data-name="Trazado 172455" d="M94.062,149l9.58,1.212-8.267,1.3Z" fill="#685f56"/>
            <path id="Trazado_172456" data-name="Trazado 172456" d="M132.821,193.2l2.616-1.263s-24.149-57.515-28.154-60.914-53.339-8.61-53.339-8.61-1.586,25.311,12.539,25.311,27.573,1.283,27.573,1.283l25.6,49,2.879-1.328,10.277-3.474Z" fill="#dce736"/>
            <path id="Trazado_172457" data-name="Trazado 172457" d="M148.759,209.668c-2.646-1.035-4.833-2.04-6.272-2.57A36.16,36.16,0,0,1,137.5,204a4.679,4.679,0,0,0-2.646,4.944h-3.777s.758-2.076-3.323-2.677c0,0-.076,3.626,0,6.045s2.343,4.535,2.343,4.535h4.232l-.606-2.944,4.308,2.944H153.37a7.031,7.031,0,0,0-4.611-7.176Z" fill="#38322f"/>
            <path id="Trazado_172458" data-name="Trazado 172458" d="M84.639,127.7l-2.207-5.818H55.242l-1.348,2.192,24.452,6.343Z" fill="#786c62"/>
            <rect id="Rectángulo_44287" data-name="Rectángulo 44287" width="4.757" height="94.436" transform="translate(67.948 122.408)" fill="#262a44"/>
            <rect id="Rectángulo_44288" data-name="Rectángulo 44288" width="173.913" height="4.984" transform="translate(18.665 122.408)" fill="#b6b6b7"/>
            <rect id="Rectángulo_44289" data-name="Rectángulo 44289" width="56.283" height="4.984" transform="translate(18.665 122.408)" fill="#787878"/>
            <rect id="Rectángulo_44290" data-name="Rectángulo 44290" width="173.913" height="2.495" transform="translate(18.665 122.408)" fill="#989897"/>
            <rect id="Rectángulo_44291" data-name="Rectángulo 44291" width="56.283" height="1.737" transform="translate(18.665 123.166)" fill="#616161"/>
            <rect id="Rectángulo_44292" data-name="Rectángulo 44292" width="46.375" height="2.863" transform="translate(23.952 199.472)" fill="#262a44"/>
            <rect id="Rectángulo_44293" data-name="Rectángulo 44293" width="46.375" height="2.863" transform="translate(140.558 199.472)" fill="#262a44"/>
            <rect id="Rectángulo_44294" data-name="Rectángulo 44294" width="179.504" height="9.595" transform="translate(16.473 114.479)" fill="#2f3356"/>
            <rect id="Rectángulo_44295" data-name="Rectángulo 44295" width="61.045" height="9.595" transform="translate(16.473 114.479)" fill="#262a44"/>
            <rect id="Rectángulo_44296" data-name="Rectángulo 44296" width="11.676" height="17.796" transform="translate(172.782 96.683)" fill="#f85316"/>
            <rect id="Rectángulo_44297" data-name="Rectángulo 44297" width="11.676" height="9.368" transform="translate(172.782 102.314)" fill="#fff"/>
            <rect id="Rectángulo_44298" data-name="Rectángulo 44298" width="11.676" height="1.055" transform="translate(172.782 113.419)" fill="#f85316"/>
            <circle id="Elipse_6107" data-name="Elipse 6107" cx="0.884" cy="0.884" r="0.884" transform="translate(69.953 51.596)" fill="#3d46c2"/>
            <path id="Trazado_172459" data-name="Trazado 172459" d="M80.159,59.2l-5.691-2.3,6.08,4.262Z" fill="#f49d98"/>
          </g>
          <g id="Grupo_136974" data-name="Grupo 136974">
            <circle id="Elipse_6108" data-name="Elipse 6108" cx="2.015" cy="2.015" r="2.015" transform="translate(55.263 73.246)" fill="#75b52f"/>
            <circle id="Elipse_6109" data-name="Elipse 6109" cx="2.015" cy="2.015" r="2.015" transform="translate(57.606 79.589)" fill="#75b52f"/>
            <circle id="Elipse_6110" data-name="Elipse 6110" cx="2.015" cy="2.015" r="2.015" transform="translate(58.136 87.234)" fill="#75b52f"/>
            <circle id="Elipse_6111" data-name="Elipse 6111" cx="2.015" cy="2.015" r="2.015" transform="translate(58.136 94.325)" fill="#75b52f"/>
            <circle id="Elipse_6112" data-name="Elipse 6112" cx="2.015" cy="2.015" r="2.015" transform="translate(57.606 102.435)" fill="#75b52f"/>
            <circle id="Elipse_6113" data-name="Elipse 6113" cx="2.015" cy="2.015" r="2.015" transform="translate(57.278 109.111)" fill="#75b52f"/>
          </g>
        </g>
      </g>
    </g>
  </g>
</svg>
