<svg xmlns="http://www.w3.org/2000/svg" xmlns:xlink="http://www.w3.org/1999/xlink" width="465" height="221" viewBox="0 0 465 221">
  <defs>
    <clipPath id="clip-path">
      <rect id="Rectángulo_42677" data-name="Rectángulo 42677" width="465" height="221" transform="translate(1044 1573)" fill="#fff"/>
    </clipPath>
  </defs>
  <g id="Grupo_136604" data-name="Grupo 136604" transform="translate(-1044 -1573)">
    <g id="Enmascarar_grupo_190" data-name="Enmascarar grupo 190" clip-path="url(#clip-path)">
      <g id="Layer_4" data-name="Layer 4" transform="translate(1163.322 1573)">
        <g id="Grupo_136980" data-name="Grupo 136980">
          <g id="Grupo_136979" data-name="Grupo 136979">
            <g id="Grupo_136978" data-name="Grupo 136978">
              <g id="Grupo_136976" data-name="Grupo 136976">
                <circle id="Elipse_6114" data-name="Elipse 6114" cx="89.711" cy="89.711" r="89.711" transform="translate(14.457 0)" fill="#dbf5bf"/>
                <path id="Trazado_172460" data-name="Trazado 172460" d="M20.891,25.663l6.429-1.886-1.886,6.429,1.886,6.429-6.429-1.881-6.429,1.881,1.881-6.429-1.881-6.429Z" fill="#dbf5bf"/>
                <path id="Trazado_172461" data-name="Trazado 172461" d="M198.749,45.329l6.429-1.881L203.3,49.878l1.881,6.429-6.429-1.881-6.429,1.881,1.881-6.429-1.881-6.429Z" fill="#dbf5bf"/>
                <path id="Trazado_172462" data-name="Trazado 172462" d="M38.062,164.282l4.543-1.334L41.276,167.5l1.328,4.548-4.543-1.334-4.548,1.334,1.328-4.548-1.328-4.548Z" fill="#dbf5bf"/>
                <path id="Trazado_172463" data-name="Trazado 172463" d="M153.186,1.334,157.728,0,156.4,4.548l1.328,4.543-4.543-1.328-4.548,1.328,1.334-4.543L148.637,0Z" fill="#dbf5bf"/>
              </g>
              <path id="Trazado_172464" data-name="Trazado 172464" d="M82.475,119.7l-.349-.2c4.23-7.429,2.683-20.052.432-28.085-3.6-12.842-2.511-27.637-2.5-27.783l.4.031c-.01.146-1.089,14.874,2.49,27.648,2.266,8.085,3.808,20.87-.469,28.388Z" fill="#fff"/>
              <path id="Trazado_172465" data-name="Trazado 172465" d="M223.339,221H3.016C1.355,221,0,220.182,0,219.187H0c0-1,1.36-1.813,3.016-1.813H223.339c1.662,0,3.016.818,3.016,1.813h0C226.356,220.182,225,221,223.339,221Z" fill="#2a333d"/>
              <path id="Trazado_172466" data-name="Trazado 172466" d="M106.153,198.817l.323,4.564,4.543,6.9s6.559,1.3,6.559,5.7H102.4s-10.341-9.987-10.425-10.57,2.584-4.9,3.834-5.5,2.959-5.679,2.959-5.679l7.382,4.585Z" fill="#ffd6d2"/>
              <path id="Trazado_172467" data-name="Trazado 172467" d="M111.013,210.278l-3.042-4.621a5.567,5.567,0,0,0-5.908,1.162l-6.559-6-.276-.474c-1.349,1.271-3.329,4.558-3.256,5.059.083.583,10.425,10.57,10.425,10.57h15.176c0-4.4-6.559-5.7-6.559-5.7Z" fill="#373849"/>
              <path id="Trazado_172468" data-name="Trazado 172468" d="M125.256,202.318a10.952,10.952,0,0,1,1.141,6.22c-.318,2.949.516,7.189,1.433,7.377s26.434-5.074,26.434-5.074a6.165,6.165,0,0,0-5.09-5.3c-4.668-.839-9.664-.818-12.535-4.366-1.844-2.282-11.378,1.146-11.378,1.146Z" fill="#ffd6d2"/>
              <path id="Trazado_172469" data-name="Trazado 172469" d="M80.594,92.811l3.944-1.438,27.841,13.946s4.558-1.646,5.668-1.855a34.41,34.41,0,0,1,6,.594,63.611,63.611,0,0,1,4.934,4.371H104.032l-24.35-4.558.9-11.065Z" fill="#f7bdba"/>
              <path id="Trazado_172470" data-name="Trazado 172470" d="M81.005,87.377a6.74,6.74,0,0,1,3.532,3.991l-2.61,7.976-8.21-.083,3.954-9.742,3.339-2.141Z" fill="#dce736"/>
              <g id="Grupo_136977" data-name="Grupo 136977">
                <path id="Trazado_172471" data-name="Trazado 172471" d="M129.226,103.339s.344.6.63.531.047-.813.047-.813Z" fill="#6f6f80"/>
                <path id="Trazado_172472" data-name="Trazado 172472" d="M129.08,102.2h0a.937.937,0,0,1-1.224-.474l-7.023-15.978a.937.937,0,0,1,.474-1.224h0a.937.937,0,0,1,1.224.474l7.023,15.978A.937.937,0,0,1,129.08,102.2Z" fill="#3f3e4a"/>
                <path id="Trazado_172473" data-name="Trazado 172473" d="M121.7,87.721l6.048,13.759a.958.958,0,1,0,1.7-.75L123.4,86.97l-1.7.745Z" fill="#2e2f36"/>
                <path id="Trazado_172474" data-name="Trazado 172474" d="M130.039,103.126l-.453-2.068-1.657.761,1.245,1.667a.71.71,0,0,0,.865-.365Z" fill="#3f3e4a"/>
              </g>
              <path id="Trazado_172475" data-name="Trazado 172475" d="M47.59,156.2s-13.009,0-13.009-15.947v-62.7a5.069,5.069,0,0,1,4.965-5.163h20.2V156.2H47.585Z" fill="#3a4054"/>
              <path id="Trazado_172476" data-name="Trazado 172476" d="M51.8,153.535s-13.009,0-13.009-15.343V77.359a4.967,4.967,0,0,1,4.965-4.965H39.547a5.069,5.069,0,0,0-4.965,5.163v62.7c0,15.947,13.009,15.947,13.009,15.947H59.75V153.54H51.8Z" fill="#2e3342"/>
              <path id="Trazado_172477" data-name="Trazado 172477" d="M82.969,121.047l2.167.5s38.187,8.726,39.8,11.284c.047.073-14.29,56.937-17.155,67.075l-11.029-3.673s-.052-1.98-.052-2.146,7.283-47.585,7.283-47.585L71.409,135.384l-.943-6.95,12.508-7.393Z" fill="#182539"/>
              <path id="Trazado_172478" data-name="Trazado 172478" d="M52.951,139.114s.557,7.45,6.45,9.841h49.2l14.613,55.035a146.209,146.209,0,0,0,14.848-3.287s-15.009-66.59-16.119-67.366S83.47,122.829,83.47,122.829L65.35,127.278,52.956,139.119Z" fill="#182539"/>
              <path id="Trazado_172479" data-name="Trazado 172479" d="M67.075,170.966H59.812l-4.136-3.277.62-.781,3.866,3.058h6.913Z" fill="#e7e7e7"/>
              <path id="Trazado_172480" data-name="Trazado 172480" d="M53.712,212.253h36.27a3.67,3.67,0,0,1,3.668,3.668H50.044A3.67,3.67,0,0,1,53.712,212.253Z" fill="#8a91aa"/>
              <rect id="Rectángulo_44299" data-name="Rectángulo 44299" width="7.043" height="42.803" transform="translate(67.366 157.682)" fill="#b1b8d1"/>
              <rect id="Rectángulo_44300" data-name="Rectángulo 44300" width="3.095" height="42.803" transform="translate(67.366 157.682)" fill="#9ba1b4"/>
              <path id="Trazado_172481" data-name="Trazado 172481" d="M66.241,157.682h9.3v11.68a4.527,4.527,0,0,1-4.527,4.527h-.245a4.527,4.527,0,0,1-4.527-4.527v-11.68Z" fill="#8a91aa"/>
              <rect id="Rectángulo_44301" data-name="Rectángulo 44301" width="9.299" height="16.202" rx="4.647" transform="translate(66.241 197.885)" fill="#8a91aa"/>
              <path id="Trazado_172482" data-name="Trazado 172482" d="M60.474,148.789H53.16a8.015,8.015,0,0,0-8.012,8.012v4.215h53.4v-5.679A6.552,6.552,0,0,0,92,148.783H60.469Z" fill="#3a4054"/>
              <path id="Trazado_172483" data-name="Trazado 172483" d="M45.147,158.239v2.782h53.4v-4.835H45.168a18.882,18.882,0,0,0-.026,2.058Z" fill="#2e3342"/>
              <path id="Trazado_172484" data-name="Trazado 172484" d="M58.171,168.268l-.912,1.11a.531.531,0,0,1-.75.073L54.749,168a1.254,1.254,0,0,1-.172-1.761h0a1.254,1.254,0,0,1,1.761-.172l1.761,1.448a.531.531,0,0,1,.073.75Z" fill="#373849"/>
              <rect id="Rectángulo_44302" data-name="Rectángulo 44302" width="5.116" height="94.405" transform="translate(93.654 121.573)" fill="#b9835b"/>
              <rect id="Rectángulo_44303" data-name="Rectángulo 44303" width="2.558" height="94.405" transform="translate(93.654 121.573)" fill="#a37253"/>
              <rect id="Rectángulo_44304" data-name="Rectángulo 44304" width="5.116" height="94.405" transform="translate(178.192 121.573)" fill="#b9835b"/>
              <path id="Trazado_172485" data-name="Trazado 172485" d="M74.8,61.37l3.5,5.814s5.5,9.393,5.5,14.733-3,6.783-3,6.783-1.724,16.619,4.334,32.576c0,0-3.334,5.559-11.675,8.893s-6.892-13.451-6.783-13.785,2.11-49.919,2.334-50.7.557-7,.557-7L74.8,61.381Z" fill="#8792f5"/>
              <rect id="Rectángulo_44305" data-name="Rectángulo 44305" width="2.558" height="94.405" transform="translate(178.192 121.573)" fill="#a37253"/>
              <path id="Trazado_172486" data-name="Trazado 172486" d="M83.8,92.477h24.126s10.893-.776,12.227-.667,8.341,4.782,8.341,4.782l2.782,5.616-3.8,1.547-4.428-3.381s-4.116.656-9.226-2.4l-33.415,7.08s-.271-9.466,3.4-12.581Z" fill="#ffd6d2"/>
              <rect id="Rectángulo_44306" data-name="Rectángulo 44306" width="94.946" height="10.43" transform="translate(90.477 112.399)" fill="#b9835b"/>
              <rect id="Rectángulo_44307" data-name="Rectángulo 44307" width="94.946" height="5.215" transform="translate(90.477 112.399)" fill="#9b6e4e"/>
              <rect id="Rectángulo_44308" data-name="Rectángulo 44308" width="105.397" height="7.169" transform="translate(86.252 108.434)" fill="#d69a68"/>
              <path id="Trazado_172487" data-name="Trazado 172487" d="M156.5,96.619l-.8-.089,7.413-60.417.8.089a3.869,3.869,0,0,1,3.412,4.277l-6.549,52.727A3.869,3.869,0,0,1,156.5,96.619Z" fill="#283238"/>
              <path id="Trazado_172488" data-name="Trazado 172488" d="M161.74,73.285h3.782l8.174,32.238-17.369.073a1.805,1.805,0,0,0-1.808,1.808v1.032H178.2l-9.893-38.593H161.75V73.29Z" fill="#283238"/>
              <path id="Trazado_172489" data-name="Trazado 172489" d="M149.362,102.026l-29.044,6.408-.25-1.141a1.22,1.22,0,0,1,.927-1.453l26.658-5.882a1.22,1.22,0,0,1,1.454.927l.25,1.141Z" fill="#283238"/>
              <path id="Trazado_172490" data-name="Trazado 172490" d="M146.34,102.2l3,6.231h-1.5l-3.058-6.231Z" fill="#283238"/>
              <path id="Trazado_172491" data-name="Trazado 172491" d="M162.516,121.719a3.616,3.616,0,0,1-3.61-3.616v-9.674h-8.049l-2.98-6.08a.334.334,0,0,1,.6-.3l2.8,5.7h8.3V118.1a2.946,2.946,0,1,0,5.892,0V107.424h2.167V112.4a1.693,1.693,0,1,0,3.386,0v-4.866a.333.333,0,0,1,.667,0V112.4a2.36,2.36,0,0,1-4.72,0v-4.308h-.834V118.1a3.617,3.617,0,0,1-3.616,3.616Z" fill="#283238"/>
              <path id="Trazado_172492" data-name="Trazado 172492" d="M149.169,205.543c-3.256-.583-6.668-.755-9.409-2.006h0s-3.84.453-4.423,5.121l-5.251,1.25s-.849-1.235-3.72-.912h0c-.193,2.912.6,6.741,1.469,6.918.917.182,26.434-5.074,26.434-5.074a6.165,6.165,0,0,0-5.09-5.3Z" fill="#373849"/>
              <path id="Trazado_172493" data-name="Trazado 172493" d="M69.737,21.813a12.881,12.881,0,0,0-13.55-3.183c-8.111,2.9-8.3,14.634-5.345,22.745S45.022,58.838,45.975,69.81,55.2,84.162,55.2,84.162L71.545,48.794,69.732,21.818Z" fill="#59280c"/>
              <path id="Trazado_172494" data-name="Trazado 172494" d="M60.01,55.124l-4,2.277s-5.668,3.949-6.226,17.843.776,56.921,0,65.262c0,0,15.233,2.443,25.126-10.227,0,0,6.09-52.873-4.069-68.9L60.016,55.124Z" fill="#dce736"/>
              <path id="Trazado_172495" data-name="Trazado 172495" d="M66.517,51l-3.834-.073S56.395,51.565,56,57.4c0,0,16.176,1.334,22.292,9.784A34.579,34.579,0,0,0,76.963,61.1C75.019,55.733,66.517,51,66.517,51Z" fill="#8792f5"/>
              <path id="Trazado_172496" data-name="Trazado 172496" d="M85.256,35.072c.427-.359,3.829-4.23,3.829-4.23S91.154,19.458,76.7,18.672s-18.13,11.805-15.957,20.61a16.147,16.147,0,0,0,7.846,9.924L85.256,35.077Z" fill="#7b3819"/>
              <path id="Trazado_172497" data-name="Trazado 172497" d="M89.086,30.836v6.809l1.058,7.622-2.548.875s-3.235,6.606-5.168,8.294c0,0-2.6-.755-5.632-1.849l-.135,7.986S73.712,54.118,64.8,51l2.256-2.735s4.267-.755,3.886-5.111c0,0-3.741-5.621-.359-7.158,2.917-1.328,4.621.808,4.522,4.407,0,0,3.574-1.688,3.376-7.768,0,0,6.767,2.428,10.6-1.8Z" fill="#ffd6d2"/>
              <path id="Trazado_172498" data-name="Trazado 172498" d="M51.43,87.325S61.568,109.6,63.569,110.6s9.726-.391,9.726-.391a7.24,7.24,0,0,0,2.97,1.1l.578-17.953-.511-6.387S70.451,76,69.513,73.378s-14.17,6.377-14.17,6.377L51.43,87.33Z" fill="#8b912b"/>
              <path id="Trazado_172499" data-name="Trazado 172499" d="M70.242,76.134l5.59,16.343s3.194-2.11,7.976,0c0,0-2.667,2.657-3.4,12.581,0,0-1.021,3.876-6.611,2.318,0,0-7.476,1.855-9.476.651S50.565,85.251,50.565,85.251s-.667-24.3,8.117-23.881,11.56,14.764,11.56,14.764Z" fill="#dce736"/>
              <path id="Trazado_172500" data-name="Trazado 172500" d="M75.577,92.811s-3.949,4.668-2.725,12.785C72.852,105.6,69.294,97.645,75.577,92.811Z" fill="#dce736"/>
              <path id="Trazado_172501" data-name="Trazado 172501" d="M76.8,52.587,71.55,50.581l5.2,4.626Z" fill="#343433"/>
              <path id="Trazado_172502" data-name="Trazado 172502" d="M73.863,39.015a1.4,1.4,0,1,0-2.7.469h-.01l.021.057a.074.074,0,0,0,.01.031l.917,2.36.834-.276-.2-1.3a1.373,1.373,0,0,0,1.12-1.339Z" fill="#fff"/>
              <path id="Trazado_172503" data-name="Trazado 172503" d="M80.662,53.863c.4,3.808.583,8.705-.224,9.523a.186.186,0,0,1-.161.068c-1.026-.12-4.908-12.107-8.039-23.324l-.386.109c1.094,3.912,6.632,23.449,8.388,23.621H80.3a.6.6,0,0,0,.427-.193c1.089-1.11.594-7.314.354-9.654Z" fill="#fff"/>
              <rect id="Rectángulo_44309" data-name="Rectángulo 44309" width="81.771" height="2.501" transform="translate(97.702 125.939)" fill="#b9835b"/>
              <rect id="Rectángulo_44310" data-name="Rectángulo 44310" width="81.771" height="2.501" transform="translate(97.702 132.779)" fill="#b9835b"/>
              <rect id="Rectángulo_44311" data-name="Rectángulo 44311" width="81.771" height="2.501" transform="translate(97.702 139.614)" fill="#b9835b"/>
              <path id="Trazado_172504" data-name="Trazado 172504" d="M70.841,61.37l1.625,3.194,5.835,2.62s-3.194-4.678-7.46-5.814Z" fill="#8792f5"/>
            </g>
            <path id="Trazado_172505" data-name="Trazado 172505" d="M102.834,25.621V13.363a4.568,4.568,0,0,1,4.793-4.272h19.958a4.568,4.568,0,0,1,4.793,4.272V25.616a4.568,4.568,0,0,1-4.793,4.272H96.926l5.9-4.272Z" fill="#fff"/>
            <circle id="Elipse_6115" data-name="Elipse 6115" cx="2.157" cy="2.157" r="2.157" transform="translate(106.383 19.218) rotate(-42.4)" fill="#2f363a"/>
            <circle id="Elipse_6116" data-name="Elipse 6116" cx="2.157" cy="2.157" r="2.157" transform="translate(114.291 19.215) rotate(-42.4)" fill="#2f363a"/>
            <path id="Trazado_172506" data-name="Trazado 172506" d="M127.4,19.453a2.156,2.156,0,1,1-2.058-2.251A2.159,2.159,0,0,1,127.4,19.453Z" fill="#2f363a"/>
          </g>
          <path id="Trazado_172507" data-name="Trazado 172507" d="M90.143,37.619l61.542,52.092,6.59-51.529Z" fill="#929ab3" opacity="0.49"/>
        </g>
      </g>
    </g>
  </g>
</svg>
