<svg xmlns="http://www.w3.org/2000/svg" width="150" height="150" viewBox="0 0 150 150">
  <g id="Grupo_137036" data-name="Grupo 137036" transform="translate(-1106 -1605)">
    <g id="Grupo_116729" data-name="Grupo 116729" transform="translate(1106 1605)">
      <path id="Trazado_170461" data-name="Trazado 170461" d="M75,0A75,75,0,1,1,0,75,75,75,0,0,1,75,0Z" fill="#fff"/>
    </g>
    <g id="Grupo_136914" data-name="Grupo 136914" transform="translate(1491 12135.49)">
      <g id="Grupo_136912" data-name="Grupo 136912" transform="translate(-349 -10450.712)">
        <g id="Capa_1" data-name="Capa 1" transform="translate(0 0)">
          <g id="Grupo_116313" data-name="Grupo 116313">
            <g id="Grupo_116310" data-name="Grupo 116310">
              <rect id="Rectángulo_42824" data-name="Rectángulo 42824" width="6.803" height="23.373" transform="translate(18.628 4.789)" fill="#75b52f"/>
              <path id="Trazado_171020" data-name="Trazado 171020" d="M9.283,85.823H1.93v-30.8H9.283c2.72,0,7.181-.395,9.011,1.341,1.958,1.858,1.19,5.946,1.19,8.861v10.4c0,2.8.64,7.081-1.19,8.922-1.847,1.858-6.185,1.279-9.011,1.279Z" transform="translate(-0.856 -53.946)" fill="#75b52f"/>
              <path id="Trazado_171021" data-name="Trazado 171021" d="M45.78,68.17H57.322a2.308,2.308,0,0,1,1.418.489l10.24,8.032L90.6,70.273a4.192,4.192,0,0,1,5.106,2.509h0a4.184,4.184,0,0,1-1.975,5.229L67.139,91.865A4.218,4.218,0,0,1,63,91.726L52.538,85.363H45.78V68.17Z" transform="translate(-20.316 -59.799)" fill="#fff"/>
              <path id="Trazado_171022" data-name="Trazado 171022" d="M39.436,85.314h-6.8a1.074,1.074,0,0,1-1.074-1.074V60.874A1.074,1.074,0,0,1,32.634,59.8h6.8a1.074,1.074,0,0,1,1.074,1.074V84.246a1.074,1.074,0,0,1-1.074,1.074ZM33.7,83.173h4.661V61.947H33.7Z" transform="translate(-14.006 -56.084)"/>
              <path id="Trazado_171023" data-name="Trazado 171023" d="M15.524,86.065H1.074A1.074,1.074,0,0,1,0,84.992v-30.8A1.074,1.074,0,0,1,1.074,53.12H15.524A4.177,4.177,0,0,1,19.7,57.292v24.6A4.177,4.177,0,0,1,15.524,86.065ZM2.141,83.924H15.524a2.034,2.034,0,0,0,2.03-2.03v-24.6a2.034,2.034,0,0,0-2.03-2.03H2.141V83.924Z" transform="translate(0 -53.12)"/>
              <path id="Trazado_171024" data-name="Trazado 171024" d="M64.33,92.551a5.273,5.273,0,0,1-2.748-.773l-10.2-6.207H44.924A1.074,1.074,0,0,1,43.85,84.5V67.3a1.074,1.074,0,0,1,1.074-1.074H56.465a3.4,3.4,0,0,1,2.08.718l9.8,7.687,21.092-6.263a5.266,5.266,0,0,1,3.933,9.717L66.778,91.944a5.336,5.336,0,0,1-2.442.6ZM45.991,83.429h5.685a1.09,1.09,0,0,1,.556.156l10.457,6.363a3.15,3.15,0,0,0,3.087.1L92.37,76.192a3.122,3.122,0,0,0-1.441-5.89,3.217,3.217,0,0,0-.89.128L68.419,76.854a1.079,1.079,0,0,1-.968-.184l-10.24-8.032a1.247,1.247,0,0,0-.756-.261H45.986V83.429Z" transform="translate(-19.459 -58.938)"/>
              <path id="Trazado_171025" data-name="Trazado 171025" d="M73.609,81.316a3.728,3.728,0,0,1-2.18-.7l-8.95-6.541a1.071,1.071,0,1,1,1.263-1.73l8.944,6.536a1.6,1.6,0,0,0,2.525-1.352,1.588,1.588,0,0,0-.612-1.2l-9.306-7.292a1.07,1.07,0,0,1,1.318-1.685l9.306,7.292A3.734,3.734,0,0,1,73.6,81.316Z" transform="translate(-27.531 -59.334)"/>
            </g>
          </g>
        </g>
      </g>
      <g id="Elipse_6101" data-name="Elipse 6101" transform="translate(-344 -10478.49)" fill="#ff4500" stroke="#000" stroke-width="2">
        <circle cx="9.5" cy="9.5" r="9.5" stroke="none"/>
        <circle cx="9.5" cy="9.5" r="8.5" fill="none"/>
      </g>
      <g id="Elipse_6102" data-name="Elipse 6102" transform="translate(-321 -10493.49)" fill="#dbe636" stroke="#000" stroke-width="3">
        <ellipse cx="25.5" cy="26" rx="25.5" ry="26" stroke="none"/>
        <ellipse cx="25.5" cy="26" rx="24" ry="24.5" fill="none"/>
      </g>
    </g>
  </g>
</svg>
