<svg id="Grupo_137084" data-name="Grupo 137084" xmlns="http://www.w3.org/2000/svg" width="400" height="394" viewBox="0 0 400 394">
  <rect id="Rectángulo_43930" data-name="Rectángulo 43930" width="400" height="394" fill="#f6f7ff"/>
  <g id="IL3.1" transform="translate(10.466 24.042)">
    <g id="Capa_2" data-name="Capa 2" transform="translate(0)">
      <g id="Layer_4" data-name="Layer 4">
        <g id="Grupo_136831" data-name="Grupo 136831">
          <g id="Grupo_136815" data-name="Grupo 136815" transform="translate(126.534)">
            <rect id="Rectángulo_44128" data-name="Rectángulo 44128" width="167.898" height="199.327" rx="24" fill="#cfe7fb"/>
            <path id="Trazado_171989" data-name="Trazado 171989" d="M451.063,40.085H420.608a5.65,5.65,0,0,1-5.648-5.648h0a5.65,5.65,0,0,1,5.648-5.648h30.455a5.65,5.65,0,0,1,5.648,5.648h0A5.65,5.65,0,0,1,451.063,40.085Z" transform="translate(-307.39 -12.675)" fill="#3d46c2"/>
            <rect id="Rectángulo_44129" data-name="Rectángulo 44129" width="75.1" height="7.366" rx="3.683" transform="translate(56.444 50.723)" fill="#3d46c2"/>
            <path id="Trazado_171990" data-name="Trazado 171990" d="M272.015,83.95l-7.17,8.961a.668.668,0,0,1-.991.056l-4.019-4.019a2.233,2.233,0,0,0-3.151,0l-.056.056a2.233,2.233,0,0,0,0,3.151l6.04,6.04a2.23,2.23,0,0,0,3.28-.14l9.515-11.279a2.23,2.23,0,0,0-.129-3.011h0a2.222,2.222,0,0,0-3.314.185Z" transform="translate(-237.396 -36.591)" fill="#75b52f"/>
            <rect id="Rectángulo_44130" data-name="Rectángulo 44130" width="75.1" height="7.366" rx="3.683" transform="translate(56.444 79.471)" fill="#3d46c2"/>
            <path id="Trazado_171991" data-name="Trazado 171991" d="M272.015,135.31l-7.17,8.961a.668.668,0,0,1-.991.056l-4.019-4.019a2.233,2.233,0,0,0-3.151,0l-.056.056a2.233,2.233,0,0,0,0,3.151l6.04,6.04a2.23,2.23,0,0,0,3.28-.14l9.515-11.279a2.23,2.23,0,0,0-.129-3.011h0a2.222,2.222,0,0,0-3.314.185Z" transform="translate(-237.396 -59.203)" fill="#75b52f"/>
            <rect id="Rectángulo_44131" data-name="Rectángulo 44131" width="75.1" height="7.366" rx="3.683" transform="translate(56.444 108.214)" fill="#3d46c2"/>
            <path id="Trazado_171992" data-name="Trazado 171992" d="M272.015,186.66l-7.17,8.961a.668.668,0,0,1-.991.056l-4.019-4.019a2.233,2.233,0,0,0-3.151,0l-.056.056a2.233,2.233,0,0,0,0,3.151l6.04,6.04a2.23,2.23,0,0,0,3.28-.14l9.515-11.279a2.23,2.23,0,0,0-.129-3.011h0a2.222,2.222,0,0,0-3.314.185Z" transform="translate(-237.396 -81.811)" fill="#75b52f"/>
            <rect id="Rectángulo_44132" data-name="Rectángulo 44132" width="75.1" height="7.366" rx="3.683" transform="translate(56.444 136.956)" fill="#3d46c2"/>
            <rect id="Rectángulo_44133" data-name="Rectángulo 44133" width="75.1" height="7.366" rx="3.683" transform="translate(56.444 165.704)" fill="#3d46c2"/>
            <path id="Trazado_171993" data-name="Trazado 171993" d="M272.015,289.37l-7.17,8.961a.668.668,0,0,1-.991.056l-4.019-4.019a2.233,2.233,0,0,0-3.151,0l-.056.056a2.233,2.233,0,0,0,0,3.151l6.04,6.04a2.23,2.23,0,0,0,3.28-.14l9.515-11.279a2.23,2.23,0,0,0-.129-3.011h0a2.222,2.222,0,0,0-3.314.185Z" transform="translate(-237.396 -127.03)" fill="#75b52f"/>
            <path id="Trazado_171994" data-name="Trazado 171994" d="M312.961,40.085H261.628a5.65,5.65,0,0,1-5.648-5.648h0a5.65,5.65,0,0,1,5.648-5.648h51.333a5.65,5.65,0,0,1,5.648,5.648h0A5.65,5.65,0,0,1,312.961,40.085Z" transform="translate(-237.397 -12.675)" fill="#fcfcfc"/>
            <path id="Trazado_171995" data-name="Trazado 171995" d="M309.064,213.465a1.113,1.113,0,0,1-1.114-1.114V77.584a1.114,1.114,0,1,1,2.228,0V212.351A1.113,1.113,0,0,1,309.064,213.465Z" transform="translate(-260.277 -33.667)" fill="#e8f1f9"/>
            <path id="Trazado_171996" data-name="Trazado 171996" d="M255.97,122.214a1.113,1.113,0,0,1,1.114-1.114H391.851a1.114,1.114,0,0,1,0,2.228H257.084A1.113,1.113,0,0,1,255.97,122.214Z" transform="translate(-237.392 -53.316)" fill="#e8f1f9"/>
            <path id="Trazado_171997" data-name="Trazado 171997" d="M255.97,173.194a1.113,1.113,0,0,1,1.114-1.114H391.851a1.114,1.114,0,0,1,0,2.228H257.084A1.113,1.113,0,0,1,255.97,173.194Z" transform="translate(-237.392 -75.761)" fill="#e8f1f9"/>
            <path id="Trazado_171998" data-name="Trazado 171998" d="M255.97,224.174a1.113,1.113,0,0,1,1.114-1.114H391.851a1.114,1.114,0,0,1,0,2.228H257.084A1.113,1.113,0,0,1,255.97,224.174Z" transform="translate(-237.392 -98.205)" fill="#e8f1f9"/>
            <path id="Trazado_171999" data-name="Trazado 171999" d="M255.97,275.144a1.113,1.113,0,0,1,1.114-1.114H391.851a1.114,1.114,0,1,1,0,2.228H257.084A1.113,1.113,0,0,1,255.97,275.144Z" transform="translate(-237.392 -120.646)" fill="#e8f1f9"/>
            <path id="Trazado_172001" data-name="Trazado 172001" d="M271.044,237.868h0a2.233,2.233,0,0,0-3.151,0l-3.6,3.6a.659.659,0,0,1-.924,0l-3.6-3.6a2.233,2.233,0,0,0-3.151,0h0a2.233,2.233,0,0,0,0,3.151l3.6,3.6a.659.659,0,0,1,0,.924l-3.6,3.6a2.233,2.233,0,0,0,0,3.151h0a2.233,2.233,0,0,0,3.151,0l3.6-3.6a.659.659,0,0,1,.924,0l3.6,3.6a2.233,2.233,0,0,0,3.151,0h0a2.233,2.233,0,0,0,0-3.151l-3.6-3.6a.659.659,0,0,1,0-.924l3.6-3.6A2.233,2.233,0,0,0,271.044,237.868Z" transform="translate(-237.387 -104.438)" fill="#fff"/>
          </g>
          <g id="Grupo_136826" data-name="Grupo 136826" transform="translate(0 10.185)">
            <g id="Grupo_136818" data-name="Grupo 136818" transform="translate(12.041 131.088)">
              <g id="Grupo_136816" data-name="Grupo 136816" transform="translate(4.759 181.577)">
                <path id="Trazado_172002" data-name="Trazado 172002" d="M57.553,714.377v.01a5.708,5.708,0,0,1-5.588,4.554H40.42A8.085,8.085,0,0,1,32.566,708.9l5.328-21.489H55.7L57.651,712.8a5.439,5.439,0,0,1-.1,1.575Z" transform="translate(-32.323 -673.833)" fill="#5a3c2a"/>
                <path id="Trazado_172003" data-name="Trazado 172003" d="M58.675,737.4a5.708,5.708,0,0,1-5.588,4.553H41.542a8.083,8.083,0,0,1-6.882-3.826l5.671,1.04a1.13,1.13,0,0,0,.816-.166l3.623-2.4a7.6,7.6,0,0,1,9.949,1.367,1.1,1.1,0,0,0,.837.379,1.09,1.09,0,0,0,.338-.052l2.776-.9Z" transform="translate(-33.445 -696.845)" fill="#492c1e"/>
                <path id="Trazado_172004" data-name="Trazado 172004" d="M59.253,674.872s0,7.651-.135,13.281a41,41,0,0,1-1.487,10.011,7.847,7.847,0,0,0-2.324-2.339,10.52,10.52,0,0,0-3.743-1.57c-4.99-.354-7.121,1.034-8.228,2.271-1.014,1.144-1.185,2.147-1.887,1.637-1.487-1.076-1.83-4.751-1.695-8.878a113.587,113.587,0,0,1,1.695-14.414l.837-5.156-.4-6.555,17.361-1.871-.587,8.941.587,4.642Z" transform="translate(-35.879 -661.29)" fill="#ffd6d2"/>
                <path id="Trazado_172005" data-name="Trazado 172005" d="M41.189,721.191a4.651,4.651,0,0,0,2.157,1.19c-1.014,1.144-1.185,2.147-1.887,1.637-1.487-1.076-1.83-4.751-1.695-8.878C40.176,717.994,40.68,720.51,41.189,721.191Z" transform="translate(-35.884 -687.149)" fill="#f49d98"/>
                <path id="Trazado_172006" data-name="Trazado 172006" d="M73.645,687.42s0,7.651-.135,13.281a41,41,0,0,1-1.487,10.011,7.847,7.847,0,0,0-2.324-2.339c2.994-3.841,3.945-20.948,3.945-20.948Z" transform="translate(-50.271 -673.838)" fill="#f49d98"/>
              </g>
              <g id="Grupo_136817" data-name="Grupo 136817" transform="translate(48.639 181.572)">
                <path id="Trazado_172007" data-name="Trazado 172007" d="M166.588,703.166h-20L128.85,685.274l.068-.5,1.107-8.047,1.024-1.975-.728-13.468,18.77,2.178-1.232,14.877Z" transform="translate(-122.555 -661.28)" fill="#ffd6d2"/>
                <path id="Trazado_172008" data-name="Trazado 172008" d="M165.752,718.483a2.99,2.99,0,0,1-2.906,2.173H140.255a12.918,12.918,0,0,1-9.242-3.9l-7.979-8.2-3.711,12.1H116.75v-.036l1.175-19.529a11.4,11.4,0,0,1,2.168-6.03,11.1,11.1,0,0,1,1.513-1.695l2.6-2.386s-.8,5.8,13.177,17.58,16.805.135,16.805.135a29.089,29.089,0,0,1,10.718,6.737,2.966,2.966,0,0,1,.842,3.046Z" transform="translate(-116.745 -675.542)" fill="#5a3c2a"/>
                <path id="Trazado_172009" data-name="Trazado 172009" d="M165.747,722.252a2.99,2.99,0,0,1-2.906,2.173H140.251a12.918,12.918,0,0,1-9.242-3.9l-7.979-8.2-3.711,12.1H116.8l-.062-.036,1.175-19.529a11.4,11.4,0,0,1,2.168-6.03c3.015,9.289,14.061,17.616,19.654,21.348a12.339,12.339,0,0,0,6.846,2.074h19.16Z" transform="translate(-116.74 -679.311)" fill="#492c1e"/>
              </g>
              <path id="Trazado_172010" data-name="Trazado 172010" d="M105.982,311.97l11.009,44.646,8.92,65.573-2.968,75.7s-14.383,2.22-18.853-1.138l-4.548-71.514-25.1-66.5,8.639-35.877,22.908-10.89Z" transform="translate(-47.788 -311.97)" fill="#dce736"/>
              <path id="Trazado_172011" data-name="Trazado 172011" d="M67.986,351.61,66.327,354.3l-2.916,4.751-3.394,27.019-1.871,14.846-3.5,27.851,1.185,16.582L51.31,495.73a.857.857,0,0,1-.125.057c-5.921,2.906-17.237-.057-17.237-.057l-6.009-51.4V428.088l-.826-11.514-.026-.338c-.016-.2-.031-.437-.047-.712L27,414.932l-3.623-50.473a77.637,77.637,0,0,1,3.332-28.677l7.241-23.152,26.8,2.339,2.667.239.12.972.546,4.32.894,7.1,3.015,24.015Z" transform="translate(-23.172 -312.287)" fill="#dce736"/>
              <path id="Trazado_172012" data-name="Trazado 172012" d="M99.264,397.86,110.788,454.8a9.2,9.2,0,0,0,2.978,5.115h0a5.864,5.864,0,0,1,.743,8.078l-.385.483a9.163,9.163,0,0,0-2,5.843l.681,51.939-3.8-59.782L94.16,427.146,97.5,399.981l1.767-2.121Z" transform="translate(-57.258 -353.214)" opacity="0.3"/>
              <path id="Trazado_172014" data-name="Trazado 172014" d="M66.858,317.615l-.322,1.715-1.57,8.265a60.9,60.9,0,0,0-7.574-.042c-9.887.5-26.318,3.425-29.462,17.1-4.034,17.5-1.57,60.495-.941,70.282l-3.623-50.473A77.638,77.638,0,0,1,26.7,335.782l7.241-23.152,26.8,2.339,2.786,1.206,3.332,1.435Z" transform="translate(-23.167 -312.287)" opacity="0.3"/>
            </g>
            <path id="Trazado_172015" data-name="Trazado 172015" d="M99.738,68.929s8.993,2.443,6.165,18.011,3.779,29.145-5.151,35.05-59.164-5.146-52.115-20.251,8.587-9.689,11.275-24.826,22.19-19.274,31.7-16.166,8.13,8.176,8.13,8.176Z" transform="translate(-23.032 -59.782)" fill="#5a3c2a"/>
            <g id="Grupo_136819" data-name="Grupo 136819" transform="translate(64.179 56.819)">
              <path id="Trazado_172016" data-name="Trazado 172016" d="M154.57,204.369l-5.115,19.472-2.313,1.809L126.88,200.673l-2.677-3.3-.733-18.453,6.633-9.829,3.062,1.414c6.128,2.817,10.994,7.241,13.421,13.536l7.984,20.335Z" transform="translate(-123.47 -169.09)" fill="#12263f"/>
              <path id="Trazado_172017" data-name="Trazado 172017" d="M152.6,240.513l-2.313,1.809L130.03,217.346l.624-13.536s6.856,6.394,10.282,13.915C143.306,222.908,149.18,234.068,152.6,240.513Z" transform="translate(-126.62 -185.762)" fill="#9aa226"/>
            </g>
            <g id="Grupo_136820" data-name="Grupo 136820" transform="translate(16.799 50.122)">
              <path id="Trazado_172018" data-name="Trazado 172018" d="M87.435,198.2l-4.013,8.722.218,23.906a9.831,9.831,0,0,0,1.19,4.611l.925,1.731a7.981,7.981,0,0,1-2.672,10.474c-6.134,4-13.213,4.975-20.1,4.372-9.445-.806-18.526-4.559-24.322-7.464a8.332,8.332,0,0,1-4.2-10.048l2.776-8.494a12.728,12.728,0,0,0,.489-5.895L34.113,196.68,32.32,185.063l7.158-24.186a42.955,42.955,0,0,1,12.252-3.815c1.627-.27,3.212-.457,4.694-.593a62.8,62.8,0,0,1,10.3-.1,44.638,44.638,0,0,1,9.866,2.251c.759.265,1.492.525,2.183.79a60.354,60.354,0,0,1,7.548,3.493l-3.145,17.174,3.457,5.525a13.294,13.294,0,0,1,.8,12.605Z" transform="translate(-32.32 -156.207)" fill="#12263f"/>
              <path id="Trazado_172019" data-name="Trazado 172019" d="M92.319,280.438a.413.413,0,0,1-.2-.057.372.372,0,0,1-.114-.52,9.707,9.707,0,0,0,1.523-5.385c-.021-1.648-.364-5.089-.8-9.445-1.071-10.713-2.542-25.382-1.019-30.757,2.079-7.381,1.663-19.337,1.658-19.456a.377.377,0,0,1,.364-.39.368.368,0,0,1,.39.364c0,.12.426,12.195-1.684,19.69-1.487,5.24.036,20.428,1.045,30.481.437,4.372.785,7.828.806,9.512a10.418,10.418,0,0,1-1.637,5.8.374.374,0,0,1-.317.177Z" transform="translate(-60.523 -184.164)" fill="#12263f"/>
              <path id="Trazado_172020" data-name="Trazado 172020" d="M64.579,284.491c-9.445-.806-18.526-4.559-24.322-7.464a8.332,8.332,0,0,1-4.2-10.048l2.776-8.494a12.727,12.727,0,0,0,.489-5.895l-3.613-23.433,7.459-5.328A186.054,186.054,0,0,0,45.1,249.311c1.934,11.929-11.124,29.67,11.851,33.376A37.393,37.393,0,0,1,64.579,284.491Z" transform="translate(-33.916 -188.679)" fill="#12263f"/>
              <path id="Trazado_172021" data-name="Trazado 172021" d="M130.063,229a.327.327,0,0,1-.156-.036.376.376,0,0,1-.182-.5l4.553-9.876a10.852,10.852,0,0,0-.79-10.562l-3.976-6.05a.376.376,0,0,1,.629-.411l3.976,6.05a11.594,11.594,0,0,1,.842,11.29l-4.553,9.876a.377.377,0,0,1-.343.218Z" transform="translate(-78.962 -177.904)" fill="#12263f"/>
            </g>
            <g id="Grupo_136822" data-name="Grupo 136822" transform="translate(0 54.796)">
              <path id="Trazado_172022" data-name="Trazado 172022" d="M139.206,232.615a.805.805,0,0,1-.525-.2l-11.628-10.3a.788.788,0,1,1,1.045-1.18l11.628,10.3a.788.788,0,0,1-.525,1.377Z" transform="translate(-60.883 -191.868)" fill="#e8f1f9"/>
              <path id="Trazado_172023" data-name="Trazado 172023" d="M101.712,256.351,72,270.749l5.557-17.574L78.7,252.9l18.687-4.569Z" transform="translate(-34.575 -205.119)" fill="#ffd6d2"/>
              <g id="Grupo_136821" data-name="Grupo 136821" transform="translate(47.322 33.987)">
                <path id="Trazado_172024" data-name="Trazado 172024" d="M114.34,241.212l3.306-1.326,6.082-7.355a3.707,3.707,0,0,1,2.552-1.336l7.126-.608a.866.866,0,0,1,.92.681l.213,1a.866.866,0,0,1-.546.993l-.52.192,1.138.083a.966.966,0,0,1,.806.561l.255.556a.96.96,0,0,1-.369,1.216l-.764.478.463.073a1.364,1.364,0,0,1,1.128,1.112h0a1.366,1.366,0,0,1-.624,1.4l-1.107.691.723-.057a.632.632,0,0,1,.645.421l.234.676a.632.632,0,0,1-.25.733l-5.817,3.795s-6.518,2.937-9.622,3.02l-2.625,1.591-3.348-8.587Z" transform="translate(-102.229 -230.584)" fill="#ffd6d2"/>
                <path id="Trazado_172025" data-name="Trazado 172025" d="M138.329,244.763a.293.293,0,0,1-.265-.213,38.821,38.821,0,0,0-3.1-7.355.288.288,0,0,1,.109-.39.283.283,0,0,1,.39.109,39.143,39.143,0,0,1,3.15,7.485.285.285,0,0,1-.2.353.272.272,0,0,1-.088.01Z" transform="translate(-112.116 -233.553)" fill="#f49d98"/>
                <path id="Trazado_172026" data-name="Trazado 172026" d="M142.044,236.653a.14.14,0,0,1-.135-.13.138.138,0,0,1,.13-.156l3.306-.338a.144.144,0,1,1,.026.286l-3.306.338h-.021Z" transform="translate(-115.467 -233.198)" fill="#f49d98"/>
                <path id="Trazado_172027" data-name="Trazado 172027" d="M144.365,242.293a.141.141,0,0,1-.135-.135.148.148,0,0,1,.135-.151l3.067-.2a.144.144,0,0,1,.151.135.148.148,0,0,1-.135.151l-3.067.2Z" transform="translate(-116.582 -235.974)" fill="#f49d98"/>
                <path id="Trazado_172028" data-name="Trazado 172028" d="M146.334,248.438a.144.144,0,0,1-.01-.286l2.578-.343a.144.144,0,0,1,.036.286l-2.578.343Z" transform="translate(-117.527 -238.855)" fill="#f49d98"/>
                <path id="Trazado_172029" data-name="Trazado 172029" d="M118.725,255.546c-.379.172-6.066,3.134-9.081,3.218l-18.6,8.993.8-10.084,12.652-5.531c.624-.2,3.748,2.755,4.1,3.306,1.086,1.695,3.072,2.3,10.131.094Z" transform="translate(-91.04 -240.931)" fill="#f49d98"/>
              </g>
              <path id="Trazado_172030" data-name="Trazado 172030" d="M23.964,165.2,17.5,168.246a19.679,19.679,0,0,0-10.63,12.746C3.686,192.963-1.137,214.7.245,232.1a13.343,13.343,0,0,0,17.029,11.768c9.44-2.75,21.452-6.492,28.589-9.658L42.989,213.25,21.516,219.93l7.444-24.254-5-30.476Z" transform="translate(-0.002 -165.2)" fill="#12263f"/>
              <path id="Trazado_172031" data-name="Trazado 172031" d="M73.7,253.95v29.613a1.5,1.5,0,0,0,2.433,1.185l8.738-6.861a1.5,1.5,0,0,0,.572-1.107c.151-2.932.567-14.69-1.715-25.054a1.5,1.5,0,0,0-1.856-1.112l-7.059,1.882a1.507,1.507,0,0,0-1.118,1.455Z" transform="translate(-35.387 -206.19)" fill="#3d46c2"/>
              <path id="Trazado_172032" data-name="Trazado 172032" d="M41.033,252.3a.369.369,0,0,1-.265-.109.378.378,0,0,1-.094-.379l6.056-19.721a.375.375,0,0,1,.717.218L41.6,251.347l16.119-5.011a.378.378,0,1,1,.224.723l-16.8,5.224a.4.4,0,0,1-.109.016Z" transform="translate(-19.525 -197.194)" fill="#9aa226"/>
              <path id="Trazado_172033" data-name="Trazado 172033" d="M43.762,308.732a.376.376,0,0,1-.12-.733l15.371-5.006a.375.375,0,1,1,.234.712l-15.371,5.006A.443.443,0,0,1,43.762,308.732Z" transform="translate(-20.835 -231.36)" fill="#9aa226"/>
            </g>
            <g id="Grupo_136823" data-name="Grupo 136823" transform="translate(33.812 15.347)">
              <path id="Trazado_172034" data-name="Trazado 172034" d="M82.935,127.39,78.2,142.781h0a10.437,10.437,0,0,0,8.977,10.313h0a10.428,10.428,0,0,0,10.781-5.666l.541-1.076,1.393-9.918L82.935,127.4Z" transform="translate(-71.365 -107.595)" fill="#ffd6d2"/>
              <path id="Trazado_172035" data-name="Trazado 172035" d="M97.69,147.691l10.167,7.007,1.393-9.918Z" transform="translate(-80.724 -115.945)" fill="#f49d98"/>
              <path id="Trazado_172036" data-name="Trazado 172036" d="M109.826,89.605a1.765,1.765,0,0,1,2.7,1.809h0a200.559,200.559,0,0,1-6.882,22.544A13.14,13.14,0,0,1,86.082,120.2a14.59,14.59,0,0,1-6.69-12.8s-4.288-.12-3.379-6.8,6.383-4.543,7.054-2.641l-.2,2.786.863,2.313a.651.651,0,0,0,1.242-.078l1.1-4.751a3.85,3.85,0,0,1,4.1-2.968c7.729.7,14.528-2.433,18.744-5.063.327-.2.639-.4.93-.6Z" transform="translate(-70.254 -89.307)" fill="#ffd6d2"/>
              <path id="Trazado_172037" data-name="Trazado 172037" d="M86.823,192.134l-2.615-8.047-7.558-15.48,4.413-1.388,15.963,1.45-5.744,13.3-3.025,6.076Z" transform="translate(-70.621 -126.721)" fill="#ffd6d2"/>
              <path id="Trazado_172038" data-name="Trazado 172038" d="M82.322,113.059h-.016a.374.374,0,0,1-.291-.4,2.688,2.688,0,0,0-.379-1.731.581.581,0,0,0-.52-.146.374.374,0,1,1-.083-.743,1.346,1.346,0,0,1,1.128.353,1.7,1.7,0,0,1,.317.447c.156-.977.146-2-.447-2.313-1.248-.65-2.235.66-2.277.717a.375.375,0,0,1-.6-.447,2.611,2.611,0,0,1,3.228-.93c1.778.93.515,4.553.364,4.964a.373.373,0,0,1-.416.239Z" transform="translate(-71.786 -98.092)" fill="#f49d98"/>
              <path id="Trazado_172039" data-name="Trazado 172039" d="M81.253,187.116c-1.861-6.685-11-12.085-15-14.222a2.235,2.235,0,0,1-1.014-2.864,26.409,26.409,0,0,0,1.954-12.668c1.627-.27,3.212-.457,4.694-.593C77.468,167.982,81.1,186.29,81.253,187.116Z" transform="translate(-65.051 -121.703)" fill="#3d46c2"/>
              <path id="Trazado_172040" data-name="Trazado 172040" d="M109.953,171.584c-7.948,4.174-13.733,17.481-13.733,17.481,2.375-12.543,8.28-23.542,11.061-28.225.759.265,1.492.525,2.183.79l1.6,7.511A2.227,2.227,0,0,1,109.953,171.584Z" transform="translate(-80.018 -123.657)" fill="#3d46c2"/>
            </g>
            <g id="Grupo_136825" data-name="Grupo 136825" transform="translate(46.133 85.018)">
              <path id="Trazado_172041" data-name="Trazado 172041" d="M123.657,276.448H90.332a1.578,1.578,0,0,1-1.507-2.043l13.167-43a1.577,1.577,0,0,1,1.507-1.118h33.325a1.578,1.578,0,0,1,1.507,2.043l-13.167,43a1.577,1.577,0,0,1-1.507,1.118Z" transform="translate(-88.754 -226.677)" fill="#95b5e8"/>
              <g id="Grupo_136824" data-name="Grupo 136824" transform="translate(1.185 17.246)">
                <path id="Trazado_172042" data-name="Trazado 172042" d="M112.51,263.967l-1.471,5.822-.452,1.767-8.067,1.949a45.111,45.111,0,0,1-10.235-1.767,1.282,1.282,0,0,1-.7-.613l-.5-1.034a.59.59,0,0,1,.01-.52L91.39,269a.6.6,0,0,1,.759-.26l1.045.483,3.758.125-4.538-3.389-.6-1.471a.533.533,0,0,1,.047-.483l.307-.473a.523.523,0,0,1,.764-.125l.681.561,4.746,1.57-3.545-2.557L93.168,260.3a.521.521,0,0,1,.016-.567l.379-.567a.528.528,0,0,1,.775-.109l1.736,1.455,1.429.239-1.258-1.845-.307-.925a.585.585,0,0,1,.094-.535l.546-.712a.581.581,0,0,1,.8-.109l.941.665,5.11,2.386,2.719,1.388-.9-1.565-.483-.832a1.189,1.189,0,0,1-.156-.681l.026-.333a1.191,1.191,0,0,1,1.882-.878l3.6,2.615,1.258,2.453,1.154,2.131Z" transform="translate(-91.033 -256.517)" fill="#ffd6d2"/>
                <path id="Trazado_172043" data-name="Trazado 172043" d="M110.326,276.7a.322.322,0,0,1-.322-.291c-.374-3.514,3.129-9.3,3.28-9.544a.325.325,0,1,1,.556.338c-.036.057-3.54,5.843-3.192,9.138a.326.326,0,0,1-.291.359h-.036Z" transform="translate(-100.13 -261.412)" fill="#f49d98"/>
                <path id="Trazado_172044" data-name="Trazado 172044" d="M119.254,263.785l1.773.775-2.677-2.339Z" transform="translate(-104.151 -259.256)" fill="#f49d98"/>
                <path id="Trazado_172045" data-name="Trazado 172045" d="M102.145,264.414l2.375,1.565-3.306-1.076-.5-.723Z" transform="translate(-95.68 -260.197)" fill="#f49d98"/>
                <path id="Trazado_172046" data-name="Trazado 172046" d="M100.746,272.42H99.337L96,270.85Z" transform="translate(-93.418 -263.4)" fill="#f49d98"/>
                <path id="Trazado_172047" data-name="Trazado 172047" d="M95.19,280.94l4.777,1.019-1.019-.889Z" transform="translate(-93.029 -268.245)" fill="#f49d98"/>
              </g>
              <path id="Trazado_172048" data-name="Trazado 172048" d="M152.516,273.7l-2.765,13.063-1.429-.561L128.5,278.444a9.3,9.3,0,0,1-.166-1.83,8.164,8.164,0,0,1,2.084-5.754l22.1,2.849Z" transform="translate(-107.758 -246.159)" fill="#ffd6d2"/>
              <path id="Trazado_172049" data-name="Trazado 172049" d="M141.22,284l-.187,7.511-19.825-7.761L113.14,285.7a52.062,52.062,0,0,0,7.906-3.784l.613.062L141.225,284Z" transform="translate(-100.464 -251.47)" fill="#f49d98"/>
              <path id="Trazado_172050" data-name="Trazado 172050" d="M166.66,247.107l3.108-10.147s9.46,20.465,10.474,26.448l.047.463c.6,5.666-4.325,9.336-10.017,10.282H155.12l5.551-18.541h3.384l2.6-8.5Z" transform="translate(-120.623 -229.88)" fill="#12263f"/>
              <path id="Trazado_172051" data-name="Trazado 172051" d="M160.443,272.2l-5.188,25.132a1.112,1.112,0,0,1-1.892.546l-5.577-5.822a1.115,1.115,0,0,1-.255-1.107l6.238-19.321a1.117,1.117,0,0,1,1.06-.769l4.522.01a1.111,1.111,0,0,1,1.086,1.336Z" transform="translate(-116.953 -246.159)" fill="#3d46c2"/>
              <path id="Trazado_172052" data-name="Trazado 172052" d="M172.31,271.029h5.713l-5.115-1.949Z" transform="translate(-128.877 -245.304)" fill="#9aa226"/>
              <path id="Trazado_172053" data-name="Trazado 172053" d="M145.048,225.133h0a1.3,1.3,0,0,0-1.2-1.793h-5.292a1.3,1.3,0,0,0-1.2.806l-.405.988h-5.073a1.576,1.576,0,0,0-1.461.982l-1.476,3.6A1.579,1.579,0,0,0,130.4,231.9h17.169a1.576,1.576,0,0,0,1.461-.982l1.476-3.6a1.579,1.579,0,0,0-1.461-2.178h-3.992Z" transform="translate(-107.993 -223.34)" fill="#b7cfe2"/>
            </g>
          </g>
          <g id="Grupo_136830" data-name="Grupo 136830" transform="translate(170.393 239.072)">
            <g id="Grupo_136827" data-name="Grupo 136827" transform="translate(17.171 16.399)">
              <path id="Trazado_172054" data-name="Trazado 172054" d="M383.394,557.108s-18.76-28.761,23.781-27.934a1.573,1.573,0,0,1,1.476,2.022C406.208,539.326,396.1,569.406,383.394,557.108Z" transform="translate(-349.692 -529.156)" fill="#75b52f"/>
              <path id="Trazado_172055" data-name="Trazado 172055" d="M345.847,571.531s10.874-22.237-22.123-17.834a1.574,1.574,0,0,0-1.211,2.225c2.807,5.978,12.2,23.375,23.334,15.61Z" transform="translate(-322.364 -540.664)" fill="#75b52f"/>
              <path id="Trazado_172056" data-name="Trazado 172056" d="M377.633,596.188a.467.467,0,0,0,.12-.01.784.784,0,0,0,.655-.9c-.047-.307-4.491-31.058,18.495-51.419a.788.788,0,0,0-1.045-1.18c-12.361,10.947-16.873,24.727-18.479,34.359a63.566,63.566,0,0,0-.53,18.479.786.786,0,0,0,.774.665Z" transform="translate(-348.324 -535.556)" fill="#6e99d6"/>
              <path id="Trazado_172057" data-name="Trazado 172057" d="M362.933,604.7a.783.783,0,0,0,.785-.78c0-.281-.057-28.033-24.862-43.585a.788.788,0,1,0-.837,1.336c24.067,15.1,24.129,41.974,24.129,42.239a.792.792,0,0,0,.78.8h.005Z" transform="translate(-329.705 -544.073)" fill="#6e99d6"/>
              <path id="Trazado_172058" data-name="Trazado 172058" d="M332.395,627.047l.967,5.463,6.2,35.191a2.626,2.626,0,0,0,2.583,2.168h24.815a2.621,2.621,0,0,0,2.578-2.168l6.2-35.191.967-5.463a2.361,2.361,0,0,0,.031-.6,2.614,2.614,0,0,0-2.609-2.474H334.973a2.61,2.61,0,0,0-2.609,2.474A2.376,2.376,0,0,0,332.395,627.047Z" transform="translate(-327.163 -574.686)" fill="#b7cfe2"/>
              <path id="Trazado_172059" data-name="Trazado 172059" d="M332.4,629.333l.967,5.463h42.379l.967-5.463a2.364,2.364,0,0,0,.031-.6h-44.37a2.376,2.376,0,0,0,.031.6Z" transform="translate(-327.167 -576.972)" fill="#95b5e8"/>
              <rect id="Rectángulo_44134" data-name="Rectángulo 44134" width="49.891" height="8.54" rx="4.27" transform="translate(52.331 54.451) rotate(180)" fill="#d7e8f7"/>
            </g>
            <g id="Grupo_136828" data-name="Grupo 136828" transform="translate(78.729)">
              <path id="Trazado_172060" data-name="Trazado 172060" d="M503.394,530.949s-23.9-29.254,22.726-33.335a1.728,1.728,0,0,1,1.85,2.038C526.255,508.831,518.733,542.909,503.394,530.949Z" transform="translate(-467.912 -497.607)" fill="#75b52f"/>
              <path id="Trazado_172061" data-name="Trazado 172061" d="M460.194,553.206s12.257-18.864-18-18.521a1.43,1.43,0,0,0-1.336,1.876c1.876,5.7,8.436,22.429,19.331,16.649Z" transform="translate(-440.79 -515.41)" fill="#75b52f"/>
              <path id="Trazado_172062" data-name="Trazado 172062" d="M504.729,575.2a.388.388,0,0,0,.13-.026.865.865,0,0,0,.613-1.06c-.088-.333-8.556-33.439,14.191-58.4a.865.865,0,0,0-1.279-1.164c-12.236,13.421-15.547,29.021-16.176,39.744A69.668,69.668,0,0,0,503.8,574.56a.869.869,0,0,0,.925.639Z" transform="translate(-470.22 -505.607)" fill="#6e99d6"/>
              <path id="Trazado_172063" data-name="Trazado 172063" d="M472.1,584.468a.716.716,0,0,0,.8-.619c.031-.249,3.03-25.294-17.632-42.057a.713.713,0,0,0-.9,1.107c20.054,16.265,17.148,40.519,17.117,40.763a.714.714,0,0,0,.619.8h.005Z" transform="translate(-447.182 -518.747)" fill="#6e99d6"/>
              <path id="Trazado_172064" data-name="Trazado 172064" d="M449.755,627.047l.967,5.463,6.2,35.191a2.626,2.626,0,0,0,2.583,2.168h24.815a2.621,2.621,0,0,0,2.578-2.168l6.2-35.191.967-5.463a2.361,2.361,0,0,0,.031-.6,2.614,2.614,0,0,0-2.609-2.474H452.333a2.611,2.611,0,0,0-2.609,2.474A2.375,2.375,0,0,0,449.755,627.047Z" transform="translate(-445.077 -558.286)" fill="#b7cfe2"/>
              <path id="Trazado_172065" data-name="Trazado 172065" d="M449.76,629.333l.967,5.463h42.379l.967-5.463a2.364,2.364,0,0,0,.031-.6h-44.37a2.373,2.373,0,0,0,.031.6Z" transform="translate(-445.082 -560.572)" fill="#95b5e8"/>
              <rect id="Rectángulo_44135" data-name="Rectángulo 44135" width="49.891" height="8.54" rx="4.27" transform="translate(51.782 70.85) rotate(180)" fill="#d7e8f7"/>
            </g>
            <g id="Grupo_136829" data-name="Grupo 136829" transform="translate(139.183 16.399)">
              <path id="Trazado_172066" data-name="Trazado 172066" d="M582.416,557.108s18.76-28.761-23.781-27.934a1.573,1.573,0,0,0-1.476,2.022C559.6,539.326,569.707,569.406,582.416,557.108Z" transform="translate(-557.092 -529.156)" fill="#75b52f"/>
              <path id="Trazado_172067" data-name="Trazado 172067" d="M623.885,571.531S613.01,549.294,646.007,553.7a1.574,1.574,0,0,1,1.211,2.225c-2.807,5.978-12.2,23.375-23.334,15.61Z" transform="translate(-588.342 -540.664)" fill="#75b52f"/>
              <path id="Trazado_172068" data-name="Trazado 172068" d="M596.214,596.188a.466.466,0,0,1-.12-.01.784.784,0,0,1-.655-.9c.047-.307,4.491-31.058-18.495-51.419a.788.788,0,0,1,1.045-1.18c12.361,10.947,16.873,24.727,18.479,34.359a63.567,63.567,0,0,1,.53,18.479.786.786,0,0,1-.774.665Z" transform="translate(-566.498 -535.556)" fill="#6e99d6"/>
              <path id="Trazado_172069" data-name="Trazado 172069" d="M605.995,604.7a.783.783,0,0,1-.785-.78c0-.281.057-28.033,24.862-43.585a.788.788,0,0,1,.837,1.336c-24.067,15.1-24.129,41.974-24.129,42.239a.792.792,0,0,1-.78.8h-.005Z" transform="translate(-580.198 -544.073)" fill="#6e99d6"/>
              <path id="Trazado_172070" data-name="Trazado 172070" d="M619.613,627.047l-.967,5.463-6.2,35.191a2.626,2.626,0,0,1-2.583,2.168H585.051a2.621,2.621,0,0,1-2.578-2.168l-6.2-35.191-.967-5.463a2.362,2.362,0,0,1-.031-.6,2.614,2.614,0,0,1,2.609-2.474h39.151a2.61,2.61,0,0,1,2.609,2.474,2.373,2.373,0,0,1-.031.6Z" transform="translate(-565.82 -574.686)" fill="#b7cfe2"/>
              <path id="Trazado_172071" data-name="Trazado 172071" d="M619.608,629.333l-.967,5.463H576.262l-.967-5.463a2.361,2.361,0,0,1-.031-.6h44.37a2.373,2.373,0,0,1-.031.6Z" transform="translate(-565.815 -576.972)" fill="#95b5e8"/>
              <rect id="Rectángulo_44136" data-name="Rectángulo 44136" width="49.891" height="8.54" rx="4.27" transform="translate(6.694 45.916)" fill="#d7e8f7"/>
            </g>
            <path id="Trazado_172072" data-name="Trazado 172072" d="M496.471,705.19h-7.1l-9.3-36.818H309.992L296.456,705.19H289.33v-.53l15.033-40.914a3.431,3.431,0,0,1,3.228-2.256H482.753a3.442,3.442,0,0,1,3.337,2.6l10.38,41.1Z" transform="translate(-289.33 -576.303)" fill="#f85316"/>
            <rect id="Rectángulo_44137" data-name="Rectángulo 44137" width="191.235" height="4.398" transform="translate(8.306 111.556)" fill="#f85316"/>
          </g>
        </g>
      </g>
    </g>
  </g>
</svg>
