<svg xmlns="http://www.w3.org/2000/svg" width="436.518" height="394" viewBox="0 0 436.518 394">
  <g id="Grupo_137097" data-name="Grupo 137097" transform="translate(-932.232 -1691.188)">
    <rect id="Rectángulo_43927" data-name="Rectángulo 43927" width="400" height="394" transform="translate(968.75 1691.188)" fill="#f6f7ff"/>
    <g id="Grupo_137085" data-name="Grupo 137085" transform="translate(932.232 1697.579)">
      <g id="Layer_4" data-name="Layer 4">
        <g id="Grupo_136848" data-name="Grupo 136848">
          <g id="Grupo_136835" data-name="Grupo 136835" transform="translate(107.672)">
            <g id="Grupo_136832" data-name="Grupo 136832" transform="translate(167.672 129.415)">
              <rect id="Rectángulo_44138" data-name="Rectángulo 44138" width="78.547" height="78.547" rx="13.33" transform="translate(78.547 78.547) rotate(180)" fill="#b7cfe2"/>
              <path id="Trazado_172073" data-name="Trazado 172073" d="M557.947,323.257v-20a20,20,0,1,1-20,20h20Z" transform="translate(-518.671 -277.239)" fill="#3d46c2"/>
              <rect id="Rectángulo_44139" data-name="Rectángulo 44139" width="26.785" height="5.791" rx="2.895" transform="translate(69.373 18.323) rotate(180)" fill="#fff"/>
              <path id="Trazado_172074" data-name="Trazado 172074" d="M551.387,317.307h-20a20,20,0,0,1,20-20v20Z" transform="translate(-515.52 -274.382)" fill="#dce736"/>
            </g>
            <g id="Grupo_136833" data-name="Grupo 136833" transform="translate(83.605 255.02)">
              <rect id="Rectángulo_44140" data-name="Rectángulo 44140" width="123.344" height="60.016" rx="14.61" transform="translate(123.344 60.016) rotate(180)" fill="#b7cfe2"/>
              <path id="Trazado_172075" data-name="Trazado 172075" d="M401.645,515.21h0a2.485,2.485,0,0,1,2.485,2.485V551.56a2.485,2.485,0,0,1-2.485,2.485h0a2.485,2.485,0,0,1-2.485-2.485V517.695A2.485,2.485,0,0,1,401.645,515.21Z" transform="translate(-367.956 -504.622)" fill="#75b52f"/>
              <path id="Trazado_172076" data-name="Trazado 172076" d="M428.565,552.57h0a2.485,2.485,0,0,1,2.485,2.485v14.451a2.485,2.485,0,0,1-2.485,2.485h0a2.485,2.485,0,0,1-2.485-2.485V555.055A2.485,2.485,0,0,1,428.565,552.57Z" transform="translate(-380.883 -522.562)" fill="#f85316"/>
              <path id="Trazado_172077" data-name="Trazado 172077" d="M455.475,528.85h0a2.485,2.485,0,0,1,2.485,2.485v26.78a2.485,2.485,0,0,1-2.485,2.485h0a2.485,2.485,0,0,1-2.485-2.485v-26.78A2.485,2.485,0,0,1,455.475,528.85Z" transform="translate(-393.805 -511.172)" fill="#3d46c2"/>
              <path id="Trazado_172078" data-name="Trazado 172078" d="M482.395,574.89h0a2.485,2.485,0,0,1,2.485,2.485v2.849a2.485,2.485,0,0,1-2.485,2.485h0a2.485,2.485,0,0,1-2.485-2.485v-2.849A2.485,2.485,0,0,1,482.395,574.89Z" transform="translate(-406.732 -533.28)" fill="#75b52f"/>
              <path id="Trazado_172079" data-name="Trazado 172079" d="M509.3,541.95h0a2.485,2.485,0,0,1,2.485,2.485v19.971a2.485,2.485,0,0,1-2.485,2.485h0a2.485,2.485,0,0,1-2.485-2.485V544.435A2.485,2.485,0,0,1,509.3,541.95Z" transform="translate(-419.654 -517.462)" fill="#f85316"/>
            </g>
            <g id="Grupo_136834" data-name="Grupo 136834" transform="translate(76.346)">
              <rect id="Rectángulo_44141" data-name="Rectángulo 44141" width="172.776" height="89.775" rx="13.33" transform="translate(172.776 89.775) rotate(180)" fill="#b7cfe2"/>
              <path id="Trazado_172080" data-name="Trazado 172080" d="M478.716,134.83c.233,0,.466,0,.7-.014,4.458-.187,7.44-2.046,10.322-3.846,2.941-1.836,5.682-3.585,10.162-3.43,4.677.151,9.358,2.3,13.921,6.394a1.886,1.886,0,1,0,2.517-2.809c-5.243-4.7-10.733-7.175-16.323-7.358s-9.148,2.042-12.281,4c-2.69,1.681-5.015,3.133-8.481,3.279-5.536.228-8.815-3.225-12.6-7.221s-8.093-8.555-15.278-9.267c-7.755-.776-13.373,3.407-18.324,7.1-4.535,3.375-8.445,6.289-13.09,4.869-3.617-1.11-5.828-4.17-8.171-7.408-2.845-3.937-5.791-8.011-11.409-8.44-3.654-.279-7.4,1.114-11.121,4.138a1.886,1.886,0,1,0,2.38,2.928c2.941-2.393,5.787-3.508,8.454-3.3,3.868.3,6.079,3.352,8.637,6.887,2.48,3.435,5.293,7.321,10.121,8.806,6.472,1.987,11.546-1.795,16.451-5.449,4.618-3.439,9.39-6.988,15.7-6.367,5.782.575,9.244,4.234,12.907,8.107,3.914,4.138,7.961,8.413,14.8,8.413Z" transform="translate(-359.67 -60.109)" fill="#dce736"/>
              <ellipse id="Elipse_6094" data-name="Elipse 6094" cx="15.689" cy="15.689" rx="15.689" ry="15.689" transform="translate(124.039 16.904)" fill="#fff"/>
              <path id="Trazado_172081" data-name="Trazado 172081" d="M492.542,45.6H519a4.3,4.3,0,0,0,4.3-4.3h0A4.3,4.3,0,0,0,519,37H492.542a4.3,4.3,0,0,0-4.3,4.3h0a4.3,4.3,0,0,0,4.3,4.3Z" transform="translate(-413.82 -20.101)" fill="#75b52f"/>
              <rect id="Rectángulo_44142" data-name="Rectángulo 44142" width="70.117" height="8.605" rx="4.302" transform="translate(109.483 39.982) rotate(180)" fill="#f85316"/>
              <ellipse id="Elipse_6095" data-name="Elipse 6095" cx="3.722" cy="3.722" rx="3.722" ry="3.722" transform="translate(151.694 68.692)" fill="#fff"/>
              <ellipse id="Elipse_6096" data-name="Elipse 6096" cx="3.722" cy="3.722" rx="3.722" ry="3.722" transform="translate(27.066 52.437)" fill="#fff"/>
            </g>
            <path id="Trazado_172082" data-name="Trazado 172082" d="M261.36,437.533H248.183c-7.1,0-12.855-3.847-12.855-8.592V316.165H191.145c-7.1,0-12.855-3.847-12.855-8.592V302.78" transform="translate(-178.29 -147.593)" fill="none" stroke="#b7cfe2" stroke-linecap="round" stroke-linejoin="round" stroke-width="3"/>
            <path id="Trazado_172083" data-name="Trazado 172083" d="M399.577,198.8H296.9c-5.151,0-9.33-3.567-9.33-7.967V79.317c0-4.4,4.179-7.967,9.33-7.967h9.564" transform="translate(-230.766 -26.462)" fill="none" stroke="#b7cfe2" stroke-linecap="round" stroke-linejoin="round" stroke-width="3"/>
          </g>
          <g id="Grupo_136847" data-name="Grupo 136847" transform="translate(0 27.314)">
            <path id="Trazado_172084" data-name="Trazado 172084" d="M69.208,81.922s1.487-22.357-11.415-24.68S31.481,61.577,27.635,71.531s-4.1,13.65-4.1,13.65S18.424,89,17.847,92.3s1.585,6.524,3.384,9-5.338,7.553-4.6,12.813,4.288,9.3,4.637,12.912,2.157,14.258,15.485,13.234c0,0,4.7,8.977,12.091,9.029s16.743-3.181,18.552-10.24c0,0,11.857-5.941,13.437-15.864,1.019-6.4-1.637-13.167-3.649-17.159a7.4,7.4,0,0,1,.068-6.737,12.1,12.1,0,0,0,1.492-7.163c-.8-5.3-6.373-9.58-9.533-10.2Z" transform="translate(-7.963 -56.778)" fill="#492c1e"/>
            <g id="Grupo_136838" data-name="Grupo 136838" transform="translate(55.379 22.487)">
              <g id="Grupo_136836" data-name="Grupo 136836" transform="translate(0 25.554)">
                <path id="Trazado_172085" data-name="Trazado 172085" d="M114.531,154.85l17.439,26.515L151.38,149.2l7.371,4.21-12.725,40.253a12.788,12.788,0,0,1-13.255,8.566h0a12.8,12.8,0,0,1-8.842-4.772l-16.836-21.14s-3.555-16.925,7.433-21.463Z" transform="translate(-106.544 -149.2)" fill="#ffd6d2"/>
                <path id="Trazado_172086" data-name="Trazado 172086" d="M154.058,208.943l-1.518,5.4V206.63Z" transform="translate(-128.631 -176.778)" fill="#f49d98"/>
                <path id="Trazado_172087" data-name="Trazado 172087" d="M111.212,177.24a111.351,111.351,0,0,1,13.562,34.1L107.61,189.783Z" transform="translate(-107.056 -162.665)" fill="#f49d98"/>
              </g>
              <g id="Grupo_136837" data-name="Grupo 136837" transform="translate(44.836)">
                <path id="Trazado_172088" data-name="Trazado 172088" d="M192.8,125.593l7,4.772,1.019-1.544,1.05-.457a5.762,5.762,0,0,0,2.526-2.121l5.089-7.7a3.663,3.663,0,0,0,.541-1.3,3.989,3.989,0,0,0-1.076-3.581c-.676-.686-1.523-1.487-2.547-2.365-.083-.073-.172-.151-.26-.224-.91-.769-1.954-1.591-3.14-2.443a.075.075,0,0,1-.016-.01h0s-.01-.01-.01-.016a.221.221,0,0,0-.036-.026.016.016,0,0,1-.01-.005l-.062-.047h0l2.064-7.308a.876.876,0,0,0-.073-.723.9.9,0,0,0-.3-.312.813.813,0,0,0-1.2.359l-10.557,25.044Z" transform="translate(-192.8 -100.039)" fill="#ffd6d2"/>
                <path id="Trazado_172089" data-name="Trazado 172089" d="M201.494,145.083a.244.244,0,0,0,.1-.094c2.4-3.7,7.958-5.286,8.015-5.3a.3.3,0,0,0,.2-.379.312.312,0,0,0-.379-.218c-.234.068-5.827,1.669-8.343,5.546a.317.317,0,0,0,.088.431.305.305,0,0,0,.317.021Z" transform="translate(-196.754 -118.785)" fill="#f49d98"/>
                <path id="Trazado_172090" data-name="Trazado 172090" d="M213.521,127.824a1.019,1.019,0,0,0,.213-.156l2.719-2.62a.156.156,0,0,0-.213-.229l-2.719,2.62a.79.79,0,0,1-.972.083.852.852,0,0,1-.312-1.076l1.949-4a.163.163,0,0,0-.052-.2.145.145,0,0,0-.2.016l-3.067,3.223a.753.753,0,0,1-.2.156.9.9,0,0,1-.967-.062.966.966,0,0,1-.333-1.159l1.85-4.3a.164.164,0,0,0-.062-.2.147.147,0,0,0-.2.036l-3.16,4.21a.838.838,0,0,1-1.112.192.914.914,0,0,1-.359-1.118l2.994-6.95a.163.163,0,0,0-.078-.208.147.147,0,0,0-.2.073l-2.994,6.95a1.23,1.23,0,0,0,.483,1.513,1.13,1.13,0,0,0,1.507-.255l2.386-3.181-1.336,3.1a1.285,1.285,0,0,0,.442,1.544,1.187,1.187,0,0,0,1.289.083,1.089,1.089,0,0,0,.27-.213l2.376-2.5-1.5,3.088a1.177,1.177,0,0,0,.431,1.487,1.088,1.088,0,0,0,1.128.042Z" transform="translate(-199.117 -107.738)" fill="#f49d98"/>
                <line id="Línea_714" data-name="Línea 714" transform="translate(10.069 8.489)" fill="#ffd6d2"/>
                <path id="Trazado_172091" data-name="Trazado 172091" d="M193.21,128.6a4.457,4.457,0,0,1,.624-2.76l.561-.915a4.114,4.114,0,0,1,2.121-1.731l2.287-.832,2.926,1.081a1.062,1.062,0,0,1,.2,1.9l-.775.437-3.873.229,1.617,4.6a3.11,3.11,0,0,1-3.6,4.169l-1.528-.364-.572-5.806Z" transform="translate(-192.987 -110.757)" fill="#ffd6d2"/>
                <path id="Trazado_172092" data-name="Trazado 172092" d="M202.361,134.381a.225.225,0,0,0,.052-.052,3.4,3.4,0,0,0,.286-2.937l-1.549-4.4,3.68-.218a.163.163,0,0,0,.062-.021l.775-.437a1.153,1.153,0,0,0,.572-1.144,1.233,1.233,0,0,0-.806-1.04.145.145,0,0,0-.192.094.157.157,0,0,0,.1.2.926.926,0,0,1,.6.769.854.854,0,0,1-.421.847l-.743.421-3.841.229a.135.135,0,0,0-.114.068.155.155,0,0,0-.016.135l1.617,4.6a3.092,3.092,0,0,1-.26,2.667.159.159,0,0,0,.052.213.153.153,0,0,0,.156.005Z" transform="translate(-196.638 -111.603)" fill="#f49d98"/>
              </g>
            </g>
            <g id="Grupo_136841" data-name="Grupo 136841" transform="translate(5.639 137.328)">
              <g id="Grupo_136839" data-name="Grupo 136839" transform="translate(5.736 185.138)">
                <path id="Trazado_172093" data-name="Trazado 172093" d="M42.4,720.315h0a4.646,4.646,0,0,1-4.543,3.711H28.47a6.57,6.57,0,0,1-6.383-8.161l4.33-17.465H40.889l1.591,20.636a4.384,4.384,0,0,1-.083,1.284Z" transform="translate(-21.89 -687.349)" fill="#f4b65b"/>
                <path id="Trazado_172094" data-name="Trazado 172094" d="M43.309,739.023a4.642,4.642,0,0,1-4.543,3.7H29.383a6.569,6.569,0,0,1-5.593-3.108l4.611.847a.9.9,0,0,0,.66-.135l2.947-1.949a6.172,6.172,0,0,1,8.088,1.112.9.9,0,0,0,.681.307.975.975,0,0,0,.27-.042l2.256-.728Z" transform="translate(-22.802 -706.052)" fill="#cc862b"/>
                <path id="Trazado_172095" data-name="Trazado 172095" d="M43.3,684.5l.468,3.7s0,6.222-.114,10.8a33.1,33.1,0,0,1-1.206,8.135,6.209,6.209,0,0,0-1.892-1.9,8.483,8.483,0,0,0-3.046-1.279c-4.054-.291-5.78.837-6.685,1.845-.826.93-.962,1.747-1.533,1.336-1.211-.873-1.487-3.862-1.383-7.22a92.152,92.152,0,0,1,1.383-11.716l.374-2.339.3-1.851-.317-5.323,14.113-1.523-.478,7.267.01.073Z" transform="translate(-24.772 -677.154)" fill="#ffd6d2"/>
                <path id="Trazado_172096" data-name="Trazado 172096" d="M29.089,725.847a3.778,3.778,0,0,0,1.752.967c-.826.925-.962,1.747-1.533,1.331-1.206-.873-1.487-3.862-1.377-7.215.333,2.318.743,4.366,1.159,4.917Z" transform="translate(-24.78 -698.168)" fill="#f49d98"/>
                <path id="Trazado_172097" data-name="Trazado 172097" d="M55.482,698.39s0,6.222-.109,10.8a33.337,33.337,0,0,1-1.206,8.135,6.392,6.392,0,0,0-1.887-1.9c2.433-3.124,3.207-17.029,3.207-17.029Z" transform="translate(-36.483 -687.344)" fill="#f49d98"/>
                <path id="Trazado_172098" data-name="Trazado 172098" d="M45.417,677.145l-.478,7.267.01.073a66.563,66.563,0,0,0-13.624,1.351l.3-1.851-.317-5.323,14.113-1.523Z" transform="translate(-26.413 -677.14)" fill="#f49d98"/>
              </g>
              <g id="Grupo_136840" data-name="Grupo 136840" transform="translate(65.857 185.138)">
                <path id="Trazado_172099" data-name="Trazado 172099" d="M177.631,711.2H161.376l-.79-.8-13.624-13.749.047-.411.9-6.534.837-1.611-.452-2.178-1.783-8.764,13.9,1.669.91,5.432,1.092,6.757,9.871,13.089Z" transform="translate(-141.853 -677.145)" fill="#ffd6d2"/>
                <path id="Trazado_172100" data-name="Trazado 172100" d="M177.372,723.642a2.426,2.426,0,0,1-2.36,1.767H156.648a10.479,10.479,0,0,1-7.511-3.171l-6.482-6.664L139.64,725.4h-2.09v-.031l.956-15.875a9.259,9.259,0,0,1,1.762-4.9,8.819,8.819,0,0,1,1.232-1.377l2.116-1.939s-.65,4.709,10.713,14.289,13.66.109,13.66.109a23.731,23.731,0,0,1,8.712,5.474,2.418,2.418,0,0,1,.686,2.479Z" transform="translate(-137.55 -688.732)" fill="#f4b65b"/>
                <path id="Trazado_172101" data-name="Trazado 172101" d="M177.372,726.706a2.426,2.426,0,0,1-2.36,1.767H156.648a10.479,10.479,0,0,1-7.511-3.171l-6.482-6.664-3.015,9.829H137.6l-.047-.031.956-15.875a9.259,9.259,0,0,1,1.762-4.9c2.448,7.548,11.43,14.321,15.974,17.351A10,10,0,0,0,161.8,726.7h15.573Z" transform="translate(-137.55 -691.796)" fill="#cc862b"/>
                <path id="Trazado_172102" data-name="Trazado 172102" d="M160.41,678.814l.91,5.427c-6.8-.27-10.141.686-13.031,1.663l-1.778-8.764,13.9,1.669Z" transform="translate(-141.853 -677.14)" fill="#f49d98"/>
              </g>
              <path id="Trazado_172103" data-name="Trazado 172103" d="M86.153,320.98l6.96,33.564c.187.764.348,1.539.473,2.313l12.922,55.348,17.1,95.326a2.353,2.353,0,0,1-1.767,2.708c-3.862.93-12.792,2.324-25.6-.281a2.369,2.369,0,0,1-1.866-1.876l-17.387-92.15L55.23,368.786,61.613,324.1l24.535-3.119Z" transform="translate(-32.163 -320.975)" fill="#cc5326"/>
              <path id="Trazado_172104" data-name="Trazado 172104" d="M55.23,402.371,71.536,390.92l5.453,58.6Z" transform="translate(-32.163 -354.56)" fill="#492c1e"/>
              <path id="Trazado_172105" data-name="Trazado 172105" d="M21.981,321.745l-5.941,13.047a43.067,43.067,0,0,0-2.355,6.446A74.345,74.345,0,0,0,11.32,369.67l6.43,54.662-3.425,83.35a2.816,2.816,0,0,0,2.24,2.88,64.161,64.161,0,0,0,25.205-.021,2.836,2.836,0,0,0,2.256-2.771V427.1l6.206-69.778-.894-36.355-27.357.769Z" transform="translate(-10.854 -320.97)" fill="#cc5326"/>
              <path id="Trazado_172106" data-name="Trazado 172106" d="M75.722,447.22h-.047a.474.474,0,0,1-.426-.509l5.427-57.589a.461.461,0,0,1,.291-.39l3.54-1.445a.472.472,0,0,1,.359.873L81.59,389.5l-5.4,57.3a.469.469,0,0,1-.468.426Z" transform="translate(-41.775 -352.798)" fill="#2b160e"/>
              <path id="Trazado_172107" data-name="Trazado 172107" d="M26.9,346.246a9.939,9.939,0,0,1-1.84-.182.471.471,0,1,1,.177-.925,6.95,6.95,0,0,0,5.661-1.133c3.888-2.875,4.652-9.564,4.663-9.632a.472.472,0,0,1,.52-.416.466.466,0,0,1,.416.52c-.031.291-.821,7.173-5.037,10.287A7.468,7.468,0,0,1,26.9,346.246Z" transform="translate(-17.491 -327.206)" fill="#2b160e"/>
              <path id="Trazado_172108" data-name="Trazado 172108" d="M114.2,347.641a.394.394,0,0,1-.078-.005c-4.023-.681-5.271-9.855-5.323-10.245a.472.472,0,0,1,.936-.12c.322,2.469,1.773,8.972,4.548,9.445a.468.468,0,0,1-.078.93Z" transform="translate(-57.884 -328.601)" fill="#2b160e"/>
            </g>
            <g id="Grupo_136842" data-name="Grupo 136842" transform="translate(10.748 46.255)">
              <path id="Trazado_172109" data-name="Trazado 172109" d="M44.837,146.66S26,153.449,21.519,160.632s10.573,64.606,10.573,64.606l-5.4,12.8s25.377,10.978,43.908,4.278L68.6,230.239a31.855,31.855,0,0,1,.109-9.377l4.148-25.845,2.116-3.888a15.092,15.092,0,0,0,.01-14.393l-3.8-7.017,2.116-16.1s-10.022-6.045-28.459-6.95Z" transform="translate(-20.684 -146.66)" fill="#3d46c2"/>
              <path id="Trazado_172110" data-name="Trazado 172110" d="M63.327,240.183a.466.466,0,0,1-.416-.255.471.471,0,0,1,.2-.634c9.46-4.933,23.687-2,24.29-1.871a.47.47,0,0,1-.192.92c-.146-.031-14.5-2.994-23.661,1.783a.465.465,0,0,1-.218.052Z" transform="translate(-40.936 -189.772)" fill="#3d46c2"/>
              <path id="Trazado_172111" data-name="Trazado 172111" d="M119.073,216.351a.475.475,0,0,1-.26-.078.465.465,0,0,1-.13-.65,28.751,28.751,0,0,0,3.826-9.725c.894-5.2-5.437-14.96-5.5-15.059a.469.469,0,1,1,.785-.515c.27.411,6.6,10.167,5.64,15.734a29.257,29.257,0,0,1-3.971,10.084A.466.466,0,0,1,119.073,216.351Z" transform="translate(-66.903 -167.526)" fill="#3d46c2"/>
              <path id="Trazado_172112" data-name="Trazado 172112" d="M22.63,204.81s13.468,2.568,10.9,15.714-.5,32.638-.5,32.638Q26.983,230.6,22.63,204.81Z" transform="translate(-21.619 -174.584)" fill="#3d46c2"/>
            </g>
            <g id="Grupo_136843" data-name="Grupo 136843" transform="translate(25.376 9.597)">
              <path id="Trazado_172113" data-name="Trazado 172113" d="M63.226,120.74,60.98,135.871h0c.645,4.891,7.922,8.525,12.5,8.525h0c5.666,0,5.666-7.859,5.666-7.859v-9.528Z" transform="translate(-54.662 -97.089)" fill="#ffd6d2"/>
              <path id="Trazado_172114" data-name="Trazado 172114" d="M77.2,137.078l9.736,5.25V132.8Z" transform="translate(-62.451 -102.88)" fill="#f49d98"/>
              <path id="Trazado_172115" data-name="Trazado 172115" d="M78.186,75.245a191.607,191.607,0,0,1,1.8,22.362,12.655,12.655,0,0,1-4.871,10.048,12.228,12.228,0,0,1-10.261,2.318,13.8,13.8,0,0,1-8.265-5.151,15.419,15.419,0,0,1-2.126-3.836s-3.841,1.393-5.375-4.834,4.06-6.258,5.318-4.819l.244.769a1.169,1.169,0,0,0,1.913.5h0a2.646,2.646,0,0,0,.535-2.1l-.717-5.073c.016.047.234.437,2.724,1.164,2.589.749,6.721-6.316,6.96-6.716-.01.172.057,1.211,2.978,1.944,3.2.8,9.154-6.586,9.154-6.586Z" transform="translate(-48.825 -75.24)" fill="#ffd6d2"/>
              <path id="Trazado_172116" data-name="Trazado 172116" d="M55.965,114.066H55.95a.363.363,0,0,1-.39-.265c-.078-.3-.405-1.216-.884-1.44a.54.54,0,0,0-.509.031.358.358,0,1,1-.312-.645,1.287,1.287,0,0,1,1.128-.036,1.444,1.444,0,0,1,.426.3c-.166-.925-.5-1.845-1.128-1.939-1.325-.192-1.8,1.294-1.825,1.357a.357.357,0,1,1-.681-.213,2.489,2.489,0,0,1,2.609-1.85c1.887.275,1.892,3.93,1.882,4.346a.361.361,0,0,1-.3.348Z" transform="translate(-50.234 -91.616)" fill="#f49d98"/>
            </g>
            <g id="Grupo_136846" data-name="Grupo 136846" transform="translate(0 55.449)">
              <path id="Trazado_172117" data-name="Trazado 172117" d="M110.17,255.942l5.614-3.394,5.64-.878a.963.963,0,0,1,1.081,1.185h0a.975.975,0,0,1-.53.639l-2.724,1.263-5.52,5.6-3.561-4.418Z" transform="translate(-52.907 -205.807)" fill="#ffd6d2"/>
              <path id="Trazado_172118" data-name="Trazado 172118" d="M.32,211.345H.336l.291-.083,14.866-3.9.65-.5-.359.125,8.4-22.845c9.128-14.6-4.652-20.688-4.652-20.688h-.047c-.14.005-.27.016-.405.031-.291.021-.577.068-.852.114a9.111,9.111,0,0,0-1.689.468c-.135.047-.26.1-.4.156-.255.109-.509.229-.759.359-.208.1-.4.218-.6.338a1.771,1.771,0,0,0-.25.151c-.291.187-.572.379-.847.6a7.124,7.124,0,0,0-.7.567c-.057.052-.114.1-.172.151a16.712,16.712,0,0,0-2.375,2.667c-.151.2-.3.4-.431.6a26.473,26.473,0,0,0-1.767,3.041c-.213.437-.416.868-.593,1.279a.016.016,0,0,0-.01.005,29.54,29.54,0,0,0-1.507,4.216l-2.646,15.1Z" transform="translate(-0.157 -163.45)" fill="#ffd6d2"/>
              <path id="Trazado_172119" data-name="Trazado 172119" d="M.35,211.345l.291-.083c1.4-5.541,4.2-16.5,7.438-28.672,4.455-16.706,10.885-18.962,11.425-19.134a.04.04,0,0,1,.016-.005,3.835,3.835,0,0,0-.421.036c-.291.021-.577.068-.852.114a9.11,9.11,0,0,0-1.689.468c-.135.047-.26.1-.4.156-.255.109-.509.229-.759.359-.208.1-.4.218-.6.338a1.768,1.768,0,0,0-.25.151c-.291.187-.572.379-.847.6a7.128,7.128,0,0,0-.7.567c-.057.052-.114.1-.172.151a16.713,16.713,0,0,0-2.375,2.667c-.151.2-.3.4-.431.6A26.473,26.473,0,0,0,8.256,172.7c-.218.437-.421.863-.593,1.279a.016.016,0,0,0-.01.005A29.231,29.231,0,0,0,6.141,178.2l-2.635,15.1Z" transform="translate(-0.171 -163.45)" fill="#f49d98"/>
              <g id="Grupo_136844" data-name="Grupo 136844" transform="translate(72.98 38.824)">
                <rect id="Rectángulo_44143" data-name="Rectángulo 44143" width="34.858" height="44.994" rx="4.6" transform="translate(44.994 0) rotate(90)" fill="#dce736"/>
                <rect id="Rectángulo_44144" data-name="Rectángulo 44144" width="4.611" height="4.611" rx="2.305" transform="translate(6.092 5.973) rotate(180)" fill="#fff"/>
              </g>
              <path id="Trazado_172120" data-name="Trazado 172120" d="M.169,250.471l-.151,3.15a10.4,10.4,0,0,0,10.947,10.89l45.212-3.956,1.1-7.844-42.962-3.644,1.741-4.138S4.676,246.188.175,250.471Z" transform="translate(-0.006 -202.577)" fill="#ffd6d2"/>
              <path id="Trazado_172121" data-name="Trazado 172121" d="M23.246,251.363l-4.626-.031,5.318-1.622Z" transform="translate(-8.945 -204.872)" fill="#f49d98"/>
              <g id="Grupo_136845" data-name="Grupo 136845" transform="translate(54.482 48.707)">
                <path id="Trazado_172122" data-name="Trazado 172122" d="M104.825,266.191l1.679.234,1.076.894a4.361,4.361,0,0,0,2.194.972l10.651,1.461,4.689.894.723-1.648-3.223-1.372,4.044-.135.5-2.516-5.042-.92,5.26-.645.25-2.609-5.307-.707,4.954-.65,1.918-.982c.691-.338.634-.707.634-.707-.057-.665-.478-.645-.769-.556l-2.09.431-21.255,1.029-.894,7.527Z" transform="translate(-104.82 -257.154)" fill="#ffd6d2"/>
                <path id="Trazado_172123" data-name="Trazado 172123" d="M134.716,269.665a.271.271,0,0,1-.047-.244,24.421,24.421,0,0,0,.364-7.787.277.277,0,1,1,.551-.062,24.646,24.646,0,0,1-.379,8,.279.279,0,0,1-.343.192A.263.263,0,0,1,134.716,269.665Z" transform="translate(-119.148 -259.157)" fill="#f49d98"/>
                <path id="Trazado_172124" data-name="Trazado 172124" d="M147.74,263.066l.369.047,2.734-1.2a.74.74,0,0,1,.3-.062.815.815,0,0,1,.379.1.745.745,0,0,1,.125,1.185l-2.625,2.4-1.029.135-.249-2.609Z" transform="translate(-125.43 -259.409)" fill="#ffd6d2"/>
                <path id="Trazado_172125" data-name="Trazado 172125" d="M146.32,271.818l.265.12,2.88-.3a.642.642,0,0,1,.712.515.674.674,0,0,1-.374.738l-3.462,1.554-.541-.12.525-2.511Z" transform="translate(-124.499 -264.107)" fill="#ffd6d2"/>
                <path id="Trazado_172126" data-name="Trazado 172126" d="M142.923,279.3l.416.255,1.918-.109a.712.712,0,0,1,.52.192.735.735,0,0,1,.177.239.715.715,0,0,1-.525.982l-2.3.426-.8-.286.593-1.7Z" transform="translate(-122.832 -267.788)" fill="#ffd6d2"/>
              </g>
            </g>
          </g>
        </g>
      </g>
    </g>
  </g>
</svg>
