<svg id="Grupo_137083" data-name="Grupo 137083" xmlns="http://www.w3.org/2000/svg" width="400" height="394" viewBox="0 0 400 394">
  <rect id="Rectángulo_43914" data-name="Rectángulo 43914" width="400" height="394" fill="#f6f7ff"/>
  <g id="IL3.3" transform="translate(6.068 4.192)">
    <g id="Capa_2" data-name="Capa 2">
      <g id="Layer_4" data-name="Layer 4">
        <g id="Grupo_136867" data-name="Grupo 136867">
          <g id="Grupo_136854" data-name="Grupo 136854">
            <g id="Grupo_136849" data-name="Grupo 136849" transform="translate(47.473 56.336)">
              <line id="Línea_715" data-name="Línea 715" x2="152" transform="translate(52.905 115.614)" fill="none" stroke="#b7cfe2" stroke-linecap="round" stroke-linejoin="round" stroke-width="3"/>
              <path id="Trazado_172128" data-name="Trazado 172128" d="M147.406,108.38H99.122a7.791,7.791,0,0,0-7.792,7.792v69.42" transform="translate(-91.33 -108.38)" fill="none" stroke="#b7cfe2" stroke-linecap="round" stroke-linejoin="round" stroke-width="3"/>
              <line id="Línea_716" data-name="Línea 716" x1="105.068" transform="translate(181.104)" fill="none" stroke="#b7cfe2" stroke-linecap="round" stroke-linejoin="round" stroke-width="3"/>
            </g>
            <g id="Grupo_136850" data-name="Grupo 136850" transform="translate(0 138.855)">
              <rect id="Rectángulo_44145" data-name="Rectángulo 44145" width="94.947" height="66.124" rx="12" fill="#b7cfe2"/>
              <path id="Trazado_172129" data-name="Trazado 172129" d="M14.171,320.377a1.2,1.2,0,0,1-.416-.078,1.168,1.168,0,0,1-.676-1.507c5.879-15.5,11.514-23.043,17.216-23.043h.187c3.685.1,6,3.233,8.239,6.258,2.22,3,4.314,5.832,7.568,6.009,3.415.177,5.91-2.812,8.79-6.29,3.129-3.774,6.674-8.052,12.4-9.455,6.5-1.591,14,1.014,22.294,7.74a1.168,1.168,0,0,1-1.471,1.814c-7.7-6.243-14.518-8.7-20.272-7.282-4.98,1.222-8.124,5.011-11.16,8.675-3.145,3.795-6.1,7.376-10.713,7.132-4.351-.234-6.991-3.8-9.32-6.955-1.991-2.693-3.878-5.24-6.425-5.312-3.15-.12-8.338,3.571-15.147,21.53a1.169,1.169,0,0,1-1.092.754Z" transform="translate(-6.244 -278.986)" fill="#dce736"/>
              <ellipse id="Elipse_6097" data-name="Elipse 6097" cx="3.311" cy="3.311" rx="3.311" ry="3.311" transform="translate(20.891 14.627)" fill="#75b52f"/>
              <ellipse id="Elipse_6098" data-name="Elipse 6098" cx="3.311" cy="3.311" rx="3.311" ry="3.311" transform="translate(61.009 11.311)" fill="#75b52f"/>
              <ellipse id="Elipse_6099" data-name="Elipse 6099" cx="3.311" cy="3.311" rx="3.311" ry="3.311" transform="translate(36.766 27.972) rotate(-13.28)" fill="#f85316"/>
              <rect id="Rectángulo_44146" data-name="Rectángulo 44146" width="23.199" height="4.709" rx="2.355" transform="translate(13.567 44.62)" fill="#fff"/>
              <rect id="Rectángulo_44147" data-name="Rectángulo 44147" width="68.063" height="7.288" rx="3.644" transform="translate(11.113 52.308)" fill="#3d46c2"/>
            </g>
            <g id="Grupo_136852" data-name="Grupo 136852" transform="translate(108.353)">
              <rect id="Rectángulo_44148" data-name="Rectángulo 44148" width="112.677" height="112.677" rx="24" fill="#b7cfe2"/>
              <g id="Grupo_136851" data-name="Grupo 136851" transform="translate(38.19 33.033)">
                <path id="Trazado_172130" data-name="Trazado 172130" d="M300.072,114.66a18.172,18.172,0,0,0-18.152,18.151,1.882,1.882,0,1,0,3.763,0,14.383,14.383,0,1,1,28.766,0,1.882,1.882,0,1,0,3.763,0,18.172,18.172,0,0,0-18.151-18.151Z" transform="translate(-281.92 -88.093)" fill="#fff"/>
                <path id="Trazado_172131" data-name="Trazado 172131" d="M303.411,87.773A12.111,12.111,0,1,0,291.3,75.661a12.124,12.124,0,0,0,12.111,12.111Zm0-20.454a8.343,8.343,0,1,1-8.343,8.343A8.352,8.352,0,0,1,303.411,67.319Z" transform="translate(-286.424 -63.55)" fill="#fff"/>
              </g>
              <path id="Trazado_172132" data-name="Trazado 172132" d="M315.039,27.514a1.95,1.95,0,0,1-1.949-1.949V14.909a1.949,1.949,0,0,1,3.9,0V25.565A1.95,1.95,0,0,1,315.039,27.514Z" transform="translate(-258.698 -6.223)" fill="#3d46c2"/>
              <path id="Trazado_172133" data-name="Trazado 172133" d="M315.039,190.354a1.95,1.95,0,0,1-1.949-1.949V177.749a1.949,1.949,0,0,1,3.9,0v10.656A1.95,1.95,0,0,1,315.039,190.354Z" transform="translate(-258.698 -84.419)" fill="#3d46c2"/>
              <path id="Trazado_172134" data-name="Trazado 172134" d="M396.865,108.529H386.209a1.949,1.949,0,1,1,0-3.9h10.656a1.949,1.949,0,1,1,0,3.9Z" transform="translate(-292.874 -50.243)" fill="#3d46c2"/>
              <path id="Trazado_172135" data-name="Trazado 172135" d="M234.015,108.529H223.359a1.949,1.949,0,1,1,0-3.9h10.656a1.949,1.949,0,1,1,0,3.9Z" transform="translate(-214.673 -50.243)" fill="#3d46c2"/>
              <path id="Trazado_172136" data-name="Trazado 172136" d="M268.222,157.871a1.658,1.658,0,0,1-.39-.042,44.163,44.163,0,0,1-34.478-34.468,1.947,1.947,0,1,1,3.815-.78,40.276,40.276,0,0,0,31.443,31.432,1.948,1.948,0,0,1-.39,3.857Z" transform="translate(-220.39 -58.116)" fill="#3d46c2"/>
              <path id="Trazado_172137" data-name="Trazado 172137" d="M235.26,61.721a1.658,1.658,0,0,1-.39-.042,1.942,1.942,0,0,1-1.518-2.3,44.149,44.149,0,0,1,34.478-34.468,1.947,1.947,0,1,1,.78,3.815,40.269,40.269,0,0,0-31.443,31.432,1.944,1.944,0,0,1-1.908,1.559Z" transform="translate(-220.389 -11.945)" fill="#3d46c2"/>
              <path id="Trazado_172138" data-name="Trazado 172138" d="M364.361,61.71a1.953,1.953,0,0,1-1.908-1.559A40.281,40.281,0,0,0,331.01,28.708a1.947,1.947,0,1,1,.78-3.815,44.168,44.168,0,0,1,34.478,34.478,1.946,1.946,0,0,1-1.518,2.3A1.987,1.987,0,0,1,364.361,61.71Z" transform="translate(-266.555 -11.934)" fill="#3d46c2"/>
              <path id="Trazado_172139" data-name="Trazado 172139" d="M331.4,157.87a1.948,1.948,0,0,1-.39-3.857,40.281,40.281,0,0,0,31.443-31.443,1.947,1.947,0,0,1,3.815.78,44.168,44.168,0,0,1-34.478,34.478A1.988,1.988,0,0,1,331.4,157.87Z" transform="translate(-266.556 -58.11)" fill="#3d46c2"/>
            </g>
            <g id="Grupo_136853" data-name="Grupo 136853" transform="translate(340.112 28.797)">
              <rect id="Rectángulo_44149" data-name="Rectángulo 44149" width="49.381" height="49.381" rx="24" fill="#75b52f"/>
              <path id="Trazado_172140" data-name="Trazado 172140" d="M696.847,80.735,685.734,94.63a1.03,1.03,0,0,1-1.533.083l-6.232-6.232a3.451,3.451,0,0,0-4.886,0l-.088.088a3.451,3.451,0,0,0,0,4.886l9.362,9.362a3.458,3.458,0,0,0,5.084-.213l14.747-17.481a3.45,3.45,0,0,0-.2-4.668h0a3.453,3.453,0,0,0-5.141.286Z" transform="translate(-662.795 -66.945)" fill="#fff"/>
            </g>
          </g>
          <g id="Grupo_136855" data-name="Grupo 136855" transform="translate(51.226 229.999)">
            <path id="Trazado_172141" data-name="Trazado 172141" d="M236.691,566.954h.036a1.04,1.04,0,0,0,1-1.076c-.967-26.531,15.563-49.579,15.729-49.807a1.042,1.042,0,1,0-1.684-1.227c-.172.234-17.117,23.864-16.124,51.107a1.042,1.042,0,0,0,1.04,1Z" transform="translate(-164.366 -477.02)" fill="#95b5e8"/>
            <path id="Trazado_172142" data-name="Trazado 172142" d="M198.727,559.853a1.045,1.045,0,0,0,1.04-.977c2.235-38.029-25.7-58.842-25.985-59.049a1.042,1.042,0,1,0-1.227,1.684c.276.2,27.3,20.381,25.132,57.246a1.036,1.036,0,0,0,.977,1.1h.062Z" transform="translate(-133.882 -469.919)" fill="#95b5e8"/>
            <path id="Trazado_172143" data-name="Trazado 172143" d="M171.32,587.826h.042a1.043,1.043,0,0,0,1-1.081c-.655-16.2-9.164-28.615-19.789-28.865h-.333c-9.71,0-15.88,10.069-16.145,10.505a1.041,1.041,0,1,0,1.783,1.076c.057-.1,5.837-9.5,14.373-9.5h.275c9.512.223,17.148,11.779,17.762,26.869a1.038,1.038,0,0,0,1.04,1Z" transform="translate(-116.507 -497.892)" fill="#95b5e8"/>
            <path id="Trazado_172144" data-name="Trazado 172144" d="M253.627,484.537s1.185,16.353,14.269,13.083c3.711-.92,6.825-3.436,9.258-6.872a41.723,41.723,0,0,1-9.258-1.3c-5.645-1.637-2.235-11.893,1.928-7.88,2.672,2.573,7.449,3.129,10.536,3.2,3.441-8.5,3.961-19.435.91-27.57-3.94-10.516-24.493-8.608-35.872.379-.146,4.028.005,10.328,2.136,13.146,3.275,4.309,1.887,7.662-2.178,5.089-2.843-1.8-4.424-8.675-5.125-12.636a15.45,15.45,0,0,0-2.36,6.508c-2.1,18.131,15.76,14.856,15.76,14.856ZM278.146,464.1a2.479,2.479,0,0,1,2.157,0c1.118.6,1.263,3.717,1.04,5.645s-4.008-.587-4.309-2.225A3.207,3.207,0,0,1,278.146,464.1Zm-20.21-4.018c1.341-1.112,3.275,0,3.275,0,2.968,2.308-.374,4.018-1.934,4.018S256.6,461.2,257.936,460.086Z" transform="translate(-165.369 -446.111)" fill="#75b52f"/>
            <path id="Trazado_172145" data-name="Trazado 172145" d="M170.964,647.911H207.34a2.077,2.077,0,0,0,2-1.507l11.914-41.683a2.079,2.079,0,0,0-2-2.651h-59.6a2.08,2.08,0,0,0-2.006,2.625l11.306,41.683a2.085,2.085,0,0,0,2.006,1.539Z" transform="translate(-126.895 -519.112)" fill="#b7cfe2"/>
            <path id="Trazado_172146" data-name="Trazado 172146" d="M272.557,486.524a.7.7,0,0,0,.613-.369c6.986-13.193,20.491-24.348,20.626-24.462a.695.695,0,1,0-.878-1.076c-.14.114-13.858,11.446-20.974,24.883a.686.686,0,0,0,.291.936.662.662,0,0,0,.322.083Z" transform="translate(-181.774 -451.112)" fill="#b7cfe2"/>
            <path id="Trazado_172147" data-name="Trazado 172147" d="M165.431,459.677a13.591,13.591,0,0,0-2.069-5.7c-.613,3.472-2,9.5-4.491,11.077-3.561,2.256-4.777-.686-1.908-4.46,1.866-2.469,2-7.989,1.871-11.519-9.975-7.88-27.986-9.549-31.443-.333-2.677,7.132-2.22,16.712.8,24.166,2.7-.062,6.893-.546,9.232-2.8,3.649-3.519,6.638,5.473,1.689,6.908a36.727,36.727,0,0,1-8.114,1.138,14.421,14.421,0,0,0,8.114,6.025c11.467,2.869,12.506-11.467,12.506-11.467s15.651,2.869,13.811-13.021ZM131.1,457.785c-.26,1.435-3.581,3.649-3.774,1.949s-.068-4.423.91-4.948a2.171,2.171,0,0,1,1.892,0A2.812,2.812,0,0,1,131.1,457.785Zm15.568-3c-1.367,0-4.3-1.5-1.695-3.519,0,0,1.695-.972,2.869,0S148.038,454.786,146.671,454.786Z" transform="translate(-111.553 -442.474)" fill="#75b52f"/>
            <path id="Trazado_172148" data-name="Trazado 172148" d="M153.969,474.432a.609.609,0,0,1-.535-.322c-6.123-11.566-17.959-21.343-18.079-21.437a.609.609,0,0,1,.775-.941c.12.1,12.143,10.032,18.38,21.811a.613.613,0,0,1-.541.894Z" transform="translate(-116.117 -446.853)" fill="#b7cfe2"/>
            <path id="Trazado_172149" data-name="Trazado 172149" d="M101.388,571.03a13.634,13.634,0,0,0-2.573,5.494c2.89-2.022,8.135-5.3,11.009-4.657,4.112.925,2.9,3.862-1.8,4.507-3.067.426-7.064,4.236-9.471,6.82,1.481,12.626,13.037,26.546,22,22.471,6.934-3.15,13.385-10.25,16.525-17.653-1.954-1.871-5.26-4.486-8.509-4.548-5.068-.088-.826-8.561,3.691-6.076a36.859,36.859,0,0,1,6.544,4.933,14.43,14.43,0,0,0-1.476-10c-6.076-10.136-16.951-.733-16.951-.733s-9.039-13.1-18.973-.556Zm22.939,25.611c1.2-.832,5.11-.047,4.049,1.289s-3.082,3.176-4.143,2.854c0,0-1.154-.411-1.336-1.336a2.81,2.81,0,0,1,1.429-2.807Zm-13.13-8.889c.967.967,1.98,4.1-1.289,3.691,0,0-1.887-.509-2.027-2.027s2.35-2.625,3.316-1.658Z" transform="translate(-98.55 -501.597)" fill="#75b52f"/>
            <path id="Trazado_172150" data-name="Trazado 172150" d="M136.482,583.57a.6.6,0,0,1,.151.608c-3.847,12.506-2.391,27.789-2.376,27.945a.609.609,0,1,1-1.211.12c-.016-.156-1.492-15.682,2.422-28.418a.606.606,0,0,1,1.008-.25Z" transform="translate(-114.978 -510.145)" fill="#b7cfe2"/>
            <rect id="Rectángulo_44150" data-name="Rectángulo 44150" width="55.785" height="6.009" rx="3.004" transform="translate(90.451 115.43) rotate(180)" fill="#f85316"/>
            <path id="Trazado_172151" data-name="Trazado 172151" d="M243.144,664.54l11.477,43.092a.777.777,0,0,1-.754.977h-2.209a.777.777,0,0,1-.728-.5l-16.81-43.57Z" transform="translate(-163.65 -549.11)" fill="#f85316"/>
            <path id="Trazado_172152" data-name="Trazado 172152" d="M175.7,664.54l-11.477,43.092a.777.777,0,0,0,.754.977h2.209a.777.777,0,0,0,.728-.5l16.81-43.57Z" transform="translate(-130.075 -549.11)" fill="#f85316"/>
          </g>
          <g id="Grupo_136866" data-name="Grupo 136866" transform="translate(168.666 33.318)">
            <path id="Trazado_172153" data-name="Trazado 172153" d="M418.934,239.855l-8.244,15.8-31.76-13.094L370,246.826l36.932,25.143a13.425,13.425,0,0,0,19.753-5.494l7.625-16.6L418.934,239.85Z" transform="translate(-346.34 -148.493)" fill="#ffd6d2"/>
            <path id="Trazado_172154" data-name="Trazado 172154" d="M462.005,241.986s12.361,9.408,12.938,15.615l3.54-7.709L463.107,239.87,462,241.986Z" transform="translate(-390.518 -148.503)" fill="#f49d98"/>
            <g id="Grupo_136857" data-name="Grupo 136857" transform="translate(70.03 61.151)">
              <path id="Trazado_172155" data-name="Trazado 172155" d="M555.658,225.871l-24.966,14.217-1.2-3.576-2.812,17.694,3.867,22.773s-24.8,8.156-44.412,2.355h-.016a41.129,41.129,0,0,1-6.508-2.531l2.906-12.345-3.727-33.127-3.956-9-14.773-11.716a2.26,2.26,0,0,1-.478-3.03c.556-.837,1.3-1.934,2.183-3.192.426-.587.873-1.211,1.346-1.861,4.106-5.572,10.209-12.87,15.433-15a48.558,48.558,0,0,1,5.593-1.819,184.627,184.627,0,0,1,21.317-3.961s14.768,1.2,25.808,7.194a27.464,27.464,0,0,1,7.859,6.087c5.458,6.378,10.588,15.007,14.035,21.343.4.738.78,1.445,1.128,2.11.951,1.8,1.726,3.311,2.266,4.413a2.265,2.265,0,0,1-.91,2.978Z" transform="translate(-459.207 -181.745)" fill="#dce736"/>
              <path id="Trazado_172156" data-name="Trazado 172156" d="M554.3,188.939c-24.6,16.571-40.581,4.164-47.13-3.238a184.631,184.631,0,0,1,21.317-3.961s14.768,1.2,25.808,7.194Z" transform="translate(-482.239 -181.74)" fill="#ffd6d2"/>
              <path id="Trazado_172158" data-name="Trazado 172158" d="M544.506,214.556a.614.614,0,1,1-.65-.577A.616.616,0,0,1,544.506,214.556Z" transform="translate(-499.577 -197.221)" fill="#181a40"/>
              <path id="Trazado_172159" data-name="Trazado 172159" d="M542.376,229.906a.614.614,0,1,1-.65-.577A.616.616,0,0,1,542.376,229.906Z" transform="translate(-498.555 -204.592)" fill="#181a40"/>
              <path id="Trazado_172160" data-name="Trazado 172160" d="M540.256,245.246a.614.614,0,1,1-.65-.577A.616.616,0,0,1,540.256,245.246Z" transform="translate(-497.537 -211.958)" fill="#2b160e"/>
              <path id="Trazado_172161" data-name="Trazado 172161" d="M479.506,232.746l-.728,2.755a4.593,4.593,0,0,1-1.336-1.814,3.194,3.194,0,0,0-.442-.743h0a2.658,2.658,0,0,0-.478-.431,2.514,2.514,0,0,0-1.409-.52,4.55,4.55,0,0,1-2.459-.936A4.668,4.668,0,0,1,471.007,229a2.72,2.72,0,0,0-2.324-1.695,5.041,5.041,0,0,1-4.112-2.989,2.527,2.527,0,0,0-.442-.754l1.346-1.861a4.665,4.665,0,0,1,1.154,1.658,2.466,2.466,0,0,0,.92,1.18,2.539,2.539,0,0,0,1.4.52,4.971,4.971,0,0,1,4.106,2.989,2.537,2.537,0,0,0,.925,1.18,2.464,2.464,0,0,0,1.4.515,4.741,4.741,0,0,1,2.464.93,4,4,0,0,1,.385.312,4.669,4.669,0,0,1,1.258,1.747C479.5,232.735,479.506,232.735,479.506,232.746Z" transform="translate(-461.571 -200.929)" fill="#181a40"/>
              <path id="Trazado_172162" data-name="Trazado 172162" d="M615.518,251.1a4.672,4.672,0,0,1-2.568.572,2.48,2.48,0,0,0-1.466.317,2.431,2.431,0,0,0-1.081,1.034,5.02,5.02,0,0,1-4.486,2.381,2.471,2.471,0,0,0-1.466.307,2.516,2.516,0,0,0-1.081,1.034,4.594,4.594,0,0,1-1.913,1.8,4.7,4.7,0,0,1-2.568.582,2.464,2.464,0,0,0-1.466.307,2.431,2.431,0,0,0-1.081,1.034,4.681,4.681,0,0,1-1.918,1.8,4.572,4.572,0,0,1-2.568.572,2.544,2.544,0,0,0-1.471.317,2.417,2.417,0,0,0-.764.593l-.951-2.183a5.1,5.1,0,0,1,3.233-.993,2.471,2.471,0,0,0,1.466-.307,2.516,2.516,0,0,0,1.081-1.034,4.973,4.973,0,0,1,4.486-2.376,2.528,2.528,0,0,0,1.466-.317,2.427,2.427,0,0,0,1.071-1.034,4.973,4.973,0,0,1,4.486-2.375,2.488,2.488,0,0,0,1.466-.317,2.458,2.458,0,0,0,1.081-1.034,4.973,4.973,0,0,1,4.486-2.375,2.505,2.505,0,0,0,1.455-.307,2.305,2.305,0,0,0,.884-.749C615.731,249.1,615.908,250.891,615.518,251.1Z" transform="translate(-521.375 -213.731)" fill="#181a40"/>
              <g id="Grupo_136856" data-name="Grupo 136856" transform="translate(4.181 24.077)" opacity="0.3">
                <path id="Trazado_172163" data-name="Trazado 172163" d="M483.042,228.065l-2.032,7.735-.728,2.755-1.58,6-11.451-9.081,4.028,1.965a6.051,6.051,0,0,0,7.225-1.45h0a6.421,6.421,0,0,0,.738-1.06l.5-.9,3.3-5.973Z" transform="translate(-467.25 -228.06)"/>
              </g>
              <path id="Trazado_172165" data-name="Trazado 172165" d="M501.285,341.926l1.535-12.076s24.613,3.58,45.27-3.49l1.8,13.165s-21.305,9.381-48.6,2.41Z" transform="translate(-480.15 -251.186)" fill="#181a40"/>
              <path id="Trazado_172166" data-name="Trazado 172166" d="M551.565,293.793l3.867,22.773s-24.8,8.156-44.412,2.355a77.861,77.861,0,0,0,29.208-2.36,7.526,7.526,0,0,0,5.39-5.947l3.181-17.788.286-21.094v-.146l.1-7.407,2.183,5.011.951,2.183,2.053,4.72-2.812,17.694Z" transform="translate(-484.087 -221.328)" opacity="0.3"/>
            </g>
            <g id="Grupo_136859" data-name="Grupo 136859" transform="translate(98.288)">
              <path id="Trazado_172168" data-name="Trazado 172168" d="M556.894,80.727l6.118,8.717s4.818,3.774,13.141,1.17c6.508-2.038,8.275-9.424,6.581-15.6a.029.029,0,0,1-.01-.026,16.189,16.189,0,0,0-.842-2.334l-.016-.016-.016-.047a14.068,14.068,0,0,0-1.331-2.318c-5.026-7.08-16.077-7.9-21.021-3.348a10.128,10.128,0,0,0-2.937,6,21.855,21.855,0,0,0,.338,7.8Z" transform="translate(-534.111 -64.097)" fill="#71615d"/>
              <path id="Trazado_172169" data-name="Trazado 172169" d="M556.894,88.887l6.118,8.717s4.819,3.774,13.141,1.17c6.508-2.038,8.275-9.424,6.581-15.6.515,2.583.073,6.648-6.508,9.128-8.218,3.1-16.649-7.064-19.664-11.212a21.855,21.855,0,0,0,.338,7.8Z" transform="translate(-534.111 -72.257)" fill="#4a413e"/>
              <path id="Trazado_172170" data-name="Trazado 172170" d="M514.313,107.662s12.782,19.082,23.095,23.313a11.569,11.569,0,0,0,1.679.561c10.349,2.583,14.191-10.651,14.5-20.6q.016-.312.016-.608a28.291,28.291,0,0,0-1.684-9.871v-.01l-.01-.01c-2.952-8.171-10.1-15.75-23.776-13.421C508.736,90.306,514.313,107.662,514.313,107.662Z" transform="translate(-513.569 -74.897)" fill="#71615d"/>
              <path id="Trazado_172171" data-name="Trazado 172171" d="M558.56,150.771s.187,1.164.447,2.7a11.576,11.576,0,0,0,1.679.561c10.349,2.583,14.191-10.651,14.5-20.6a13.637,13.637,0,0,1-1.315,3.306c-4.039,7.3-11.773,3.02-11.773,3.02l-3.529,11.015Z" transform="translate(-535.174 -97.39)" fill="#4a413e"/>
              <path id="Trazado_172172" data-name="Trazado 172172" d="M605.38,80.41a.56.56,0,0,1,.031.062.164.164,0,0,0-.016-.047l-.016-.016Z" transform="translate(-557.657 -71.93)" fill="#ba3155"/>
              <g id="Grupo_136858" data-name="Grupo 136858" transform="translate(0.765 23.482)">
                <path id="Trazado_172173" data-name="Trazado 172173" d="M548.919,155.09l2.516,15.7h0a10.3,10.3,0,0,1-10.193,8.847h0a10.288,10.288,0,0,1-9.762-7.028l-.379-1.128V161.6l17.824-6.508Z" transform="translate(-522.752 -131.273)" fill="#ffd6d2"/>
                <path id="Trazado_172174" data-name="Trazado 172174" d="M541.99,172.049l-10.9,5.448V167.61Z" transform="translate(-522.747 -137.285)" fill="#f49d98"/>
                <path id="Trazado_172175" data-name="Trazado 172175" d="M515.056,117.145c.255,4.631.743,11.041,1.653,16.758a12.977,12.977,0,0,0,17.575,10.126,14.435,14.435,0,0,0,9.138-10.947s4.164.78,4.683-5.853-5.2-5.723-6.248-4.034l-.39,2.734-1.315,2.053a.641.641,0,0,1-1.18-.338l-.1-8.176a10.32,10.32,0,0,0-11.436-10.136l-6.331.686a6.8,6.8,0,0,0-6.056,7.126Z" transform="translate(-515.04 -109.271)" fill="#ffd6d2"/>
                <path id="Trazado_172176" data-name="Trazado 172176" d="M568.419,143.812h.016a.38.38,0,0,0,.359-.343c.031-.327.213-1.336.676-1.648a.588.588,0,0,1,.535-.057.373.373,0,0,0,.468-.255.38.38,0,0,0-.255-.468,1.354,1.354,0,0,0-1.18.156,1.757,1.757,0,0,0-.4.39c.016-.993.2-2.006.842-2.209,1.346-.426,2.1,1.04,2.131,1.1a.379.379,0,0,0,.676-.343,2.626,2.626,0,0,0-3.036-1.481c-1.923.613-1.3,4.418-1.221,4.85a.375.375,0,0,0,.374.312Z" transform="translate(-540.412 -123.328)" fill="#f49d98"/>
              </g>
              <path id="Trazado_172177" data-name="Trazado 172177" d="M587.41,113.38l.7,1.31A11.765,11.765,0,0,0,587.41,113.38Z" transform="translate(-549.027 -87.763)" fill="#ba3155"/>
            </g>
            <g id="Grupo_136862" data-name="Grupo 136862" transform="translate(43.209 149.138)">
              <path id="Trazado_172178" data-name="Trazado 172178" d="M579.622,553.417a14.529,14.529,0,0,1-.062,2.282l-2.812,24.821v.016L572.6,617.124H559.293l-2.7-79.732-3.14-26.562L579.684,525l-1.123,10.776Z" transform="translate(-477.642 -427.755)" fill="#ffd6d2"/>
              <path id="Trazado_172179" data-name="Trazado 172179" d="M553.45,510.815l2.37,20.07s18.8-2.37,22.98,2.578l.889-8.478L553.455,510.81Z" transform="translate(-477.642 -427.746)" fill="#f49d98"/>
              <path id="Trazado_172180" data-name="Trazado 172180" d="M488.11,523.6l-8.987,17.98-2.386,24.1c-.031.3-.068.582-.114.873l-2.563,15.074v.031l-7.3,43-3.192-.4-11.28-1.393,3.3-82.986,1.918-9.965,30.616-6.316Z" transform="translate(-429.065 -433.887)" fill="#ffd6d2"/>
              <path id="Trazado_172181" data-name="Trazado 172181" d="M461.405,532.328l14.071,4.294a4.642,4.642,0,0,1,2.713,6.674h0l3.618,15.308,1.684-17.034,8.993-17.98-30.616,6.316-.468,2.417Z" transform="translate(-433.439 -433.883)" fill="#f49d98"/>
              <g id="Grupo_136860" data-name="Grupo 136860" transform="translate(0 147.738)">
                <path id="Trazado_172182" data-name="Trazado 172182" d="M459.621,716.327l-.91.811-.515.452-4.1,3.628-5.64.473-3.561.3a.026.026,0,0,0-.016.005l-8.421.707-3.394-2.136,2.62-2.448h.005l7.36-6.9L454.1,707.6l1.05,1.669,2.376,3.737,2.095,3.311Z" transform="translate(-419.835 -669.982)" fill="#ffd6d2"/>
                <path id="Trazado_172183" data-name="Trazado 172183" d="M484.374,635.261l-7.3,43,2.095,3.311.2.291.39.561-1.471,1.04-.546-.634-.14-.156-.385-.442-3.441-3.971.1-.4.821-3.342,9.673-39.292Z" transform="translate(-439.384 -635.23)" fill="#f49d98"/>
                <path id="Trazado_172184" data-name="Trazado 172184" d="M448.814,737.344H408.862a1.256,1.256,0,0,1-.624-2.344l1.6-.92,13.624-7.9c-.172.312-3.888,7.485,21.993-1.138.629-.208,1.279-.426,1.949-.66l.2.3.39.561,1.409,2.017a8.194,8.194,0,0,1-.582,10.089Z" transform="translate(-407.609 -678.04)" fill="#51333b"/>
                <path id="Trazado_172185" data-name="Trazado 172185" d="M448.814,737.618H408.862a1.256,1.256,0,0,1-.624-2.344l1.6-.92c5.292.3,13.827.483,18.229-1.06,2.188-.769,5.167-1.986,8.171-3.27,3.576-1.533,7.189-3.16,9.6-4.262.234-.109.452-.2.655-.3.426-.2.8-.374,1.112-.515l.39.561,1.409,2.017a8.194,8.194,0,0,1-.582,10.089Z" transform="translate(-407.609 -678.313)" fill="#51333b"/>
              </g>
              <path id="Trazado_172186" data-name="Trazado 172186" d="M539.007,394.45l-3.093,53.8s-14.669,2.864-36.2,2.563a212.969,212.969,0,0,1-37.415-3.779l14.347-75.475a41.112,41.112,0,0,1,1.248-4.907l4.5-14.071c10.859,2.609,22.908,4.044,40.04.468q4-.826,8.374-2.043l4.907,16.057a78.247,78.247,0,0,1,3.3,27.383Z" transform="translate(-433.871 -351.01)" fill="#3d46c2"/>
              <g id="Grupo_136861" data-name="Grupo 136861" transform="translate(78.941 152.775)">
                <path id="Trazado_172187" data-name="Trazado 172187" d="M579.32,728.32a.738.738,0,0,1-.151.2h-.005v-.016a8.306,8.306,0,0,0-4.278-3.483,10.162,10.162,0,0,0-3.737-.577,9.792,9.792,0,0,0-8.135,4.075s-.546-.655-.374-6.9c.005-.281.016-.567.026-.878h0l1.019-5.421H577l1.544,4.028h0l.005.036a.281.281,0,0,0,.016.052c.2.842,1.793,7.173.754,8.878Z" transform="translate(-560.979 -678.726)" fill="#ffd6d2"/>
                <path id="Trazado_172188" data-name="Trazado 172188" d="M588.593,685.579l2.578,6.731-1.809,2.2-.156.187h0l-1.435,1.762-4.252-5.26a5.423,5.423,0,0,0,1.409.016,3.671,3.671,0,0,0,1.294-.374,2.579,2.579,0,0,0,1.31-2.729,19.35,19.35,0,0,0-1.778-6.607c-.14-.3-.224-.452-.224-.452l5.655-36.137-4.143,36.589,1.544,4.028h0l.005.036Z" transform="translate(-571.022 -644.92)" fill="#f49d98"/>
                <path id="Trazado_172189" data-name="Trazado 172189" d="M580.164,734.377a.21.21,0,0,1-.016.021,3.893,3.893,0,0,1-3.6,2.36H562.522a3.026,3.026,0,0,1-2.973-3.6l.047-.27,1.58-8.384c-.01.312-.016.6-.026.878-.109,6.123,1.045,5.463,1.045,5.463s2-3.218,7.8-3.379a9.156,9.156,0,0,1,4.7.951,5,5,0,0,1,2.36,2.433c1.315-1.331.187-6.856.021-7.641a.278.278,0,0,1-.016-.052l2.578,6.731.593,1.544a3.861,3.861,0,0,1-.062,2.952Z" transform="translate(-559.485 -682.491)" fill="#51333b"/>
                <path id="Trazado_172190" data-name="Trazado 172190" d="M562.509,745.747h14.035a3.911,3.911,0,0,0,3.613-2.381l-.016.026a5,5,0,0,1-3.316,1.216s-1.3-1.747-9.32-1.913c0,0-3.826.078-5.24,1.913a5.165,5.165,0,0,1-2.682-2.729l-.052.276A3.026,3.026,0,0,0,562.509,745.747Z" transform="translate(-559.476 -691.48)" fill="#51333b"/>
              </g>
              <path id="Trazado_172191" data-name="Trazado 172191" d="M573.572,394.45l-3.093,53.8s-14.669,2.864-36.2,2.563c0,0,26.728-5.167,29.826-33.21,2.833-25.7-5.681-59.164-7.111-64.554q4-.827,8.374-2.043l4.907,16.057a78.244,78.244,0,0,1,3.3,27.383Z" transform="translate(-468.436 -351.01)" fill="#181a40"/>
            </g>
            <g id="Grupo_136864" data-name="Grupo 136864" transform="translate(91.725 88.825)">
              <rect id="Rectángulo_44151" data-name="Rectángulo 44151" width="35.035" height="45.223" rx="4.66" transform="translate(3.512)" fill="#95b5e8"/>
              <path id="Trazado_172194" data-name="Trazado 172194" d="M591.1,272.15c1.481,5.728,2.136,7.22,2.573,11.337a9.282,9.282,0,0,1-7.953,10.225c-9.351,1.222-21.094,1-42.218-5.562l.629-7.314,31.791-.036,15.178-8.644Z" transform="translate(-521.379 -252.829)" fill="#ffd6d2"/>
              <g id="Grupo_136863" data-name="Grupo 136863" transform="translate(0 21.753)">
                <path id="Trazado_172195" data-name="Trazado 172195" d="M525.372,284.6l-20.158-5.567-2.324,1.419a.681.681,0,0,0-.146,1.045h0a.68.68,0,0,0,.733.182l2.235-.806,4.346,1.611-5.9-.546-2.869,1.637a.686.686,0,0,0-.13,1.1h0a.685.685,0,0,0,.6.172l2.724-.525,4.949,1.783-5.26-.229-2.9,2a.611.611,0,0,0-.218.733h0a.611.611,0,0,0,.733.353l2.573-.754,3.893,1.024-3.966.717-1.648,1.409a.659.659,0,0,0,.031,1.029h0a.665.665,0,0,0,.759.026l1.487-.972,4.881.172,9.928.868a4.042,4.042,0,0,0,2.188-.426l1.154-.587,1.57.135.738-6.986Z" transform="translate(-500.943 -277.885)" fill="#ffd6d2"/>
                <path id="Trazado_172196" data-name="Trazado 172196" d="M534.981,283.077l-4.382-4.226-4.917-1.96a.892.892,0,0,0-1.221.847h0a.893.893,0,0,0,.348.686l2.2,1.7,3.836,6.206Z" transform="translate(-512.236 -276.828)" fill="#ffd6d2"/>
                <path id="Trazado_172197" data-name="Trazado 172197" d="M518.461,292.493a.251.251,0,0,0,.094-.213,22.661,22.661,0,0,1,1.273-7.116.256.256,0,1,0-.483-.172,22.828,22.828,0,0,0-1.3,7.314.259.259,0,0,0,.421.187Z" transform="translate(-509.148 -280.666)" fill="#f49d98"/>
              </g>
              <path id="Trazado_172198" data-name="Trazado 172198" d="M605.87,280.794h4.579s.2-1.637,4.782-3.478c5.073-2.032,7.34.5,7.34.5l-1.523-5.666Z" transform="translate(-551.329 -252.829)" fill="#f49d98"/>
            </g>
            <g id="Grupo_136865" data-name="Grupo 136865" transform="translate(0 87.114)">
              <path id="Trazado_172199" data-name="Trazado 172199" d="M369.373,237.077a13.308,13.308,0,0,0-8.525-3.4L357,231.869a1.048,1.048,0,0,0-.9.005h0a1.041,1.041,0,0,0-.27,1.684l2.313,2.235,11.228,1.279Z" transform="translate(-339.382 -231.727)" fill="#ffd6d2"/>
              <path id="Trazado_172200" data-name="Trazado 172200" d="M357.2,241.574l-6.269,5.926-4.153-2.589-13.77-.993a3.024,3.024,0,0,1-1.247-.374l-6.581-3.675a.838.838,0,0,1,.1-1.513h0a.838.838,0,0,1,.5-.036l7.823,1.861,15.641-2.381,5.354,2.173Z" transform="translate(-324.61 -234.623)" fill="#ffd6d2"/>
              <path id="Trazado_172201" data-name="Trazado 172201" d="M330.526,237.053l-5.671-2.641a.648.648,0,0,1,.026-1.185l.572-.239h0a.707.707,0,0,1,.291-1.227h0a2.761,2.761,0,0,1,1.523.073l1.871.65.255-.156a2.774,2.774,0,0,1,2.552-.192l4.273,1.835,4.6.977,8.3-.088-12.184,4.366-4.195-.639Z" transform="translate(-324.482 -231.688)" fill="#ffd6d2"/>
              <path id="Trazado_172202" data-name="Trazado 172202" d="M341.325,236.239a.2.2,0,0,0,.166-.146.2.2,0,0,0-.14-.244l-2.672-.7-5.344-2.292a.2.2,0,1,0-.156.364l5.37,2.3,2.7.712a.164.164,0,0,0,.073,0Z" transform="translate(-328.601 -232.241)" fill="#f49d98"/>
              <path id="Trazado_172203" data-name="Trazado 172203" d="M335.733,237.845a.2.2,0,0,0,.042-.385l-4.33-1.57-5.208-2.064a.2.2,0,1,0-.146.374l5.214,2.064,4.335,1.57A.194.194,0,0,0,335.733,237.845Z" transform="translate(-325.193 -232.708)" fill="#f49d98"/>
              <path id="Trazado_172204" data-name="Trazado 172204" d="M361.058,241.726a.2.2,0,0,0,.094-.359c-2.277-1.669-5.967-1.632-7.927-1.471a8.23,8.23,0,0,0,1.144-.728.2.2,0,0,0-.244-.317,9.066,9.066,0,0,1-2.246,1.206.2.2,0,0,0-.125.239.193.193,0,0,0,.229.146c.057-.01,5.921-.962,8.935,1.242a.2.2,0,0,0,.14.036Z" transform="translate(-337.575 -235.107)" fill="#f49d98"/>
              <path id="Trazado_172205" data-name="Trazado 172205" d="M358.124,237.138l4.351-.047-5.234-.811Z" transform="translate(-340.212 -233.893)" fill="#f49d98"/>
            </g>
            <path id="Trazado_172206" data-name="Trazado 172206" d="M448.28,268.632l3.743,1.429-2.828-3.181Z" transform="translate(-383.93 -161.473)" fill="#f49d98"/>
          </g>
        </g>
      </g>
    </g>
  </g>
</svg>
