<svg xmlns="http://www.w3.org/2000/svg" xmlns:xlink="http://www.w3.org/1999/xlink" width="465" height="221" viewBox="0 0 465 221">
  <defs>
    <clipPath id="clip-path">
      <rect id="Rectángulo_42677" data-name="Rectángulo 42677" width="465" height="221" transform="translate(1044 1573)" fill="#fff"/>
    </clipPath>
  </defs>
  <g id="Grupo_136601" data-name="Grupo 136601" transform="translate(-1044 -1573)">
    <g id="Enmascarar_grupo_191" data-name="Enmascarar grupo 191" clip-path="url(#clip-path)">
      <g id="Layer_4" data-name="Layer 4" transform="translate(1158.095 1573)">
        <g id="Grupo_136995" data-name="Grupo 136995">
          <circle id="Elipse_6117" data-name="Elipse 6117" cx="84.574" cy="84.574" r="84.574" transform="translate(56.075 4.791)" fill="#dbddfc"/>
          <path id="Trazado_172508" data-name="Trazado 172508" d="M78.741,154.447l4.285-1.256-1.256,4.285,1.256,4.285L78.741,160.5l-4.285,1.256,1.256-4.285-1.256-4.285Z" fill="#f3e9bc"/>
          <g id="Grupo_136988" data-name="Grupo 136988">
            <rect id="Rectángulo_44312" data-name="Rectángulo 44312" width="9.185" height="5.182" transform="translate(26.346 213.29)" fill="#d2d0de"/>
            <rect id="Rectángulo_44313" data-name="Rectángulo 44313" width="4.593" height="5.182" transform="translate(30.938 213.29)" fill="#b4b3be"/>
            <rect id="Rectángulo_44314" data-name="Rectángulo 44314" width="9.185" height="5.182" transform="translate(79.778 213.29)" fill="#d2d0de"/>
            <rect id="Rectángulo_44315" data-name="Rectángulo 44315" width="4.593" height="5.182" transform="translate(84.37 213.29)" fill="#b4b3be"/>
            <g id="Grupo_136981" data-name="Grupo 136981">
              <rect id="Rectángulo_44316" data-name="Rectángulo 44316" width="9.185" height="5.182" transform="translate(114.24 213.29)" fill="#d2d0de"/>
              <rect id="Rectángulo_44317" data-name="Rectángulo 44317" width="4.593" height="5.182" transform="translate(118.833 213.29)" fill="#b4b3be"/>
              <rect id="Rectángulo_44318" data-name="Rectángulo 44318" width="9.185" height="5.182" transform="translate(64.28 213.29)" fill="#d2d0de"/>
              <rect id="Rectángulo_44319" data-name="Rectángulo 44319" width="4.593" height="5.182" transform="translate(68.873 213.29)" fill="#b4b3be"/>
            </g>
            <g id="Grupo_136982" data-name="Grupo 136982" opacity="0.3">
              <rect id="Rectángulo_44320" data-name="Rectángulo 44320" width="9.185" height="5.182" transform="translate(114.24 213.29)" fill="#1e252b"/>
              <rect id="Rectángulo_44321" data-name="Rectángulo 44321" width="4.593" height="5.182" transform="translate(118.833 213.29)" fill="#1e252b"/>
              <rect id="Rectángulo_44322" data-name="Rectángulo 44322" width="9.185" height="5.182" transform="translate(64.28 213.29)" fill="#1e252b"/>
              <rect id="Rectángulo_44323" data-name="Rectángulo 44323" width="4.593" height="5.182" transform="translate(68.873 213.29)" fill="#1e252b"/>
            </g>
            <rect id="Rectángulo_44324" data-name="Rectángulo 44324" width="101.224" height="92.336" transform="translate(23.844 122.289)" fill="#697e86"/>
            <rect id="Rectángulo_44325" data-name="Rectángulo 44325" width="62.612" height="85.658" transform="translate(26.346 125.625)" fill="#60737b"/>
            <rect id="Rectángulo_44326" data-name="Rectángulo 44326" width="1.147" height="85.658" transform="translate(55.34 125.625)" fill="#516269"/>
            <rect id="Rectángulo_44327" data-name="Rectángulo 44327" width="33.43" height="92.336" transform="translate(91.632 122.289)" fill="#516269"/>
            <g id="Grupo_136987" data-name="Grupo 136987">
              <g id="Grupo_136984" data-name="Grupo 136984">
                <g id="Grupo_136983" data-name="Grupo 136983">
                  <rect id="Rectángulo_44328" data-name="Rectángulo 44328" width="3.321" height="1.126" transform="translate(50.393 162.261)" fill="#9a9ba3"/>
                  <rect id="Rectángulo_44329" data-name="Rectángulo 44329" width="3.321" height="1.126" transform="translate(50.393 176.977)" fill="#9a9ba3"/>
                  <rect id="Rectángulo_44330" data-name="Rectángulo 44330" width="2.174" height="20.289" transform="translate(50.038 159.759)" fill="#b5b5c1"/>
                </g>
                <rect id="Rectángulo_44331" data-name="Rectángulo 44331" width="2.174" height="20.289" transform="translate(48.954 159.759)" fill="#d2d0de"/>
              </g>
              <g id="Grupo_136986" data-name="Grupo 136986">
                <g id="Grupo_136985" data-name="Grupo 136985">
                  <rect id="Rectángulo_44332" data-name="Rectángulo 44332" width="3.321" height="1.126" transform="translate(59.093 162.261)" fill="#9a9ba3"/>
                  <rect id="Rectángulo_44333" data-name="Rectángulo 44333" width="3.321" height="1.126" transform="translate(59.093 176.977)" fill="#9a9ba3"/>
                  <rect id="Rectángulo_44334" data-name="Rectángulo 44334" width="2.174" height="20.289" transform="translate(58.744 159.759)" fill="#b5b5c1"/>
                </g>
                <rect id="Rectángulo_44335" data-name="Rectángulo 44335" width="2.174" height="20.289" transform="translate(57.654 159.759)" fill="#d2d0de"/>
              </g>
            </g>
          </g>
          <path id="Trazado_172509" data-name="Trazado 172509" d="M230.748,50.643l6.063-1.778-1.772,6.063,1.772,6.063-6.063-1.778-6.057,1.778,1.772-6.063-1.772-6.063Z" fill="#dbddfc"/>
          <path id="Trazado_172510" data-name="Trazado 172510" d="M53.927,36.918,59.99,35.14,58.212,41.2l1.778,6.063-6.063-1.778-6.063,1.778L49.642,41.2,47.865,35.14Z" fill="#dbddfc"/>
          <path id="Trazado_172511" data-name="Trazado 172511" d="M183.691,1.256,187.976,0,186.72,4.285l1.256,4.285-4.285-1.251L179.406,8.57l1.256-4.285L179.406,0Z" fill="#dbddfc"/>
          <g id="Grupo_136989" data-name="Grupo 136989">
            <rect id="Rectángulo_44336" data-name="Rectángulo 44336" width="5.927" height="29.312" transform="translate(157.121 182.101) rotate(180)" fill="#3d494f"/>
            <rect id="Rectángulo_44337" data-name="Rectángulo 44337" width="5.927" height="19.428" transform="translate(157.121 175.825) rotate(180)" fill="#49575e"/>
            <path id="Trazado_172512" data-name="Trazado 172512" d="M162.032,59.062H213.52a2.932,2.932,0,0,1,2.8,3.805c-3.889,12.443-16.16,53-21.305,85.794a7.144,7.144,0,0,1-7.053,6.052H124.212a4.981,4.981,0,0,1-4.6-3.076l23.958-16.071,18.469-76.5Z" fill="#2e4147"/>
            <path id="Trazado_172513" data-name="Trazado 172513" d="M183,146.862a7.144,7.144,0,0,0,7.053-6.052c4.686-29.828,15.253-66.073,20.054-81.748h3.414a2.932,2.932,0,0,1,2.8,3.805c-3.889,12.443-16.16,53-21.305,85.794a7.144,7.144,0,0,1-7.053,6.052H124.212a4.981,4.981,0,0,1-4.6-3.076l-1.981-4.775H183Z" fill="#1d2a2d"/>
            <path id="Trazado_172514" data-name="Trazado 172514" d="M123.378,213.874l5.692-4.671h-8.393Z" fill="#20282d"/>
            <circle id="Elipse_6118" data-name="Elipse 6118" cx="5.182" cy="5.182" r="5.182" transform="translate(113.745 208.109)" fill="#2c363e"/>
            <path id="Trazado_172515" data-name="Trazado 172515" d="M183.66,213.874l-5.692-4.671h8.4Z" fill="#20282d"/>
            <path id="Trazado_172516" data-name="Trazado 172516" d="M119.349,202.265h68.763v.48a7.624,7.624,0,0,1-7.621,7.621H126.97a7.624,7.624,0,0,1-7.621-7.621v-.48Z" transform="translate(307.466 412.636) rotate(180)" fill="#3b4955"/>
            <rect id="Rectángulo_44338" data-name="Rectángulo 44338" width="68.763" height="3.503" transform="translate(119.349 206.868)" fill="#2c363e"/>
            <circle id="Elipse_6119" data-name="Elipse 6119" cx="5.182" cy="5.182" r="5.182" transform="translate(182.936 208.109)" fill="#2c363e"/>
            <rect id="Rectángulo_44339" data-name="Rectángulo 44339" width="10.092" height="27.315" rx="4.744" transform="translate(159.045 205.257) rotate(180)" fill="#3b4955"/>
          </g>
          <rect id="Rectángulo_44340" data-name="Rectángulo 44340" width="7.725" height="103.95" transform="translate(12.949 114.522)" fill="#d2d0de"/>
          <rect id="Rectángulo_44341" data-name="Rectángulo 44341" width="3.863" height="103.95" transform="translate(16.812 114.522)" fill="#b5b5c1"/>
          <path id="Trazado_172517" data-name="Trazado 172517" d="M17.7,114.522H12.949v103.95" fill="#d2d0de"/>
          <rect id="Rectángulo_44342" data-name="Rectángulo 44342" width="7.725" height="103.95" transform="translate(62.497 114.522)" fill="#d2d0de"/>
          <rect id="Rectángulo_44343" data-name="Rectángulo 44343" width="3.863" height="103.95" transform="translate(66.355 114.522)" fill="#b5b5c1"/>
          <path id="Trazado_172518" data-name="Trazado 172518" d="M67.246,114.522H62.5v103.95" fill="#d2d0de"/>
          <g id="Grupo_136990" data-name="Grupo 136990">
            <path id="Trazado_172519" data-name="Trazado 172519" d="M150.355,116.315l-3.753,1.71s-31.361,17.26-32.643,21.649S135.926,188.2,135.926,188.2l1.371-.532s1.877,4,1.8,6.2-4.692,8.883-7.366,12.855a8.873,8.873,0,0,0,.3,10.65L154.63,200.1l-13.215-42.579,1.507-17,39.764-22.16-32.335-2.043Z" fill="#ffd6d2"/>
            <path id="Trazado_172520" data-name="Trazado 172520" d="M142.927,140.518l39.764-22.16-32.919-3.837-2.935,2.773s-31.6,17.99-32.878,22.379S135.926,188.2,135.926,188.2l1.371-.532,6.1-2.32s4.04,7.8,4.04,9.748-2.82,3.9-2.82,3.9a10.69,10.69,0,0,0-7.408-.756c-1.6,2.773-3.878,6.1-5.479,8.481a8.873,8.873,0,0,0,.3,10.65L154.624,200.1,141.41,157.518l1.507-17Z" fill="#1e2c4f"/>
          </g>
          <path id="Trazado_172521" data-name="Trazado 172521" d="M189.217,116.106s.553,18.026-7.225,23.421c-7.366,5.114-35.333,5.3-35.333,5.3l10.275,41.057-2.575.99s.99,4.754,2.179,5.943,6.537,8.5,6.141,11.578-16.838,14.08-16.838,14.08H130.786s-.026-6.615,4.149-9.008,8.466-7.736,8.466-7.736l1.2-6.61s-22.733-57.785-21.743-60.5c2.393-6.537,40.108-18.521,40.108-18.521h26.236Z" fill="#ffd6d2"/>
          <path id="Trazado_172522" data-name="Trazado 172522" d="M146.664,144.824l-9.31.568,9.738,1.637Z" fill="#1e2c4f"/>
          <g id="Grupo_136991" data-name="Grupo 136991">
            <path id="Trazado_172523" data-name="Trazado 172523" d="M156.032,195.316a6.486,6.486,0,0,1-7.043,1.856,7.457,7.457,0,0,0-4.843.5l-.74,4.061a54.925,54.925,0,0,1-8.466,7.736,9.774,9.774,0,0,0-4.149,9.008h15.055s16.441-11,16.838-14.08c.391-3.055-4.858-10.259-6.1-11.536-.516.881-.13,2.184-.547,2.46Z" fill="#0d1836"/>
            <path id="Trazado_172524" data-name="Trazado 172524" d="M189.217,116.106H162.981s-38.706,11.885-41.1,18.422c-.829,2.273,14.445,39.415,20.341,55.632l12.141-3.279,2.575-.99-10.275-41.057s27.123.506,35.333-5.3c9.117-6.443,7.225-23.421,7.225-23.421Z" fill="#0d1836"/>
          </g>
          <path id="Trazado_172525" data-name="Trazado 172525" d="M106.619,94.541l-3.023.375L97.96,93.384l1.533,6.36h10.04Z" fill="#ffd6d2"/>
          <path id="Trazado_172526" data-name="Trazado 172526" d="M159.91,48.454l-5.807.579s-8.356.083-12.61,5.234c-3.347,4.05-17.828,35.109-17.828,35.109L105.034,94l.839,6.349,25.543.13L146.445,79.47l2.773,18.422L146.842,117.3s16.379,2.971,43.314-1.189c0,0,5.411-43.376.459-58.624-3.482-10.723-14.7-10.723-14.7-10.723l-16.009,1.7Z" fill="#f85316"/>
          <path id="Trazado_172527" data-name="Trazado 172527" d="M147.733,27.628l-5.9-5.724s-6.255-6.459.485-14.685l.334,2.606s1.845-3.889,8.8-5.541l-1.022,2.1S162.678,3.07,169.127,8.08c6.4,4.968,5.719,20.617-.751,27.639-6.964,7.564-10.488.714-10.488.714l-10.155-8.81Z" fill="#151537"/>
          <rect id="Rectángulo_44344" data-name="Rectángulo 44344" width="235.664" height="2.528" transform="translate(0 218.472)" fill="#2a333d"/>
          <g id="Grupo_136992" data-name="Grupo 136992">
            <path id="Trazado_172528" data-name="Trazado 172528" d="M101.354,100.655,87.842,54.438H26.231l-2.648,2.445L39.868,98.69l14.148,2.872Z" fill="#dce736"/>
            <path id="Trazado_172529" data-name="Trazado 172529" d="M86.033,56.779h-62.4l2.6-2.341H87.842l13.512,46.217-2.481.052Z" fill="#838a22"/>
            <path id="Trazado_172530" data-name="Trazado 172530" d="M39.868,98.69h97.549v3.936H43.569a3.7,3.7,0,0,1-3.7-3.7V98.69Z" transform="translate(177.285 201.313) rotate(180)" fill="#838a22"/>
            <path id="Trazado_172531" data-name="Trazado 172531" d="M98.054,98.69h39.362v3.936H101.761a3.7,3.7,0,0,1-3.7-3.7V98.69h0Z" transform="translate(235.471 201.316) rotate(180)" fill="#838a22"/>
            <rect id="Rectángulo_44345" data-name="Rectángulo 44345" width="6.438" height="1.491" transform="translate(95.078 101.563) rotate(180)" fill="#13181a"/>
            <path id="Trazado_172532" data-name="Trazado 172532" d="M84.548,100.655a.85.85,0,1,0,.85-.85A.85.85,0,0,0,84.548,100.655Z" fill="#13181a"/>
          </g>
          <path id="Trazado_172533" data-name="Trazado 172533" d="M163.017,17.411l.683,8.054,1.089.818s.271-3.414,1.772-3.821,4.368.136,3.957,4.368-2.591,4.775-2.591,4.775l.412,3.821c.954,9.42,7.918,11.421,7.918,11.421s-4.931,6.959-13.647,6.881c-7.434-.068-8.737-4.561-8.737-4.561,3.55-2.049,2.455-6.375,2.455-6.375l-3.138.683C140.633,37.335,141.863,18.5,141.863,18.5a38.641,38.641,0,0,0,21.154-1.089Z" fill="#ffd6d2"/>
          <path id="Trazado_172534" data-name="Trazado 172534" d="M178.2,57.9a120.483,120.483,0,0,0,1.579,32.3l-19.559,4.577h23.1s1.413-3.686,1.632-4.207S178.2,57.9,178.2,57.9Z" fill="#a74927"/>
          <path id="Trazado_172535" data-name="Trazado 172535" d="M146.44,79.465,145.6,67.481l-1.355,15.055Z" fill="#a74927"/>
          <path id="Trazado_172536" data-name="Trazado 172536" d="M123.665,89.364l7.157-1.387-6.344-.417Z" fill="#a74927"/>
          <path id="Trazado_172537" data-name="Trazado 172537" d="M148.656,102.438h-9.962l-1.637-18.021H149.61Z" fill="#fff"/>
          <path id="Trazado_172538" data-name="Trazado 172538" d="M148.656,102.438h-9.962l-1.637-18.021H149.61Z" fill="#fff"/>
          <path id="Trazado_172539" data-name="Trazado 172539" d="M150.621,85.434h-14.57v-.683a1.694,1.694,0,0,1,1.694-1.694h11.187a1.694,1.694,0,0,1,1.694,1.694v.683Z" fill="#585c8c"/>
          <rect id="Rectángulo_44346" data-name="Rectángulo 44346" width="10.264" height="1.83" transform="translate(138.308 82.416)" fill="#585c8c"/>
          <path id="Trazado_172540" data-name="Trazado 172540" d="M137.417,88.343l.97,10.712h10.452l.568-10.712Z" fill="#dedaec"/>
          <circle id="Elipse_6120" data-name="Elipse 6120" cx="3.326" cy="3.326" r="3.326" transform="translate(140.007 89.912)" fill="#fff"/>
          <path id="Trazado_172541" data-name="Trazado 172541" d="M159.91,95.74l-4.358.334a39.29,39.29,0,0,0-4.827-2.45c-1.262-.37-5.348.443-5.348.443l-4.233,2.377,1.413,5.99h19.09l-1.731-6.7Z" fill="#ffd6d2"/>
          <path id="Trazado_172542" data-name="Trazado 172542" d="M180.918,47.7s-3.383,3.039-2.789,17.9a99.009,99.009,0,0,0,4.358,25.746l-24.36,3.764.594,7.329h35.63S201.9,52.551,180.918,47.7Z" fill="#f85316"/>
          <path id="Trazado_172543" data-name="Trazado 172543" d="M156.329,42.8l6.146-1.6-6.01,3.644Z" fill="#343433"/>
          <rect id="Rectángulo_44347" data-name="Rectángulo 44347" width="7.725" height="103.95" transform="translate(164.378 114.522)" fill="#d2d0de"/>
          <rect id="Rectángulo_44348" data-name="Rectángulo 44348" width="3.863" height="103.95" transform="translate(168.235 114.522)" fill="#b5b5c1"/>
          <path id="Trazado_172544" data-name="Trazado 172544" d="M169.127,114.522h-4.749v103.95" fill="#d2d0de"/>
          <rect id="Rectángulo_44349" data-name="Rectángulo 44349" width="7.725" height="103.95" transform="translate(211.705 114.522)" fill="#d2d0de"/>
          <rect id="Rectángulo_44350" data-name="Rectángulo 44350" width="3.863" height="103.95" transform="translate(215.568 114.522)" fill="#b5b5c1"/>
          <path id="Trazado_172545" data-name="Trazado 172545" d="M216.46,114.522h-4.754v103.95" fill="#d2d0de"/>
          <path id="Trazado_172546" data-name="Trazado 172546" d="M181.684,91.47l7.543-1.006-8.111-.553Z" fill="#a74927"/>
          <rect id="Rectángulo_44351" data-name="Rectángulo 44351" width="209.453" height="10.004" transform="translate(12.949 106.103)" fill="#b5b5c1"/>
          <rect id="Rectángulo_44352" data-name="Rectángulo 44352" width="149.735" height="10.004" transform="translate(12.949 106.103)" fill="#d2d0de"/>
          <g id="Grupo_136993" data-name="Grupo 136993">
            <path id="Trazado_172547" data-name="Trazado 172547" d="M15.878,102.438H219.321a6.892,6.892,0,0,1,6.891,6.891v.438H8.987v-.438A6.892,6.892,0,0,1,15.878,102.438Z" fill="#495968"/>
            <path id="Trazado_172548" data-name="Trazado 172548" d="M159.91,102.438h59.411a6.892,6.892,0,0,1,6.891,6.891v.438h-66.3v-7.329Z" fill="#3f4f5a"/>
          </g>
          <rect id="Rectángulo_44353" data-name="Rectángulo 44353" width="46.129" height="3.863" transform="translate(18.74 194.498)" fill="#b5b5c1"/>
          <rect id="Rectángulo_44354" data-name="Rectángulo 44354" width="44.445" height="3.863" transform="translate(169.632 194.498)" fill="#b5b5c1"/>
          <g id="Grupo_136994" data-name="Grupo 136994">
            <path id="Trazado_172549" data-name="Trazado 172549" d="M132.209,33.253V24.172a3.382,3.382,0,0,0-3.55-3.164H113.87a3.382,3.382,0,0,0-3.55,3.164v9.081a3.382,3.382,0,0,0,3.55,3.164h22.713Z" fill="#fff"/>
            <path id="Trazado_172550" data-name="Trazado 172550" d="M125.724,28.686a1.6,1.6,0,1,0,1.522-1.668,1.6,1.6,0,0,0-1.522,1.668Z" fill="#2f363a"/>
            <path id="Trazado_172551" data-name="Trazado 172551" d="M119.865,28.686a1.6,1.6,0,1,0,1.522-1.668,1.6,1.6,0,0,0-1.522,1.668Z" fill="#2f363a"/>
            <path id="Trazado_172552" data-name="Trazado 172552" d="M114.011,28.686a1.6,1.6,0,1,0,1.522-1.668,1.6,1.6,0,0,0-1.522,1.668Z" fill="#2f363a"/>
          </g>
        </g>
      </g>
    </g>
  </g>
</svg>
