<svg xmlns="http://www.w3.org/2000/svg" xmlns:xlink="http://www.w3.org/1999/xlink" width="465" height="221" viewBox="0 0 465 221">
  <defs>
    <clipPath id="clip-path">
      <rect id="Rectángulo_42677" data-name="Rectángulo 42677" width="465" height="221" transform="translate(1044 1573)" fill="#fff"/>
    </clipPath>
  </defs>
  <g id="Grupo_136594" data-name="Grupo 136594" transform="translate(-1044 -1573)">
    <g id="Enmascarar_grupo_193" data-name="Enmascarar grupo 193" clip-path="url(#clip-path)">
      <g id="Layer_4" data-name="Layer 4" transform="translate(1149.406 1573)">
        <g id="Grupo_137005" data-name="Grupo 137005">
          <circle id="Elipse_6125" data-name="Elipse 6125" cx="78.431" cy="78.431" r="78.431" transform="translate(20.281 7.085)" fill="#dbddfc"/>
          <rect id="Rectángulo_44387" data-name="Rectángulo 44387" width="3.259" height="10.478" transform="translate(53.185 59.622) rotate(-5.49)" fill="#828282"/>
          <rect id="Rectángulo_44388" data-name="Rectángulo 44388" width="3.254" height="10.478" transform="translate(54.447 59.496) rotate(-5.49)" fill="#a4a5a4"/>
          <path id="Trazado_172599" data-name="Trazado 172599" d="M78.127,65.762H50.148A3.945,3.945,0,0,1,46.4,62.528l-1.64-10.4A2.7,2.7,0,0,1,47.487,48.9h27.98a3.945,3.945,0,0,1,3.744,3.233l1.64,10.4a2.7,2.7,0,0,1-2.723,3.233Z" fill="#2e4147"/>
          <path id="Trazado_172600" data-name="Trazado 172600" d="M53.525,62.534l-1.64-10.4A3.941,3.941,0,0,0,48.142,48.9h-.655a2.7,2.7,0,0,0-2.723,3.233l1.64,10.4a3.941,3.941,0,0,0,3.744,3.233H50.8a2.7,2.7,0,0,0,2.723-3.233Z" fill="#1d2a2d"/>
          <g id="Grupo_136998" data-name="Grupo 136998">
            <rect id="Rectángulo_44389" data-name="Rectángulo 44389" width="5.126" height="35.75" transform="translate(94.056 149.499)" fill="#3d494f"/>
            <rect id="Rectángulo_44390" data-name="Rectángulo 44390" width="5.126" height="26.953" transform="translate(94.056 152.619)" fill="#49575e"/>
            <path id="Trazado_172601" data-name="Trazado 172601" d="M89.812,68.438H45.28a2.535,2.535,0,0,0-2.424,3.29c3.367,10.762,13.974,45.837,18.43,74.2a6.18,6.18,0,0,0,6.1,5.234h63.807a4.31,4.31,0,0,0,3.981-2.661l-15.521-11.422L89.812,68.438Z" fill="#2e4147"/>
            <path id="Trazado_172602" data-name="Trazado 172602" d="M71.681,144.373a6.18,6.18,0,0,1-6.1-5.234c-4.053-25.8-13.19-57.145-17.347-70.7H45.28a2.535,2.535,0,0,0-2.424,3.29c3.367,10.762,13.974,45.837,18.43,74.2a6.18,6.18,0,0,0,6.1,5.234h63.807a4.31,4.31,0,0,0,3.981-2.661l1.712-4.13h-65.2Z" fill="#1d2a2d"/>
            <path id="Trazado_172603" data-name="Trazado 172603" d="M123.242,212.729l-4.925-4.038h7.26Z" fill="#20282d"/>
            <circle id="Elipse_6126" data-name="Elipse 6126" cx="4.481" cy="4.481" r="4.481" transform="translate(122.613 207.742)" fill="#2c363e"/>
            <path id="Trazado_172604" data-name="Trazado 172604" d="M71.1,212.729l4.925-4.038h-7.26Z" fill="#20282d"/>
            <path id="Trazado_172605" data-name="Trazado 172605" d="M74.26,202.694h45.46a7.011,7.011,0,0,1,7.008,7.008H67.252A7.011,7.011,0,0,1,74.26,202.694Z" fill="#3b4955"/>
            <rect id="Rectángulo_44391" data-name="Rectángulo 44391" width="59.476" height="3.032" transform="translate(67.252 206.67)" fill="#2c363e"/>
            <circle id="Elipse_6127" data-name="Elipse 6127" cx="4.481" cy="4.481" r="4.481" transform="translate(62.771 207.742)" fill="#2c363e"/>
            <rect id="Rectángulo_44392" data-name="Rectángulo 44392" width="8.73" height="23.627" rx="4.362" transform="translate(92.395 181.65)" fill="#3b4955"/>
          </g>
          <path id="Trazado_172606" data-name="Trazado 172606" d="M118.111,205.685l.753-78.674H75.059v13.113H98.336l9.225,65.571s-1.258,6.951-.712,11.014H130.5s.469-3.2-3.408-5.389a12.045,12.045,0,0,0-5.729-1.377l-3.249-4.259Z" fill="#5c3c20"/>
          <path id="Trazado_172607" data-name="Trazado 172607" d="M118.245,83.593l2.939,20.188,17.749,5.074s5.126-.624,6.76-.7a16.309,16.309,0,0,1,4.765,1.171l5.074,2.578h-9.524l2.656,1.171-.547.938-34.972-2.5-5.775-21,2.341-5.389,8.539-1.531Z" fill="#ffd6d2"/>
          <path id="Trazado_172608" data-name="Trazado 172608" d="M96.562,57.336l-13.644.825s-11.308-.454-15.991,8.39a57.514,57.514,0,0,0-5.605,19.126l11.932,1.408-.938,26.933h38.875l-.975-27.9L119,83.567s-3.285-18.136-7.26-21.781c-2.81-2.578-7.967-2.991-7.967-2.991l-7.214-1.459Z" fill="#75b52f"/>
          <path id="Trazado_172609" data-name="Trazado 172609" d="M97.918,32.976l12.309-5.8s3.305-1.542,3.775-6.848l-2.341,1.562a7,7,0,0,0-.155-4.682l-2.594,2.594s-11.3-6.5-21.472-1.877c-8.1,3.682-10.174,15.165-6.038,23.364,4.125,8.168,10.354,10.014,10.354,10.014l6.167-18.326Z" fill="#0e223d"/>
          <path id="Trazado_172610" data-name="Trazado 172610" d="M141.769,205.685l.753-78.674H98.717v13.113h23.277l9.225,65.571s-1.258,6.951-.712,11.014h23.653s.469-3.2-3.408-5.389a12.045,12.045,0,0,0-5.729-1.377l-3.249-4.259Z" fill="#4c301c"/>
          <path id="Trazado_172611" data-name="Trazado 172611" d="M130.549,210.713l2.718,1.227a7.1,7.1,0,0,0,7.013-.7,8.6,8.6,0,0,1,4.734-1.294l-3.249-4.259.753-78.674H98.712v13.113h23.277l9.225,65.571s-.413,2.295-.665,5.012Z" fill="#ffd6d2"/>
          <path id="Trazado_172612" data-name="Trazado 172612" d="M141.769,205.7h.01l-.01-.01.753-78.674H98.717v13.113h23.277l9.225,65.571a30.527,30.527,0,0,0,10.555,0Z" fill="#83562c"/>
          <path id="Trazado_172613" data-name="Trazado 172613" d="M226.935,93.014h0A1.251,1.251,0,0,0,226,95.159a14.38,14.38,0,0,1-2.589,3.372c0-.108-.005-.211-.01-.315-.005-.237-.015-.48-.026-.727-.021-.454-.041-.928-.041-1.408,0-.227,0-.459-.005-.691v-.129c-.005-.48-.01-.969,0-1.464.01-.278.015-.562.021-.846V92.71c.335-.33,2.1-2.1,3.269-3.28a1.174,1.174,0,0,0,.459.108,1.224,1.224,0,0,0,.9-.325,1.251,1.251,0,0,0,.407-.866,1.252,1.252,0,0,0-2.094-.985,1.251,1.251,0,0,0-.407.866,1.236,1.236,0,0,0,.083.511c-.464.469-1.253,1.263-2.558,2.573l.021-.392c.031-.6.067-1.227.124-1.836l.217-2.279c.041-.423.093-.841.16-1.3.036-.278.077-.552.1-.81l.01-.083c.536-.376,1.872-1.32,2.738-1.949a1.236,1.236,0,0,0,1-.16,1.26,1.26,0,0,0,.567-1,1.252,1.252,0,0,0-1.191-1.31,1.21,1.21,0,0,0-.9.325,1.241,1.241,0,0,0-.248,1.531c-.454.325-1.047.753-1.758,1.253.026-.17.057-.345.088-.511.083-.5.175-1.006.289-1.593.062-.34.129-.645.2-.969l.052-.248c.088-.4.16-.691.206-.866a1.258,1.258,0,1,0-.861-.17c-.052.186-.129.464-.222.825l-.077.309c-.067.273-.144.578-.217.918-.1.428-.2.923-.33,1.609-.083.423-.16.877-.242,1.382l-.16,1.016c-.046.325-.1.66-.139,1.011-.825-1.413-1.7-3.073-2.14-3.914a1.224,1.224,0,0,0,.351-.81,1.238,1.238,0,0,0-.325-.9,1.251,1.251,0,0,0-.866-.407,1.217,1.217,0,0,0-.9.325,1.252,1.252,0,0,0,.784,2.176h.088c.681,1.3,1.877,3.548,2.836,5.079l-.129,1.4c-.067.665-.1,1.351-.129,1.954l-.021.433c-.031.521-.041,1.047-.046,1.557v.077l-.015.758c-.01.51,0,1.016.005,1.521v.273a29.2,29.2,0,0,1-2.589-3.207,1.232,1.232,0,0,0,.17-.567,1.255,1.255,0,0,0-1.191-1.31,1.252,1.252,0,0,0-.985,2.094,1.251,1.251,0,0,0,.866.407,1.224,1.224,0,0,0,.387-.046,21.224,21.224,0,0,0,3.378,3.924c.01.222.021.443.031.655l.036.727c.021.562.067,1.083.113,1.583l.077.866c.036.4.072.784.119,1.124l.315,2.331a.435.435,0,0,0,.407.376h.067a.442.442,0,0,0,.382-.485l-.258-2.331c-.031-.273-.052-.567-.077-.923-.015-.222-.031-.454-.052-.686l-.026-.366a15.63,15.63,0,0,0,3.388-4.234,1.254,1.254,0,0,0,.057-2.506Z" fill="#75b52f"/>
          <path id="Trazado_172614" data-name="Trazado 172614" d="M215.988,101.455a8.658,8.658,0,1,0,13.8,0h-13.8Z" fill="#343433"/>
          <path id="Trazado_172615" data-name="Trazado 172615" d="M110.227,27.18s1.929,17-7.1,25.082H98.593s-.356,3.661,1.134,4.935a8.964,8.964,0,0,0,4.043,1.6,10.479,10.479,0,0,1-9.9,5.853c-7.508,0-10.958-6.492-10.958-6.492s6.812-1.743,5.322-11.216L87.6,43.81s-4.471.108-4.682-5.425,5.425-4.682,5.641-.851v2.13l1.279-2.021V32.961a6.785,6.785,0,0,0,3.4-5.781s9,2.32,16.991,0Z" fill="#ffd6d2"/>
          <path id="Trazado_172616" data-name="Trazado 172616" d="M106.9,210.713l2.718,1.227a7.1,7.1,0,0,0,7.013-.7,8.6,8.6,0,0,1,4.734-1.294l-3.249-4.259.753-78.674H75.059v13.113H98.336l9.225,65.571s-.413,2.295-.665,5.012Z" fill="#ffd6d2"/>
          <path id="Trazado_172617" data-name="Trazado 172617" d="M118.111,205.7h.01l-.01-.01.753-78.674H75.059v13.113H98.336l9.225,65.571a30.527,30.527,0,0,0,10.555,0Z" fill="#9f6c36"/>
          <g id="Grupo_136999" data-name="Grupo 136999">
            <rect id="Rectángulo_44393" data-name="Rectángulo 44393" width="57.614" height="67.917" transform="translate(159.771 127.011)" fill="#bfbebe"/>
            <rect id="Rectángulo_44394" data-name="Rectángulo 44394" width="44.264" height="96.737" transform="translate(239.986 216.71) rotate(180)" fill="#bfbebe"/>
            <rect id="Rectángulo_44395" data-name="Rectángulo 44395" width="146.374" height="11.711" transform="translate(232.963 132.864) rotate(180)" fill="#e1e1e1"/>
            <rect id="Rectángulo_44396" data-name="Rectángulo 44396" width="11.711" height="11.711" transform="translate(98.294 132.864) rotate(180)" fill="#bfbebe"/>
            <rect id="Rectángulo_44397" data-name="Rectángulo 44397" width="146.374" height="3.042" transform="translate(232.963 124.201) rotate(180)" fill="#bfbebe"/>
            <rect id="Rectángulo_44398" data-name="Rectángulo 44398" width="4.682" height="96.737" transform="translate(239.986 216.71) rotate(180)" fill="#e1e1e1"/>
            <rect id="Rectángulo_44399" data-name="Rectángulo 44399" width="44.264" height="96.737" transform="translate(94.778 216.71) rotate(180)" fill="#bfbebe"/>
            <rect id="Rectángulo_44400" data-name="Rectángulo 44400" width="4.682" height="96.737" transform="translate(94.783 216.71) rotate(180)" fill="#e1e1e1"/>
            <path id="Trazado_172618" data-name="Trazado 172618" d="M47.709,114.012H242.328a7.145,7.145,0,0,1-7.142,7.142H54.85a7.145,7.145,0,0,1-7.142-7.142h0Z" transform="translate(290.036 235.165) rotate(180)" fill="#fff"/>
            <rect id="Rectángulo_44401" data-name="Rectángulo 44401" width="194.624" height="2.362" transform="translate(47.709 118.792)" fill="#e1e1e1"/>
            <rect id="Rectángulo_44402" data-name="Rectángulo 44402" width="55.856" height="67.917" transform="translate(177.107 127.011)" fill="#e1e1e1"/>
          </g>
          <path id="Trazado_172619" data-name="Trazado 172619" d="M252.043,221H2.145A2.15,2.15,0,0,1,0,218.855H0a2.15,2.15,0,0,1,2.145-2.145h249.9a2.15,2.15,0,0,1,2.145,2.145h0A2.15,2.15,0,0,1,252.043,221Z" fill="#2a333d"/>
          <g id="Grupo_137000" data-name="Grupo 137000">
            <path id="Trazado_172620" data-name="Trazado 172620" d="M122.226,37.2V28.129a3.275,3.275,0,0,1,3.362-3.161h14.005a3.275,3.275,0,0,1,3.362,3.161V37.2a3.275,3.275,0,0,1-3.362,3.161H118.08l4.141-3.161Z" fill="#fff"/>
            <path id="Trazado_172621" data-name="Trazado 172621" d="M128.367,32.641a1.545,1.545,0,0,1-1.578,1.521,1.569,1.569,0,0,1-1.444-1.666,1.545,1.545,0,0,1,1.578-1.521A1.569,1.569,0,0,1,128.367,32.641Z" fill="#343433"/>
            <path id="Trazado_172622" data-name="Trazado 172622" d="M133.916,32.641a1.545,1.545,0,0,1-1.578,1.521,1.573,1.573,0,0,1-1.444-1.666,1.545,1.545,0,0,1,1.578-1.521A1.569,1.569,0,0,1,133.916,32.641Z" fill="#343433"/>
            <path id="Trazado_172623" data-name="Trazado 172623" d="M139.464,32.641a1.545,1.545,0,0,1-1.578,1.521,1.569,1.569,0,0,1-1.444-1.666,1.545,1.545,0,0,1,1.578-1.521A1.569,1.569,0,0,1,139.464,32.641Z" fill="#343433"/>
          </g>
          <path id="Trazado_172624" data-name="Trazado 172624" d="M29.867,24.947,35.487,23.3l-1.65,5.621,1.65,5.621-5.621-1.65-5.621,1.65,1.645-5.621L24.246,23.3Z" fill="#dbddfc"/>
          <path id="Trazado_172625" data-name="Trazado 172625" d="M173.75,32.76l5.621-1.65-1.645,5.621,1.645,5.621-5.621-1.645-5.621,1.645,1.65-5.621-1.65-5.621Z" fill="#dbddfc"/>
          <path id="Trazado_172626" data-name="Trazado 172626" d="M25.4,134.736l3.976-1.16-1.165,3.971,1.165,3.976L25.4,140.357l-3.976,1.165,1.165-3.976-1.165-3.971Z" fill="#dbddfc"/>
          <path id="Trazado_172627" data-name="Trazado 172627" d="M131.451,1.165,135.427,0l-1.165,3.976,1.165,3.976-3.976-1.165-3.976,1.165,1.165-3.976L127.475,0Z" fill="#dbddfc"/>
          <path id="Trazado_172628" data-name="Trazado 172628" d="M105.906,110.985a6.368,6.368,0,0,1,2.15,3.006H93.4l.846-3.512,4.94-1.758,6.724,2.264Z" fill="#29393d"/>
          <path id="Trazado_172629" data-name="Trazado 172629" d="M62.018,85.754l12.623,1.325L71.955,102.8l18.7,6.683a71.1,71.1,0,0,1,7.575-1.949,19.123,19.123,0,0,1,4.765.624l3.589,2.81-3.8.866L99.95,110.66a21.77,21.77,0,0,1-7.492,3.357s-29.5-2.382-31.135-3.945.7-24.313.7-24.313Z" fill="#ffd6d2"/>
          <path id="Trazado_172631" data-name="Trazado 172631" d="M109.9,114.012h47.961l1.444-1.836-.655-.536-46.373-.284-1.475.067Z" fill="#233136"/>
          <rect id="Rectángulo_44403" data-name="Rectángulo 44403" width="47.564" height="1.64" transform="translate(111.738 110.536)" fill="#354a50"/>
          <path id="Trazado_172633" data-name="Trazado 172633" d="M111.738,112.176l-1.841,1.836h-1.836l3.677-3.476Z" fill="#29393d"/>
          <g id="Grupo_137001" data-name="Grupo 137001">
            <path id="Trazado_172634" data-name="Trazado 172634" d="M155.656,113.022h2.233l.547.99h-2.2Z" fill="#29393d"/>
            <path id="Trazado_172635" data-name="Trazado 172635" d="M156.022,113.022h2.233l.552.99H156.6Z" fill="#354a50"/>
          </g>
          <g id="Grupo_137002" data-name="Grupo 137002">
            <path id="Trazado_172636" data-name="Trazado 172636" d="M112.475,113.022h2.233l.547.99h-2.2Z" fill="#29393d"/>
            <path id="Trazado_172637" data-name="Trazado 172637" d="M112.841,113.022h2.233l.552.99h-2.207Z" fill="#354a50"/>
          </g>
          <path id="Trazado_172638" data-name="Trazado 172638" d="M203.5,97.763H139.8a1.687,1.687,0,0,1-1.7-1.872l3.852-41.675A2.1,2.1,0,0,1,144,52.344h63.7a1.687,1.687,0,0,1,1.7,1.872l-3.852,41.675A2.1,2.1,0,0,1,203.5,97.763Z" fill="#354a50"/>
          <path id="Trazado_172639" data-name="Trazado 172639" d="M140.6,95.891l3.852-41.675a2.1,2.1,0,0,1,2.047-1.872H144a2.109,2.109,0,0,0-2.047,1.872L138.1,95.891a1.684,1.684,0,0,0,1.7,1.872h2.5A1.687,1.687,0,0,1,140.6,95.891Z" fill="#2c3f43"/>
          <path id="Trazado_172640" data-name="Trazado 172640" d="M170.388,88.6l-.933,5.935,8.591,16h7.807L176.4,94.221l1.016-5.621Z" fill="#2c3f43"/>
          <path id="Trazado_172641" data-name="Trazado 172641" d="M172.033,88.6l-.933,5.935,8.591,16H187.5l-9.452-16.315,1.016-5.621Z" fill="#354a50"/>
          <path id="Trazado_172642" data-name="Trazado 172642" d="M165.577,110.536H197.1a3.477,3.477,0,0,1,3.476,3.476H162.107a3.477,3.477,0,0,1,3.476-3.476Z" fill="#354a50"/>
          <path id="Trazado_172643" data-name="Trazado 172643" d="M165.577,110.536h16.259v3.476H162.107a3.477,3.477,0,0,1,3.476-3.476Z" fill="#2c3f43"/>
          <path id="Trazado_172644" data-name="Trazado 172644" d="M98.593,52.262H93.421l5.146,1.361Z" fill="#343433"/>
          <path id="Trazado_172645" data-name="Trazado 172645" d="M98.336,140.124l-.856-5.151-.861,5.151Z" fill="#83562c"/>
          <path id="Trazado_172646" data-name="Trazado 172646" d="M122,140.124l-.856-5.151-.861,5.151Z" fill="#6d4626"/>
          <g id="Grupo_137004" data-name="Grupo 137004">
            <rect id="Rectángulo_44404" data-name="Rectángulo 44404" width="67.448" height="30.568" transform="translate(3.898 186.136)" fill="#846241"/>
            <rect id="Rectángulo_44405" data-name="Rectángulo 44405" width="23.421" height="30.568" transform="translate(3.898 186.136)" fill="#967248"/>
            <rect id="Rectángulo_44406" data-name="Rectángulo 44406" width="72.836" height="5.77" transform="translate(1.201 186.136)" fill="#967248"/>
            <g id="Grupo_137003" data-name="Grupo 137003">
              <rect id="Rectángulo_44407" data-name="Rectángulo 44407" width="53.572" height="23.844" transform="translate(10.839 162.896)" fill="#846241"/>
              <rect id="Rectángulo_44408" data-name="Rectángulo 44408" width="18.6" height="23.844" transform="translate(10.839 162.896)" fill="#967248"/>
              <rect id="Rectángulo_44409" data-name="Rectángulo 44409" width="57.846" height="4.584" transform="translate(8.699 162.896)" fill="#967248"/>
              <rect id="Rectángulo_44410" data-name="Rectángulo 44410" width="17.95" height="4.584" transform="translate(8.699 162.896)" fill="#b18654"/>
              <path id="Trazado_172647" data-name="Trazado 172647" d="M22.091,173.152H15.769a1.867,1.867,0,0,1-1.862-1.862h0a1.867,1.867,0,0,1,1.862-1.862h6.322a1.867,1.867,0,0,1,1.862,1.862h0A1.867,1.867,0,0,1,22.091,173.152Z" fill="#846241"/>
              <path id="Trazado_172648" data-name="Trazado 172648" d="M22.648,173.152H16.326a1.867,1.867,0,0,1-1.862-1.862h0a1.867,1.867,0,0,1,1.862-1.862h6.322a1.867,1.867,0,0,1,1.862,1.862h0A1.867,1.867,0,0,1,22.648,173.152Z" fill="#664b34"/>
            </g>
            <rect id="Rectángulo_44411" data-name="Rectángulo 44411" width="22.601" height="5.77" transform="translate(1.201 186.136)" fill="#b18654"/>
            <path id="Trazado_172649" data-name="Trazado 172649" d="M18.063,199.054H10.1a2.346,2.346,0,0,1-2.341-2.341h0a2.346,2.346,0,0,1,2.341-2.341h7.962a2.346,2.346,0,0,1,2.341,2.341h0A2.346,2.346,0,0,1,18.063,199.054Z" fill="#846241"/>
            <path id="Trazado_172650" data-name="Trazado 172650" d="M18.77,199.054H10.808a2.346,2.346,0,0,1-2.341-2.341h0a2.346,2.346,0,0,1,2.341-2.341H18.77a2.346,2.346,0,0,1,2.341,2.341h0A2.346,2.346,0,0,1,18.77,199.054Z" fill="#664b34"/>
          </g>
          <path id="Trazado_172651" data-name="Trazado 172651" d="M113.4,127.243a2.463,2.463,0,0,1-2.46-2.46V113.97h-4.992a.232.232,0,0,1,0-.464H111.4v11.283a1.99,1.99,0,1,0,3.981,0V113.506h2.465v4.708a1.526,1.526,0,0,0,3.053,0v-4.476a.232.232,0,1,1,.464,0v4.476a2,2,0,1,1-3.991,0v-4.239h-1.532v10.813a2.463,2.463,0,0,1-2.46,2.46Z" fill="#233136"/>
        </g>
      </g>
    </g>
  </g>
</svg>
