<svg xmlns="http://www.w3.org/2000/svg" xmlns:xlink="http://www.w3.org/1999/xlink" width="465" height="221" viewBox="0 0 465 221">
  <defs>
    <clipPath id="clip-path">
      <rect id="Rectángulo_42677" data-name="Rectángulo 42677" width="465" height="221" transform="translate(1044 1573)" fill="#fff"/>
    </clipPath>
  </defs>
  <g id="Grupo_136597" data-name="Grupo 136597" transform="translate(-1044 -1573)">
    <g id="Enmascarar_grupo_192" data-name="Enmascarar grupo 192" clip-path="url(#clip-path)">
      <g id="Layer_4" data-name="Layer 4" transform="translate(1151.883 1573)">
        <g id="Grupo_136997" data-name="Grupo 136997">
          <circle id="Elipse_6121" data-name="Elipse 6121" cx="100.023" cy="100.023" r="100.023" transform="translate(42.196 0)" fill="rgba(255,172,142,0.58)"/>
          <path id="Trazado_172553" data-name="Trazado 172553" d="M61.941,8.433l7.173-2.1-2.1,7.168,2.1,7.168-7.173-2.1-7.168,2.1,2.1-7.168-2.1-7.168Z" fill="#fdceb0"/>
          <path id="Trazado_172554" data-name="Trazado 172554" d="M235.4,168.3l7.168-2.1-2.1,7.173,2.1,7.168-7.168-2.1-7.168,2.1,2.1-7.168-2.1-7.173Z" fill="#fdceb0"/>
          <path id="Trazado_172555" data-name="Trazado 172555" d="M212.84,3.666l7.168-2.1-2.1,7.168,2.1,7.168-7.168-2.1-7.168,2.1,2.1-7.168-2.1-7.168Z" fill="#fdceb0"/>
          <path id="Trazado_172556" data-name="Trazado 172556" d="M244.165,55.215l5.07-1.486-1.486,5.07,1.486,5.07-5.07-1.486L239.1,63.869l1.481-5.07-1.481-5.07Z" fill="#fdceb0"/>
          <path id="Trazado_172557" data-name="Trazado 172557" d="M28.42,94.511l5.07-1.481L32,98.095l1.486,5.07-5.07-1.486-5.065,1.486,1.481-5.07L23.355,93.03Z" fill="#fdceb0"/>
          <rect id="Rectángulo_44355" data-name="Rectángulo 44355" width="2.756" height="21.422" transform="translate(183.746 163.836)" fill="#939292"/>
          <rect id="Rectángulo_44356" data-name="Rectángulo 44356" width="2.756" height="17.853" transform="translate(183.746 166.047)" fill="#b1b1af"/>
          <path id="Trazado_172558" data-name="Trazado 172558" d="M182.368,161.229h5.512v.956a2.756,2.756,0,0,1-2.756,2.756h0a2.756,2.756,0,0,1-2.756-2.756v-.956h0Z" fill="#2c363e"/>
          <path id="Trazado_172559" data-name="Trazado 172559" d="M177.329,158.941h15.827a3.318,3.318,0,0,1-3.317,3.317h-9.194a3.318,3.318,0,0,1-3.317-3.317h0Z" fill="#3b4955"/>
          <path id="Trazado_172560" data-name="Trazado 172560" d="M206.345,210.155l-3.934-3.234h5.8Z" fill="#20282d"/>
          <ellipse id="Elipse_6122" data-name="Elipse 6122" cx="3.579" cy="3.589" rx="3.579" ry="3.589" transform="translate(205.841 206.165)" fill="#2c363e"/>
          <path id="Trazado_172561" data-name="Trazado 172561" d="M164.695,210.155l3.934-3.234h-5.8Z" fill="#20282d"/>
          <path id="Trazado_172562" data-name="Trazado 172562" d="M167.23,202.118h36.282a5.616,5.616,0,0,1,5.615,5.615H161.615a5.616,5.616,0,0,1,5.615-5.615Z" fill="#3b4955"/>
          <rect id="Rectángulo_44357" data-name="Rectángulo 44357" width="47.513" height="2.427" transform="translate(161.615 205.301)" fill="#2c363e"/>
          <ellipse id="Elipse_6123" data-name="Elipse 6123" cx="3.579" cy="3.589" rx="3.579" ry="3.589" transform="translate(158.036 206.165)" fill="#2c363e"/>
          <rect id="Rectángulo_44358" data-name="Rectángulo 44358" width="6.973" height="18.928" rx="3.486" transform="translate(181.699 185.258)" fill="#3b4955"/>
          <path id="Trazado_172563" data-name="Trazado 172563" d="M200.756,98.095h14.593s20.1,50.891-19.37,61.967h-31.5l-5.337-8.078,26.965-27.911,14.655-25.978Z" fill="#f85316"/>
          <path id="Trazado_172564" data-name="Trazado 172564" d="M160.668,151.983h30.868c29.037-8.315,25.17-39.074,21.442-53.889h2.37s20.1,50.891-19.37,61.967h-31.5l-5.337-8.078.915-.951Z" fill="#f85316"/>
          <path id="Trazado_172565" data-name="Trazado 172565" d="M143.576,143.988l-3.934,1.671a8.766,8.766,0,0,0-3.779,7.065c-.185,4.926,13.2,43.7,13.482,46.669s-4.556,6.134-4.556,6.134-9.667,1.3-9.857,7.811h16.922l7.811-4.556-2.139-63.592-13.945-1.208Z" fill="#3a3e4a"/>
          <path id="Trazado_172566" data-name="Trazado 172566" d="M144.785,205.533s5.111-.838,8,2.047c1.548,1.548,4.458.7,6.823-.4L157.521,145.2l-13.945-1.208-3.934,1.671a8.766,8.766,0,0,0-3.779,7.065c-.185,4.926,12.737,43.7,13.015,46.669s-4.093,6.134-4.093,6.134Z" fill="#efbbb9"/>
          <path id="Trazado_172567" data-name="Trazado 172567" d="M145.53,145.664l4,6.6,5.579-7.842-4.787-2.011Z" fill="#efbbb9"/>
          <path id="Trazado_172568" data-name="Trazado 172568" d="M153.058,145.664s-2.694.463-3.81,5.209,5.019,49.369,4.556,49.924-3.533,4.463-3.533,4.463-6.88,2.6-8.181,4.834-1.023,3.255-1.023,3.255h24.918s-1.116-8.181-1.579-12.182,1.378-48.346,1.378-48.346,3.733-10.13-12.721-7.158Z" fill="#ffd6d2"/>
          <path id="Trazado_172569" data-name="Trazado 172569" d="M155.449,135.621l-15.807,10.042h21.633s5.456.494,4.463,7.564l25.659-1.486s8.8-3.471,7.435-15.37l-43.389-.746Z" fill="#1f224d"/>
          <path id="Trazado_172570" data-name="Trazado 172570" d="M164.9,205.162s-.869,4.556-5.235.931-9.389-.838-9.389-.838-6.88,2.6-8.181,4.834-1.023,3.255-1.023,3.255H165.99s-.586-4.294-1.085-8.181h0Z" fill="#454958"/>
          <rect id="Rectángulo_44359" data-name="Rectángulo 44359" width="17.663" height="36.838" transform="translate(56.326 81.018)" fill="#7b6aaf"/>
          <rect id="Rectángulo_44360" data-name="Rectángulo 44360" width="9.605" height="36.838" transform="translate(47.338 81.018)" fill="#3d46c2"/>
          <rect id="Rectángulo_44361" data-name="Rectángulo 44361" width="5.456" height="20.332" transform="translate(49.323 82.874)" fill="#fbfcfa"/>
          <rect id="Rectángulo_44362" data-name="Rectángulo 44362" width="5.456" height="10.803" transform="translate(49.323 105.355)" fill="#fbfcfa"/>
          <path id="Trazado_172571" data-name="Trazado 172571" d="M115.655,115.912a7.429,7.429,0,0,1,6.073-3.656c4.4-.309,6.875.746,6.906.931s1.769,3.039,1.769,3.039V117.9H117.943l-2.293-1.985Z" fill="#283238"/>
          <path id="Trazado_172572" data-name="Trazado 172572" d="M138.156,112.935l-2.417-1.178-4.026.591s-4.006-1.892-5.008-2.139a15.078,15.078,0,0,0-3.419,0s-4.525,1.985-5.142,2.725l-.622.746,4.026,1.178a52.73,52.73,0,0,1,6.289-.37l-1.861,1.548-.524.992s4.026.309,6.757.309,8.366.514,8.366.514l-2.417-4.916Z" fill="#ffd6d2"/>
          <path id="Trazado_172573" data-name="Trazado 172573" d="M156.447,96.408s-.381,8.469-.5,9.4-20.208,5.949-20.208,5.949a8.108,8.108,0,0,1,.807,6.309h29.814V104.5l-9.909-8.1Z" fill="#3d46c2"/>
          <path id="Trazado_172574" data-name="Trazado 172574" d="M161.584,76.118l-1.265-1.753s-4.875,4.844-3.785,11.513,5.055-9.76,5.055-9.76Z" fill="#7a8093"/>
          <path id="Trazado_172575" data-name="Trazado 172575" d="M163.327,37.7a12.141,12.141,0,0,0-11.369,3.81c-4.129,4.731-5.744,12.449-4.777,15.694s6.71,3.641,6.71,3.641l7.96,1.707s-3.152,8.412.545,11.991l24.3-1.985s-7.79-8.3-7.734-14.326,1.537-20.635-15.637-20.522Z" fill="#461e38"/>
          <path id="Trazado_172576" data-name="Trazado 172576" d="M168.561,71.922,166.8,72.2l-6.479,2.16s-1.584,5.024-2.674,7.847a26.455,26.455,0,0,0-1.537,12.624c.4,4.489,5.857,8.587,6.767,10.86s.283,12.377.283,12.377h32.806s3.923-37.506-2.16-44.726c-3.445-4.093-14.439-3.923-14.439-3.923l-10.8,2.5Z" fill="#3d46c2"/>
          <rect id="Rectángulo_44363" data-name="Rectángulo 44363" width="76.236" height="79.954" transform="translate(47.6 133.39)" fill="#ac878c"/>
          <rect id="Rectángulo_44364" data-name="Rectángulo 44364" width="76.236" height="3.224" transform="translate(47.6 135.868)" fill="#8d7175"/>
          <rect id="Rectángulo_44365" data-name="Rectángulo 44365" width="31.238" height="79.954" transform="translate(92.598 133.39)" fill="#7d646a"/>
          <rect id="Rectángulo_44366" data-name="Rectángulo 44366" width="177.884" height="12.022" transform="translate(47.6 125.085)" fill="#ac878c"/>
          <rect id="Rectángulo_44367" data-name="Rectángulo 44367" width="177.884" height="3.471" transform="translate(47.6 125.085)" fill="#8d7175"/>
          <path id="Trazado_172577" data-name="Trazado 172577" d="M239.99,221H21.242a3.84,3.84,0,0,1-3.831-3.831h0a3.84,3.84,0,0,1,3.831-3.831H239.99a3.84,3.84,0,0,1,3.831,3.831h0A3.84,3.84,0,0,1,239.99,221Z" fill="#2a333d"/>
          <rect id="Rectángulo_44368" data-name="Rectángulo 44368" width="191.521" height="7.189" transform="translate(43.882 117.892)" fill="#ac878c"/>
          <rect id="Rectángulo_44369" data-name="Rectángulo 44369" width="45.121" height="7.189" transform="translate(190.281 117.892)" fill="#8d7175"/>
          <path id="Trazado_172578" data-name="Trazado 172578" d="M165.121,72.765s-.838,13.858,3.4,22.97c0,0,8.736-9.086,14.439-26.158l-3.6-.159L166.8,72.2l-1.676.56Z" fill="#f3fb87"/>
          <rect id="Rectángulo_44370" data-name="Rectángulo 44370" width="8.927" height="76.982" transform="translate(178.501 136.362)" fill="#ac878c"/>
          <rect id="Rectángulo_44371" data-name="Rectángulo 44371" width="3.101" height="76.982" transform="translate(184.332 136.362)" fill="#8d7175"/>
          <rect id="Rectángulo_44372" data-name="Rectángulo 44372" width="8.927" height="76.982" transform="translate(216.557 136.362)" fill="#ac878c"/>
          <rect id="Rectángulo_44373" data-name="Rectángulo 44373" width="3.101" height="76.982" transform="translate(222.383 136.362)" fill="#8d7175"/>
          <rect id="Rectángulo_44374" data-name="Rectángulo 44374" width="41.157" height="12.022" transform="translate(184.332 125.085)" fill="#8d7175"/>
          <rect id="Rectángulo_44375" data-name="Rectángulo 44375" width="41.157" height="3.594" transform="translate(184.332 125.085)" fill="#7d646a"/>
          <path id="Trazado_172579" data-name="Trazado 172579" d="M179.36,69.418s-3.224,5.97-8.171,5.97c-4.432,0-4.391-3.183-4.391-3.183v-3.3l-4.89.854c-8.526-3.584-11.03-14.953-11.03-14.953S158.051,43.2,161.337,45.6c4.607,3.353,7.333,2.617,7.333,2.617.113,6.654,4.15,7.96,4.15,7.96.057-2.617,3.126-3.81,3.754-.627s-2.329,5.06-2.329,5.06-1.023,6.767,5.116,8.813Z" fill="#ffd6d2"/>
          <path id="Trazado_172580" data-name="Trazado 172580" d="M167.842,111.387l-4.073.746s-4.047-1.178-5.224-1.306-5.394.992-5.394.992l-4.648,4.026,13.076.869a7.87,7.87,0,0,0,4.216.432l7.811.746-.494-7.5-5.271.992Z" fill="#ffd6d2"/>
          <rect id="Rectángulo_44376" data-name="Rectángulo 44376" width="42.55" height="2.293" transform="translate(127.153 115.603)" fill="#434e56"/>
          <path id="Trazado_172582" data-name="Trazado 172582" d="M185.88,88.268s1.6-17.159,3.5-17.5,6.731,2.874,11.194,17.5,4.093,24.625,2.108,27.124-12.4,2.5-12.4,2.5h-22.81L166.8,110.7l24.466-3.471s-6.068-13-5.394-18.964Z" fill="#3d46c2"/>
          <path id="Trazado_172583" data-name="Trazado 172583" d="M191.274,107.232l4.957-.494-5.949-.56Z" fill="#7a8093"/>
          <rect id="Rectángulo_44377" data-name="Rectángulo 44377" width="13.575" height="2.293" transform="translate(156.128 115.603)" fill="#364248"/>
          <rect id="Rectángulo_44378" data-name="Rectángulo 44378" width="17.663" height="36.838" transform="translate(67.263 81.018)" fill="#dce736"/>
          <rect id="Rectángulo_44379" data-name="Rectángulo 44379" width="9.605" height="36.838" transform="translate(58.275 81.018)" fill="#dce736"/>
          <rect id="Rectángulo_44380" data-name="Rectángulo 44380" width="5.456" height="20.332" transform="translate(60.26 82.874)" fill="#fbfcfa"/>
          <rect id="Rectángulo_44381" data-name="Rectángulo 44381" width="5.456" height="10.803" transform="translate(60.26 105.355)" fill="#fbfcfa"/>
          <rect id="Rectángulo_44382" data-name="Rectángulo 44382" width="8.366" height="22.517" transform="translate(74.627 95.334)" fill="#434e56"/>
          <rect id="Rectángulo_44383" data-name="Rectángulo 44383" width="1.116" height="22.517" transform="translate(74.627 95.334)" fill="#364248"/>
          <path id="Trazado_172584" data-name="Trazado 172584" d="M85.99,117.892H71.747a.6.6,0,0,1-.6-.6h0a.6.6,0,0,1,.6-.6H85.99a.6.6,0,0,1,.6.6h0A.6.6,0,0,1,85.99,117.892Z" fill="#364248"/>
          <path id="Trazado_172585" data-name="Trazado 172585" d="M85.99,116.7H76.956a.6.6,0,1,1,0,1.193H85.99a.6.6,0,0,0,0-1.193Z" fill="#434e56"/>
          <path id="Trazado_172586" data-name="Trazado 172586" d="M25.535,184.214S5.209,166.613,0,149.135c0,0,11.775,4.71,20.455,9.42l8.68,4.71s-.992-10.042,4.71-30.868c0,0,7.564,14.876,8.551,28.759s-6.633,19.956-6.633,19.956l-9.605,3.347-.622-.247Z" fill="#75b52f"/>
          <path id="Trazado_172587" data-name="Trazado 172587" d="M25.535,185.083s-14.13-15.123-13.39-48.592c0,0,17.725,17.108,21.571,34.832,0,0,3.347-15.37,13.884-26.281v45.245l-22.065-5.209Z" fill="#9acb65"/>
          <path id="Trazado_172588" data-name="Trazado 172588" d="M38.8,185.453s2.478-17.354,8.8-24.3v30.122Z" fill="#75b52f"/>
          <path id="Trazado_172589" data-name="Trazado 172589" d="M47.6,184.214v29.13H31.238l-7.312-29.13Z" fill="#46495c"/>
          <path id="Trazado_172590" data-name="Trazado 172590" d="M47.6,184.214l-11.837,29.13H47.6Z" fill="#3d414f"/>
          <rect id="Rectángulo_44384" data-name="Rectángulo 44384" width="75.244" height="48.515" rx="8.5" transform="translate(149.063 104.625) rotate(180)" fill="#283238"/>
          <path id="Trazado_172591" data-name="Trazado 172591" d="M147.335,102.054V58.691a2.577,2.577,0,0,0-2.576-2.576h1.728a2.577,2.577,0,0,1,2.576,2.576v43.363a2.577,2.577,0,0,1-2.576,2.576h-1.728A2.577,2.577,0,0,0,147.335,102.054Z" fill="#20292d"/>
          <path id="Trazado_172592" data-name="Trazado 172592" d="M109.176,85.62,117,77.9l9.7,26.728H108.579Z" fill="#1d2428"/>
          <path id="Trazado_172593" data-name="Trazado 172593" d="M117,77.9H102.738l-8.911,37.82v2.175h32.148v-2.376H108.086Z" fill="#434e56"/>
          <path id="Trazado_172594" data-name="Trazado 172594" d="M106.4,115.516,115.31,77.9H117l-8.911,37.619Z" fill="#364248"/>
          <rect id="Rectángulo_44385" data-name="Rectángulo 44385" width="14.552" height="2.376" transform="translate(112.534 115.516)" fill="#364248"/>
          <rect id="Rectángulo_44386" data-name="Rectángulo 44386" width="18.239" height="2.376" transform="translate(106.996 117.897) rotate(180)" fill="#434e56"/>
          <g id="Grupo_136996" data-name="Grupo 136996">
            <path id="Trazado_172595" data-name="Trazado 172595" d="M137.282,40.437V28.384a4.5,4.5,0,0,0-4.715-4.2H112.935a4.5,4.5,0,0,0-4.715,4.2V40.437a4.5,4.5,0,0,0,4.715,4.2h30.153Z" fill="#fff"/>
            <circle id="Elipse_6124" data-name="Elipse 6124" cx="2.124" cy="2.124" r="2.124" transform="matrix(0.442, -0.897, 0.897, 0.442, 127.958, 35.25)" fill="#2f363a"/>
            <path id="Trazado_172596" data-name="Trazado 172596" d="M120.895,34.375a2.121,2.121,0,1,0,2.021-2.216A2.115,2.115,0,0,0,120.895,34.375Z" fill="#2f363a"/>
            <path id="Trazado_172597" data-name="Trazado 172597" d="M113.115,34.375a2.121,2.121,0,1,0,2.021-2.216A2.114,2.114,0,0,0,113.115,34.375Z" fill="#2f363a"/>
          </g>
          <path id="Trazado_172598" data-name="Trazado 172598" d="M166.8,68.909l4.962-1.229-4.957,3.06Z" fill="#343433"/>
        </g>
      </g>
    </g>
  </g>
</svg>
